M48
; DRILL file {KiCad 7.0.11-7.0.11~ubuntu22.04.1} date Wed 25 Sep 2024 18:27:27 CET
; FORMAT={-:-/ absolute / inch / decimal}
; #@! TF.CreationDate,2024-09-25T18:27:27+01:00
; #@! TF.GenerationSoftware,Kicad,Pcbnew,7.0.11-7.0.11~ubuntu22.04.1
; #@! TF.FileFunction,Plated,1,2,PTH
FMAT,2
INCH
; #@! TA.AperFunction,Plated,PTH,ViaDrill
T1C0.0118
; #@! TA.AperFunction,Plated,PTH,ComponentDrill
T2C0.0236
; #@! TA.AperFunction,Plated,PTH,ComponentDrill
T3C0.0256
; #@! TA.AperFunction,Plated,PTH,ComponentDrill
T4C0.0315
%
G90
G05
T1
X2.26Y-4.53
X2.37Y-4.37
X2.42Y-5.18
X2.46Y-4.78
X2.47Y-4.49
X2.51Y-5.15
X2.6Y-5.19
X2.72Y-4.86
X2.79Y-4.66
X2.8Y-4.95
X2.93Y-4.95
X3.05Y-4.65
X3.08Y-4.75
X3.1Y-4.51
X3.25Y-4.96
X3.3Y-4.67
X3.34Y-4.46
T2
X2.325Y-4.7963
X2.325Y-4.875
X2.325Y-5.0096
X2.325Y-5.0883
X2.6138Y-4.525
X2.6925Y-4.525
X2.85Y-4.525
X2.9287Y-4.525
X3.4Y-4.5713
X3.4Y-4.65
X3.4Y-4.8
X3.4Y-4.8787
T3
X2.075Y-4.75
X2.075Y-4.8
X3.05Y-4.375
X3.1Y-4.375
X3.65Y-4.75
X3.65Y-4.8
T4
X2.6504Y-4.7496
X2.6504Y-5.0496
X2.7504Y-4.7496
X2.7504Y-5.0496
X2.8504Y-4.7496
X2.8504Y-5.0496
X2.9504Y-4.7496
X2.9504Y-5.0496
M30
