%TF.GenerationSoftware,KiCad,Pcbnew,7.0.11-7.0.11~ubuntu22.04.1*%
%TF.CreationDate,2024-09-25T18:26:51+01:00*%
%TF.ProjectId,kicad_project,6b696361-645f-4707-926f-6a6563742e6b,rev?*%
%TF.SameCoordinates,Original*%
%TF.FileFunction,Copper,L2,Bot*%
%TF.FilePolarity,Positive*%
%FSLAX46Y46*%
G04 Gerber Fmt 4.6, Leading zero omitted, Abs format (unit mm)*
G04 Created by KiCad (PCBNEW 7.0.11-7.0.11~ubuntu22.04.1) date 2024-09-25 18:26:51*
%MOMM*%
%LPD*%
G01*
G04 APERTURE LIST*
%TA.AperFunction,ComponentPad*%
%ADD10R,1.600000X1.600000*%
%TD*%
%TA.AperFunction,ComponentPad*%
%ADD11O,1.600000X1.600000*%
%TD*%
%TA.AperFunction,ComponentPad*%
%ADD12R,1.000000X1.000000*%
%TD*%
%TA.AperFunction,ComponentPad*%
%ADD13O,1.000000X1.000000*%
%TD*%
%TA.AperFunction,ComponentPad*%
%ADD14R,1.200000X1.200000*%
%TD*%
%TA.AperFunction,ComponentPad*%
%ADD15C,1.200000*%
%TD*%
%TA.AperFunction,ViaPad*%
%ADD16C,0.600000*%
%TD*%
%TA.AperFunction,Conductor*%
%ADD17C,0.300000*%
%TD*%
G04 APERTURE END LIST*
D10*
%TO.P,U3,1*%
%TO.N,Net-(C2-Pad1)*%
X67320000Y-128260000D03*
D11*
%TO.P,U3,2,-*%
%TO.N,Net-(U3A--)*%
X69860000Y-128260000D03*
%TO.P,U3,3,+*%
%TO.N,Net-(U3A-+)*%
X72400000Y-128260000D03*
%TO.P,U3,4,V-*%
%TO.N,GND*%
X74940000Y-128260000D03*
%TO.P,U3,5,+*%
%TO.N,Net-(U3B-+)*%
X74940000Y-120640000D03*
%TO.P,U3,6,-*%
%TO.N,Net-(U3B--)*%
X72400000Y-120640000D03*
%TO.P,U3,7*%
%TO.N,Net-(J3-Pin_1)*%
X69860000Y-120640000D03*
%TO.P,U3,8,V+*%
%TO.N,+12V*%
X67320000Y-120640000D03*
%TD*%
D12*
%TO.P,J3,1,Pin_1*%
%TO.N,Net-(J3-Pin_1)*%
X92710000Y-120650000D03*
D13*
%TO.P,J3,2,Pin_2*%
%TO.N,GND*%
X92710000Y-121920000D03*
%TD*%
D12*
%TO.P,J2,1,Pin_1*%
%TO.N,+12V*%
X77470000Y-111125000D03*
D13*
%TO.P,J2,2,Pin_2*%
%TO.N,GND*%
X78740000Y-111125000D03*
%TD*%
D12*
%TO.P,J1,1,Pin_1*%
%TO.N,Net-(J1-Pin_1)*%
X52705000Y-120650000D03*
D13*
%TO.P,J1,2,Pin_2*%
%TO.N,GND*%
X52705000Y-121920000D03*
%TD*%
D14*
%TO.P,C6,1*%
%TO.N,Net-(J3-Pin_1)*%
X86360000Y-118110000D03*
D15*
%TO.P,C6,2*%
%TO.N,Net-(C6-Pad2)*%
X86360000Y-116110000D03*
%TD*%
D14*
%TO.P,C5,1*%
%TO.N,Net-(U3B-+)*%
X86360000Y-121920000D03*
D15*
%TO.P,C5,2*%
%TO.N,GND*%
X86360000Y-123920000D03*
%TD*%
D14*
%TO.P,C4,1*%
%TO.N,+12V*%
X66390000Y-114935000D03*
D15*
%TO.P,C4,2*%
%TO.N,GND*%
X68390000Y-114935000D03*
%TD*%
D14*
%TO.P,C3,1*%
%TO.N,+12V*%
X72390000Y-114935000D03*
D15*
%TO.P,C3,2*%
%TO.N,GND*%
X74390000Y-114935000D03*
%TD*%
D14*
%TO.P,C2,1*%
%TO.N,Net-(C2-Pad1)*%
X59055000Y-123825000D03*
D15*
%TO.P,C2,2*%
%TO.N,Net-(C2-Pad2)*%
X59055000Y-121825000D03*
%TD*%
D14*
%TO.P,C1,1*%
%TO.N,Net-(U3A-+)*%
X59055000Y-129242599D03*
D15*
%TO.P,C1,2*%
%TO.N,GND*%
X59055000Y-127242599D03*
%TD*%
D16*
%TO.N,GND*%
X62484000Y-121412000D03*
X70866000Y-118364000D03*
X66040000Y-131826000D03*
X61468000Y-131572000D03*
X63754000Y-130810000D03*
X74422000Y-125730000D03*
X69088000Y-123444000D03*
X84836000Y-113284000D03*
X78740000Y-114554000D03*
X60198000Y-110998000D03*
X62738000Y-114046000D03*
%TO.N,Net-(J3-Pin_1)*%
X82550000Y-125984000D03*
X83820000Y-118618000D03*
%TO.N,GND*%
X57404000Y-115062000D03*
%TO.N,Net-(C6-Pad2)*%
X77470000Y-118110000D03*
X78232000Y-120650000D03*
%TO.N,Net-(U3A-+)*%
X71120000Y-125730000D03*
%TD*%
D17*
%TO.N,Net-(J3-Pin_1)*%
X82550000Y-119888000D02*
X82550000Y-125984000D01*
X83820000Y-118618000D02*
X82550000Y-119888000D01*
%TO.N,Net-(C6-Pad2)*%
X77470000Y-119888000D02*
X77470000Y-118110000D01*
X78232000Y-120650000D02*
X77470000Y-119888000D01*
%TO.N,Net-(U3A-+)*%
X71120000Y-125730000D02*
X65405000Y-125730000D01*
X65405000Y-125730000D02*
X61892401Y-129242599D01*
X61892401Y-129242599D02*
X59055000Y-129242599D01*
%TD*%
%TA.AperFunction,Conductor*%
%TO.N,GND*%
G36*
X94792539Y-109640185D02*
G01*
X94838294Y-109692989D01*
X94849500Y-109744500D01*
X94849500Y-132825500D01*
X94829815Y-132892539D01*
X94777011Y-132938294D01*
X94725500Y-132949500D01*
X51324500Y-132949500D01*
X51257461Y-132929815D01*
X51211706Y-132877011D01*
X51200500Y-132825500D01*
X51200500Y-130048005D01*
X51696754Y-130048005D01*
X51715718Y-130349446D01*
X51715719Y-130349453D01*
X51772320Y-130646164D01*
X51865659Y-130933431D01*
X51865661Y-130933436D01*
X51994265Y-131206732D01*
X51994268Y-131206738D01*
X52156111Y-131461763D01*
X52156114Y-131461767D01*
X52156115Y-131461768D01*
X52165543Y-131473165D01*
X52348652Y-131694505D01*
X52568836Y-131901272D01*
X52568846Y-131901280D01*
X52813193Y-132078808D01*
X52813198Y-132078810D01*
X52813205Y-132078816D01*
X53077896Y-132224332D01*
X53077901Y-132224334D01*
X53077903Y-132224335D01*
X53077904Y-132224336D01*
X53358734Y-132335524D01*
X53358737Y-132335525D01*
X53456259Y-132360564D01*
X53651302Y-132410642D01*
X53798039Y-132429179D01*
X53950963Y-132448499D01*
X53950969Y-132448499D01*
X53950973Y-132448500D01*
X53950975Y-132448500D01*
X54253025Y-132448500D01*
X54253027Y-132448500D01*
X54253032Y-132448499D01*
X54253036Y-132448499D01*
X54332591Y-132438448D01*
X54552698Y-132410642D01*
X54845262Y-132335525D01*
X54845265Y-132335524D01*
X55126095Y-132224336D01*
X55126096Y-132224335D01*
X55126094Y-132224335D01*
X55126104Y-132224332D01*
X55390795Y-132078816D01*
X55635162Y-131901274D01*
X55855349Y-131694504D01*
X56047885Y-131461768D01*
X56209733Y-131206736D01*
X56338341Y-130933430D01*
X56431681Y-130646160D01*
X56488280Y-130349457D01*
X56488680Y-130343097D01*
X56507246Y-130048005D01*
X56507246Y-130047994D01*
X56497335Y-129890469D01*
X57954500Y-129890469D01*
X57954501Y-129890475D01*
X57960908Y-129950082D01*
X58011202Y-130084927D01*
X58011206Y-130084934D01*
X58097452Y-130200143D01*
X58097455Y-130200146D01*
X58212664Y-130286392D01*
X58212671Y-130286396D01*
X58347517Y-130336690D01*
X58347516Y-130336690D01*
X58354444Y-130337434D01*
X58407127Y-130343099D01*
X59702872Y-130343098D01*
X59762483Y-130336690D01*
X59897331Y-130286395D01*
X60012546Y-130200145D01*
X60098796Y-130084930D01*
X60112568Y-130048005D01*
X89034754Y-130048005D01*
X89053718Y-130349446D01*
X89053719Y-130349453D01*
X89110320Y-130646164D01*
X89203659Y-130933431D01*
X89203661Y-130933436D01*
X89332265Y-131206732D01*
X89332268Y-131206738D01*
X89494111Y-131461763D01*
X89494114Y-131461767D01*
X89494115Y-131461768D01*
X89503543Y-131473165D01*
X89686652Y-131694505D01*
X89906836Y-131901272D01*
X89906846Y-131901280D01*
X90151193Y-132078808D01*
X90151198Y-132078810D01*
X90151205Y-132078816D01*
X90415896Y-132224332D01*
X90415901Y-132224334D01*
X90415903Y-132224335D01*
X90415904Y-132224336D01*
X90696734Y-132335524D01*
X90696737Y-132335525D01*
X90794259Y-132360564D01*
X90989302Y-132410642D01*
X91136039Y-132429179D01*
X91288963Y-132448499D01*
X91288969Y-132448499D01*
X91288973Y-132448500D01*
X91288975Y-132448500D01*
X91591025Y-132448500D01*
X91591027Y-132448500D01*
X91591032Y-132448499D01*
X91591036Y-132448499D01*
X91670591Y-132438448D01*
X91890698Y-132410642D01*
X92183262Y-132335525D01*
X92183265Y-132335524D01*
X92464095Y-132224336D01*
X92464096Y-132224335D01*
X92464094Y-132224335D01*
X92464104Y-132224332D01*
X92728795Y-132078816D01*
X92973162Y-131901274D01*
X93193349Y-131694504D01*
X93385885Y-131461768D01*
X93547733Y-131206736D01*
X93676341Y-130933430D01*
X93769681Y-130646160D01*
X93826280Y-130349457D01*
X93826680Y-130343097D01*
X93845246Y-130048005D01*
X93845246Y-130047994D01*
X93826281Y-129746553D01*
X93826280Y-129746546D01*
X93826280Y-129746543D01*
X93769681Y-129449840D01*
X93676341Y-129162570D01*
X93547733Y-128889264D01*
X93480005Y-128782542D01*
X93385888Y-128634236D01*
X93385885Y-128634232D01*
X93193349Y-128401496D01*
X93192043Y-128400270D01*
X92977506Y-128198805D01*
X92973162Y-128194726D01*
X92973159Y-128194724D01*
X92973153Y-128194719D01*
X92728806Y-128017191D01*
X92728799Y-128017186D01*
X92728795Y-128017184D01*
X92464104Y-127871668D01*
X92464101Y-127871666D01*
X92464096Y-127871664D01*
X92464095Y-127871663D01*
X92183265Y-127760475D01*
X92183262Y-127760474D01*
X91890695Y-127685357D01*
X91591036Y-127647500D01*
X91591027Y-127647500D01*
X91288973Y-127647500D01*
X91288963Y-127647500D01*
X90989304Y-127685357D01*
X90696737Y-127760474D01*
X90696734Y-127760475D01*
X90415904Y-127871663D01*
X90415903Y-127871664D01*
X90151205Y-128017184D01*
X90151193Y-128017191D01*
X89906846Y-128194719D01*
X89906836Y-128194727D01*
X89686652Y-128401494D01*
X89494111Y-128634236D01*
X89332268Y-128889261D01*
X89332265Y-128889267D01*
X89203661Y-129162563D01*
X89203659Y-129162568D01*
X89110320Y-129449835D01*
X89053719Y-129746546D01*
X89053718Y-129746553D01*
X89034754Y-130047994D01*
X89034754Y-130048005D01*
X60112568Y-130048005D01*
X60112572Y-130047994D01*
X60140258Y-129973766D01*
X60182129Y-129917832D01*
X60247593Y-129893415D01*
X60256440Y-129893099D01*
X61806896Y-129893099D01*
X61822906Y-129894866D01*
X61822929Y-129894625D01*
X61830690Y-129895357D01*
X61830697Y-129895359D01*
X61900663Y-129893159D01*
X61904558Y-129893099D01*
X61933326Y-129893099D01*
X61937688Y-129892547D01*
X61949340Y-129891629D01*
X61994970Y-129890196D01*
X62015357Y-129884272D01*
X62034397Y-129880330D01*
X62055459Y-129877670D01*
X62097921Y-129860857D01*
X62108958Y-129857079D01*
X62152799Y-129844343D01*
X62171066Y-129833538D01*
X62188537Y-129824979D01*
X62208272Y-129817167D01*
X62245217Y-129790324D01*
X62254959Y-129783925D01*
X62294266Y-129760680D01*
X62309271Y-129745674D01*
X62324069Y-129733035D01*
X62341238Y-129720562D01*
X62370347Y-129685373D01*
X62378191Y-129676753D01*
X62947074Y-129107870D01*
X66019500Y-129107870D01*
X66019501Y-129107876D01*
X66025908Y-129167483D01*
X66076202Y-129302328D01*
X66076206Y-129302335D01*
X66162452Y-129417544D01*
X66162455Y-129417547D01*
X66277664Y-129503793D01*
X66277671Y-129503797D01*
X66412517Y-129554091D01*
X66412516Y-129554091D01*
X66419444Y-129554835D01*
X66472127Y-129560500D01*
X68167872Y-129560499D01*
X68227483Y-129554091D01*
X68362331Y-129503796D01*
X68477546Y-129417546D01*
X68563796Y-129302331D01*
X68614091Y-129167483D01*
X68617862Y-129132401D01*
X68644599Y-129067855D01*
X68701990Y-129028006D01*
X68771816Y-129025511D01*
X68831905Y-129061163D01*
X68842726Y-129074536D01*
X68859956Y-129099143D01*
X69020858Y-129260045D01*
X69020861Y-129260047D01*
X69207266Y-129390568D01*
X69413504Y-129486739D01*
X69633308Y-129545635D01*
X69795230Y-129559801D01*
X69859998Y-129565468D01*
X69860000Y-129565468D01*
X69860002Y-129565468D01*
X69916807Y-129560498D01*
X70086692Y-129545635D01*
X70306496Y-129486739D01*
X70512734Y-129390568D01*
X70699139Y-129260047D01*
X70860047Y-129099139D01*
X70990568Y-128912734D01*
X71017618Y-128854724D01*
X71063790Y-128802285D01*
X71130983Y-128783133D01*
X71197865Y-128803348D01*
X71242382Y-128854725D01*
X71269429Y-128912728D01*
X71269432Y-128912734D01*
X71399954Y-129099141D01*
X71560858Y-129260045D01*
X71560861Y-129260047D01*
X71747266Y-129390568D01*
X71953504Y-129486739D01*
X72173308Y-129545635D01*
X72335230Y-129559801D01*
X72399998Y-129565468D01*
X72400000Y-129565468D01*
X72400002Y-129565468D01*
X72456807Y-129560498D01*
X72626692Y-129545635D01*
X72846496Y-129486739D01*
X73052734Y-129390568D01*
X73239139Y-129260047D01*
X73400047Y-129099139D01*
X73530568Y-128912734D01*
X73557895Y-128854129D01*
X73604064Y-128801695D01*
X73671257Y-128782542D01*
X73738139Y-128802757D01*
X73782657Y-128854133D01*
X73809865Y-128912482D01*
X73940342Y-129098820D01*
X74101179Y-129259657D01*
X74287517Y-129390134D01*
X74493673Y-129486265D01*
X74493682Y-129486269D01*
X74689999Y-129538872D01*
X74690000Y-129538871D01*
X74690000Y-128575686D01*
X74701955Y-128587641D01*
X74814852Y-128645165D01*
X74908519Y-128660000D01*
X74971481Y-128660000D01*
X75065148Y-128645165D01*
X75178045Y-128587641D01*
X75190000Y-128575686D01*
X75190000Y-129538872D01*
X75386317Y-129486269D01*
X75386326Y-129486265D01*
X75592482Y-129390134D01*
X75778820Y-129259657D01*
X75939657Y-129098820D01*
X76070134Y-128912482D01*
X76166265Y-128706326D01*
X76166269Y-128706317D01*
X76218872Y-128510000D01*
X75255686Y-128510000D01*
X75267641Y-128498045D01*
X75325165Y-128385148D01*
X75344986Y-128260000D01*
X75325165Y-128134852D01*
X75267641Y-128021955D01*
X75255686Y-128010000D01*
X76218872Y-128010000D01*
X76218872Y-128009999D01*
X76166269Y-127813682D01*
X76166265Y-127813673D01*
X76070134Y-127607517D01*
X75939657Y-127421179D01*
X75778820Y-127260342D01*
X75592482Y-127129865D01*
X75386328Y-127033734D01*
X75190000Y-126981127D01*
X75190000Y-127944314D01*
X75178045Y-127932359D01*
X75065148Y-127874835D01*
X74971481Y-127860000D01*
X74908519Y-127860000D01*
X74814852Y-127874835D01*
X74701955Y-127932359D01*
X74690000Y-127944314D01*
X74690000Y-126981127D01*
X74493671Y-127033734D01*
X74287517Y-127129865D01*
X74101179Y-127260342D01*
X73940342Y-127421179D01*
X73809867Y-127607515D01*
X73782657Y-127665867D01*
X73736484Y-127718306D01*
X73669290Y-127737457D01*
X73602409Y-127717241D01*
X73557893Y-127665865D01*
X73549329Y-127647500D01*
X73530568Y-127607266D01*
X73400047Y-127420861D01*
X73400045Y-127420858D01*
X73239141Y-127259954D01*
X73052734Y-127129432D01*
X73052732Y-127129431D01*
X72846497Y-127033261D01*
X72846488Y-127033258D01*
X72626697Y-126974366D01*
X72626693Y-126974365D01*
X72626692Y-126974365D01*
X72626691Y-126974364D01*
X72626686Y-126974364D01*
X72400002Y-126954532D01*
X72399998Y-126954532D01*
X72173313Y-126974364D01*
X72173302Y-126974366D01*
X71953511Y-127033258D01*
X71953502Y-127033261D01*
X71747267Y-127129431D01*
X71747265Y-127129432D01*
X71560858Y-127259954D01*
X71399954Y-127420858D01*
X71269432Y-127607265D01*
X71269431Y-127607267D01*
X71242382Y-127665275D01*
X71196209Y-127717714D01*
X71129016Y-127736866D01*
X71062135Y-127716650D01*
X71017618Y-127665275D01*
X70990568Y-127607266D01*
X70860047Y-127420861D01*
X70860045Y-127420858D01*
X70699141Y-127259954D01*
X70512734Y-127129432D01*
X70512732Y-127129431D01*
X70306497Y-127033261D01*
X70306488Y-127033258D01*
X70086697Y-126974366D01*
X70086693Y-126974365D01*
X70086692Y-126974365D01*
X70086691Y-126974364D01*
X70086686Y-126974364D01*
X69860002Y-126954532D01*
X69859998Y-126954532D01*
X69633313Y-126974364D01*
X69633302Y-126974366D01*
X69413511Y-127033258D01*
X69413502Y-127033261D01*
X69207267Y-127129431D01*
X69207265Y-127129432D01*
X69020858Y-127259954D01*
X68859954Y-127420858D01*
X68842725Y-127445464D01*
X68788147Y-127489088D01*
X68718648Y-127496280D01*
X68656294Y-127464757D01*
X68620882Y-127404526D01*
X68617861Y-127387591D01*
X68614091Y-127352516D01*
X68563797Y-127217671D01*
X68563793Y-127217664D01*
X68477547Y-127102455D01*
X68477544Y-127102452D01*
X68362335Y-127016206D01*
X68362328Y-127016202D01*
X68227482Y-126965908D01*
X68227483Y-126965908D01*
X68167883Y-126959501D01*
X68167881Y-126959500D01*
X68167873Y-126959500D01*
X68167864Y-126959500D01*
X66472129Y-126959500D01*
X66472123Y-126959501D01*
X66412516Y-126965908D01*
X66277671Y-127016202D01*
X66277664Y-127016206D01*
X66162455Y-127102452D01*
X66162452Y-127102455D01*
X66076206Y-127217664D01*
X66076202Y-127217671D01*
X66025908Y-127352517D01*
X66019501Y-127412116D01*
X66019500Y-127412135D01*
X66019500Y-129107870D01*
X62947074Y-129107870D01*
X65638127Y-126416819D01*
X65699450Y-126383334D01*
X65725808Y-126380500D01*
X70614932Y-126380500D01*
X70680904Y-126399506D01*
X70770477Y-126455789D01*
X70770481Y-126455790D01*
X70940737Y-126515366D01*
X70940743Y-126515367D01*
X70940745Y-126515368D01*
X70940746Y-126515368D01*
X70940750Y-126515369D01*
X71119996Y-126535565D01*
X71120000Y-126535565D01*
X71120004Y-126535565D01*
X71299249Y-126515369D01*
X71299252Y-126515368D01*
X71299255Y-126515368D01*
X71469522Y-126455789D01*
X71622262Y-126359816D01*
X71749816Y-126232262D01*
X71845789Y-126079522D01*
X71879213Y-125984003D01*
X81744435Y-125984003D01*
X81764630Y-126163249D01*
X81764631Y-126163254D01*
X81824211Y-126333523D01*
X81901037Y-126455790D01*
X81920184Y-126486262D01*
X82047738Y-126613816D01*
X82200478Y-126709789D01*
X82370745Y-126769368D01*
X82370750Y-126769369D01*
X82549996Y-126789565D01*
X82550000Y-126789565D01*
X82550004Y-126789565D01*
X82729249Y-126769369D01*
X82729252Y-126769368D01*
X82729255Y-126769368D01*
X82899522Y-126709789D01*
X83052262Y-126613816D01*
X83179816Y-126486262D01*
X83275789Y-126333522D01*
X83335368Y-126163255D01*
X83335369Y-126163249D01*
X83355565Y-125984003D01*
X83355565Y-125983996D01*
X83335369Y-125804750D01*
X83335366Y-125804737D01*
X83275790Y-125634481D01*
X83275789Y-125634478D01*
X83254008Y-125599814D01*
X83219506Y-125544903D01*
X83200500Y-125478931D01*
X83200500Y-124854240D01*
X85779311Y-124854240D01*
X85867585Y-124908897D01*
X86057678Y-124982539D01*
X86258072Y-125020000D01*
X86461928Y-125020000D01*
X86662322Y-124982539D01*
X86852412Y-124908899D01*
X86852416Y-124908897D01*
X86940686Y-124854241D01*
X86940686Y-124854240D01*
X86360001Y-124273553D01*
X86360000Y-124273553D01*
X85779311Y-124854240D01*
X83200500Y-124854240D01*
X83200500Y-123920000D01*
X85255287Y-123920000D01*
X85274096Y-124122989D01*
X85274097Y-124122992D01*
X85329883Y-124319063D01*
X85329886Y-124319069D01*
X85420751Y-124501551D01*
X85422533Y-124503911D01*
X86006446Y-123920000D01*
X85978286Y-123891840D01*
X86056105Y-123891840D01*
X86066454Y-124003521D01*
X86116448Y-124103922D01*
X86199334Y-124179484D01*
X86303920Y-124220000D01*
X86387802Y-124220000D01*
X86470250Y-124204588D01*
X86565610Y-124145543D01*
X86633201Y-124056038D01*
X86663895Y-123948160D01*
X86661286Y-123920000D01*
X86713553Y-123920000D01*
X87297465Y-124503912D01*
X87299247Y-124501553D01*
X87299248Y-124501551D01*
X87390113Y-124319069D01*
X87390116Y-124319063D01*
X87445902Y-124122992D01*
X87445903Y-124122989D01*
X87464713Y-123920000D01*
X87464713Y-123919999D01*
X87445903Y-123717010D01*
X87445902Y-123717007D01*
X87390116Y-123520936D01*
X87390113Y-123520930D01*
X87299249Y-123338449D01*
X87299247Y-123338447D01*
X87297465Y-123336087D01*
X86713553Y-123920000D01*
X86661286Y-123920000D01*
X86653546Y-123836479D01*
X86603552Y-123736078D01*
X86520666Y-123660516D01*
X86416080Y-123620000D01*
X86332198Y-123620000D01*
X86249750Y-123635412D01*
X86154390Y-123694457D01*
X86086799Y-123783962D01*
X86056105Y-123891840D01*
X85978286Y-123891840D01*
X85422533Y-123336087D01*
X85420755Y-123338442D01*
X85420754Y-123338443D01*
X85329886Y-123520930D01*
X85329883Y-123520936D01*
X85274097Y-123717007D01*
X85274096Y-123717010D01*
X85255287Y-123919999D01*
X85255287Y-123920000D01*
X83200500Y-123920000D01*
X83200500Y-122567870D01*
X85259500Y-122567870D01*
X85259501Y-122567876D01*
X85265908Y-122627483D01*
X85316202Y-122762328D01*
X85316206Y-122762335D01*
X85402452Y-122877544D01*
X85402455Y-122877547D01*
X85517664Y-122963793D01*
X85517671Y-122963797D01*
X85652516Y-123014091D01*
X85678419Y-123016875D01*
X85712127Y-123020500D01*
X85762692Y-123020499D01*
X85829729Y-123040182D01*
X85850372Y-123056818D01*
X86360000Y-123566446D01*
X86869628Y-123056818D01*
X86930951Y-123023333D01*
X86957308Y-123020499D01*
X87007872Y-123020499D01*
X87067483Y-123014091D01*
X87202331Y-122963796D01*
X87317546Y-122877546D01*
X87403796Y-122762331D01*
X87454091Y-122627483D01*
X87460500Y-122567873D01*
X87460500Y-122170000D01*
X91740840Y-122170000D01*
X91781652Y-122304541D01*
X91874503Y-122478253D01*
X91874507Y-122478260D01*
X91999471Y-122630528D01*
X92151739Y-122755491D01*
X92325465Y-122848349D01*
X92460000Y-122889159D01*
X92460000Y-122170000D01*
X91740840Y-122170000D01*
X87460500Y-122170000D01*
X87460499Y-121272128D01*
X87454091Y-121212517D01*
X87448630Y-121197876D01*
X87448628Y-121197870D01*
X91709500Y-121197870D01*
X91709501Y-121197876D01*
X91715908Y-121257483D01*
X91766202Y-121392328D01*
X91766206Y-121392335D01*
X91772561Y-121400824D01*
X91796979Y-121466288D01*
X91783495Y-121529636D01*
X91783981Y-121529838D01*
X91782894Y-121532461D01*
X91782655Y-121533586D01*
X91781650Y-121535464D01*
X91740839Y-121669999D01*
X91740840Y-121670000D01*
X92495517Y-121670000D01*
X92424199Y-121754993D01*
X92385000Y-121862694D01*
X92385000Y-121977306D01*
X92424199Y-122085007D01*
X92497871Y-122172805D01*
X92597129Y-122230112D01*
X92681564Y-122245000D01*
X92738436Y-122245000D01*
X92822871Y-122230112D01*
X92922129Y-122172805D01*
X92924483Y-122170000D01*
X92960000Y-122170000D01*
X92960000Y-122889159D01*
X93094534Y-122848349D01*
X93268260Y-122755491D01*
X93420528Y-122630528D01*
X93545492Y-122478260D01*
X93545496Y-122478253D01*
X93638347Y-122304541D01*
X93679160Y-122170000D01*
X92960000Y-122170000D01*
X92924483Y-122170000D01*
X92995801Y-122085007D01*
X93035000Y-121977306D01*
X93035000Y-121862694D01*
X92995801Y-121754993D01*
X92924483Y-121670000D01*
X93679160Y-121670000D01*
X93679160Y-121669999D01*
X93638348Y-121535462D01*
X93637345Y-121533585D01*
X93637115Y-121532483D01*
X93636018Y-121529833D01*
X93636520Y-121529624D01*
X93623105Y-121465182D01*
X93647440Y-121400821D01*
X93653796Y-121392331D01*
X93704091Y-121257483D01*
X93710500Y-121197873D01*
X93710499Y-120102128D01*
X93705009Y-120051054D01*
X93704091Y-120042516D01*
X93653797Y-119907671D01*
X93653793Y-119907664D01*
X93567547Y-119792455D01*
X93567544Y-119792452D01*
X93452335Y-119706206D01*
X93452328Y-119706202D01*
X93317482Y-119655908D01*
X93317483Y-119655908D01*
X93257883Y-119649501D01*
X93257881Y-119649500D01*
X93257873Y-119649500D01*
X93257864Y-119649500D01*
X92162129Y-119649500D01*
X92162123Y-119649501D01*
X92102516Y-119655908D01*
X91967671Y-119706202D01*
X91967664Y-119706206D01*
X91852455Y-119792452D01*
X91852452Y-119792455D01*
X91766206Y-119907664D01*
X91766202Y-119907671D01*
X91715908Y-120042517D01*
X91710426Y-120093514D01*
X91709501Y-120102123D01*
X91709500Y-120102135D01*
X91709500Y-121197870D01*
X87448628Y-121197870D01*
X87403797Y-121077671D01*
X87403793Y-121077664D01*
X87317547Y-120962455D01*
X87317544Y-120962452D01*
X87202335Y-120876206D01*
X87202328Y-120876202D01*
X87067482Y-120825908D01*
X87067483Y-120825908D01*
X87007883Y-120819501D01*
X87007881Y-120819500D01*
X87007873Y-120819500D01*
X87007864Y-120819500D01*
X85712129Y-120819500D01*
X85712123Y-120819501D01*
X85652516Y-120825908D01*
X85517671Y-120876202D01*
X85517664Y-120876206D01*
X85402455Y-120962452D01*
X85402452Y-120962455D01*
X85316206Y-121077664D01*
X85316202Y-121077671D01*
X85265908Y-121212517D01*
X85261074Y-121257483D01*
X85259501Y-121272123D01*
X85259500Y-121272135D01*
X85259500Y-122567870D01*
X83200500Y-122567870D01*
X83200500Y-120208807D01*
X83220185Y-120141768D01*
X83236815Y-120121130D01*
X83918224Y-119439720D01*
X83979545Y-119406237D01*
X83992019Y-119404183D01*
X83999255Y-119403368D01*
X84169522Y-119343789D01*
X84322262Y-119247816D01*
X84449816Y-119120262D01*
X84545789Y-118967522D01*
X84605368Y-118797255D01*
X84609805Y-118757876D01*
X84625565Y-118618003D01*
X84625565Y-118617996D01*
X84605369Y-118438750D01*
X84605368Y-118438745D01*
X84545788Y-118268476D01*
X84449815Y-118115737D01*
X84322262Y-117988184D01*
X84169523Y-117892211D01*
X83999254Y-117832631D01*
X83999249Y-117832630D01*
X83820004Y-117812435D01*
X83819996Y-117812435D01*
X83640750Y-117832630D01*
X83640745Y-117832631D01*
X83470476Y-117892211D01*
X83317737Y-117988184D01*
X83190184Y-118115737D01*
X83094210Y-118268478D01*
X83034632Y-118438744D01*
X83034630Y-118438752D01*
X83033815Y-118445988D01*
X83006743Y-118510400D01*
X82998277Y-118519775D01*
X82150483Y-119367569D01*
X82137910Y-119377643D01*
X82138065Y-119377830D01*
X82132058Y-119382799D01*
X82084133Y-119433833D01*
X82081427Y-119436625D01*
X82061090Y-119456963D01*
X82061077Y-119456978D01*
X82058373Y-119460463D01*
X82050806Y-119469322D01*
X82019552Y-119502607D01*
X82009322Y-119521213D01*
X81998646Y-119537464D01*
X81985640Y-119554232D01*
X81985636Y-119554238D01*
X81967508Y-119596130D01*
X81962369Y-119606619D01*
X81940372Y-119646630D01*
X81940372Y-119646631D01*
X81935091Y-119667199D01*
X81928791Y-119685601D01*
X81920364Y-119705073D01*
X81913223Y-119750162D01*
X81910854Y-119761600D01*
X81899500Y-119805817D01*
X81899500Y-119827044D01*
X81897973Y-119846444D01*
X81895093Y-119864630D01*
X81894653Y-119867405D01*
X81897749Y-119900157D01*
X81898950Y-119912858D01*
X81899500Y-119924528D01*
X81899500Y-125478931D01*
X81880494Y-125544903D01*
X81824211Y-125634477D01*
X81824209Y-125634481D01*
X81764633Y-125804737D01*
X81764630Y-125804750D01*
X81744435Y-125983996D01*
X81744435Y-125984003D01*
X71879213Y-125984003D01*
X71905368Y-125909255D01*
X71917143Y-125804750D01*
X71925565Y-125730003D01*
X71925565Y-125729996D01*
X71905369Y-125550750D01*
X71905368Y-125550745D01*
X71845788Y-125380476D01*
X71749815Y-125227737D01*
X71622262Y-125100184D01*
X71469523Y-125004211D01*
X71299254Y-124944631D01*
X71299249Y-124944630D01*
X71120004Y-124924435D01*
X71119996Y-124924435D01*
X70940750Y-124944630D01*
X70940737Y-124944633D01*
X70770481Y-125004209D01*
X70770477Y-125004210D01*
X70680904Y-125060494D01*
X70614932Y-125079500D01*
X65490504Y-125079500D01*
X65474493Y-125077732D01*
X65474471Y-125077974D01*
X65466704Y-125077240D01*
X65466703Y-125077240D01*
X65396737Y-125079439D01*
X65392842Y-125079500D01*
X65364075Y-125079500D01*
X65364072Y-125079500D01*
X65364057Y-125079501D01*
X65359687Y-125080053D01*
X65348059Y-125080968D01*
X65302435Y-125082402D01*
X65302425Y-125082404D01*
X65282049Y-125088323D01*
X65263008Y-125092266D01*
X65241953Y-125094926D01*
X65241937Y-125094930D01*
X65199491Y-125111735D01*
X65188445Y-125115517D01*
X65144602Y-125128255D01*
X65126332Y-125139060D01*
X65108863Y-125147618D01*
X65089128Y-125155432D01*
X65089126Y-125155433D01*
X65052201Y-125182260D01*
X65042442Y-125188671D01*
X65003132Y-125211920D01*
X64988126Y-125226926D01*
X64973336Y-125239558D01*
X64956167Y-125252032D01*
X64956165Y-125252034D01*
X64927056Y-125287219D01*
X64919196Y-125295856D01*
X61659274Y-128555780D01*
X61597951Y-128589265D01*
X61571593Y-128592099D01*
X60256440Y-128592099D01*
X60189401Y-128572414D01*
X60143646Y-128519610D01*
X60140258Y-128511432D01*
X60098797Y-128400270D01*
X60098793Y-128400263D01*
X60012547Y-128285054D01*
X60012544Y-128285051D01*
X59897335Y-128198805D01*
X59897328Y-128198801D01*
X59762482Y-128148507D01*
X59762483Y-128148507D01*
X59702883Y-128142100D01*
X59702881Y-128142099D01*
X59702873Y-128142099D01*
X59702865Y-128142099D01*
X59652308Y-128142099D01*
X59585269Y-128122414D01*
X59564627Y-128105780D01*
X59055001Y-127596152D01*
X59055000Y-127596152D01*
X58545370Y-128105780D01*
X58484047Y-128139265D01*
X58457691Y-128142099D01*
X58407130Y-128142099D01*
X58407123Y-128142100D01*
X58347516Y-128148507D01*
X58212671Y-128198801D01*
X58212664Y-128198805D01*
X58097455Y-128285051D01*
X58097452Y-128285054D01*
X58011206Y-128400263D01*
X58011202Y-128400270D01*
X57960908Y-128535116D01*
X57954501Y-128594715D01*
X57954500Y-128594734D01*
X57954500Y-129890469D01*
X56497335Y-129890469D01*
X56488281Y-129746553D01*
X56488280Y-129746546D01*
X56488280Y-129746543D01*
X56431681Y-129449840D01*
X56338341Y-129162570D01*
X56209733Y-128889264D01*
X56142005Y-128782542D01*
X56047888Y-128634236D01*
X56047885Y-128634232D01*
X55855349Y-128401496D01*
X55854043Y-128400270D01*
X55639506Y-128198805D01*
X55635162Y-128194726D01*
X55635159Y-128194724D01*
X55635153Y-128194719D01*
X55390806Y-128017191D01*
X55390799Y-128017186D01*
X55390795Y-128017184D01*
X55126104Y-127871668D01*
X55126101Y-127871666D01*
X55126096Y-127871664D01*
X55126095Y-127871663D01*
X54845265Y-127760475D01*
X54845262Y-127760474D01*
X54552695Y-127685357D01*
X54253036Y-127647500D01*
X54253027Y-127647500D01*
X53950973Y-127647500D01*
X53950963Y-127647500D01*
X53651304Y-127685357D01*
X53358737Y-127760474D01*
X53358734Y-127760475D01*
X53077904Y-127871663D01*
X53077903Y-127871664D01*
X52813205Y-128017184D01*
X52813193Y-128017191D01*
X52568846Y-128194719D01*
X52568836Y-128194727D01*
X52348652Y-128401494D01*
X52156111Y-128634236D01*
X51994268Y-128889261D01*
X51994265Y-128889267D01*
X51865661Y-129162563D01*
X51865659Y-129162568D01*
X51772320Y-129449835D01*
X51715719Y-129746546D01*
X51715718Y-129746553D01*
X51696754Y-130047994D01*
X51696754Y-130048005D01*
X51200500Y-130048005D01*
X51200500Y-127242599D01*
X57950287Y-127242599D01*
X57969096Y-127445588D01*
X57969097Y-127445591D01*
X58024883Y-127641662D01*
X58024886Y-127641668D01*
X58115751Y-127824150D01*
X58117533Y-127826510D01*
X58701446Y-127242599D01*
X58673286Y-127214439D01*
X58751105Y-127214439D01*
X58761454Y-127326120D01*
X58811448Y-127426521D01*
X58894334Y-127502083D01*
X58998920Y-127542599D01*
X59082802Y-127542599D01*
X59165250Y-127527187D01*
X59260610Y-127468142D01*
X59328201Y-127378637D01*
X59358895Y-127270759D01*
X59356286Y-127242599D01*
X59408553Y-127242599D01*
X59992465Y-127826511D01*
X59994247Y-127824152D01*
X59994248Y-127824150D01*
X60085113Y-127641668D01*
X60085116Y-127641662D01*
X60140902Y-127445591D01*
X60140903Y-127445588D01*
X60159713Y-127242599D01*
X60159713Y-127242598D01*
X60140903Y-127039609D01*
X60140902Y-127039606D01*
X60085116Y-126843535D01*
X60085113Y-126843529D01*
X59994249Y-126661048D01*
X59994247Y-126661046D01*
X59992465Y-126658686D01*
X59408553Y-127242599D01*
X59356286Y-127242599D01*
X59348546Y-127159078D01*
X59298552Y-127058677D01*
X59215666Y-126983115D01*
X59111080Y-126942599D01*
X59027198Y-126942599D01*
X58944750Y-126958011D01*
X58849390Y-127017056D01*
X58781799Y-127106561D01*
X58751105Y-127214439D01*
X58673286Y-127214439D01*
X58117533Y-126658686D01*
X58115755Y-126661041D01*
X58115754Y-126661042D01*
X58024886Y-126843529D01*
X58024883Y-126843535D01*
X57969097Y-127039606D01*
X57969096Y-127039609D01*
X57950287Y-127242598D01*
X57950287Y-127242599D01*
X51200500Y-127242599D01*
X51200500Y-126308357D01*
X58474311Y-126308357D01*
X59055000Y-126889045D01*
X59055001Y-126889045D01*
X59635687Y-126308357D01*
X59547413Y-126253700D01*
X59547411Y-126253699D01*
X59357321Y-126180059D01*
X59156928Y-126142599D01*
X58953072Y-126142599D01*
X58752678Y-126180059D01*
X58562588Y-126253699D01*
X58562581Y-126253703D01*
X58474312Y-126308356D01*
X58474311Y-126308357D01*
X51200500Y-126308357D01*
X51200500Y-122170000D01*
X51735840Y-122170000D01*
X51776652Y-122304541D01*
X51869503Y-122478253D01*
X51869507Y-122478260D01*
X51994471Y-122630528D01*
X52146739Y-122755491D01*
X52320465Y-122848349D01*
X52455000Y-122889159D01*
X52455000Y-122170000D01*
X51735840Y-122170000D01*
X51200500Y-122170000D01*
X51200500Y-121197870D01*
X51704500Y-121197870D01*
X51704501Y-121197876D01*
X51710908Y-121257483D01*
X51761202Y-121392328D01*
X51761206Y-121392335D01*
X51767561Y-121400824D01*
X51791979Y-121466288D01*
X51778495Y-121529636D01*
X51778981Y-121529838D01*
X51777894Y-121532461D01*
X51777655Y-121533586D01*
X51776650Y-121535464D01*
X51735839Y-121669999D01*
X51735840Y-121670000D01*
X52490517Y-121670000D01*
X52419199Y-121754993D01*
X52380000Y-121862694D01*
X52380000Y-121977306D01*
X52419199Y-122085007D01*
X52492871Y-122172805D01*
X52592129Y-122230112D01*
X52676564Y-122245000D01*
X52733436Y-122245000D01*
X52817871Y-122230112D01*
X52917129Y-122172805D01*
X52919483Y-122170000D01*
X52955000Y-122170000D01*
X52955000Y-122889159D01*
X53089534Y-122848349D01*
X53263260Y-122755491D01*
X53415528Y-122630528D01*
X53540492Y-122478260D01*
X53540496Y-122478253D01*
X53633347Y-122304541D01*
X53674160Y-122170000D01*
X52955000Y-122170000D01*
X52919483Y-122170000D01*
X52990801Y-122085007D01*
X53030000Y-121977306D01*
X53030000Y-121862694D01*
X53016281Y-121825000D01*
X57949785Y-121825000D01*
X57968602Y-122028082D01*
X58024417Y-122224247D01*
X58024422Y-122224260D01*
X58115327Y-122406821D01*
X58238236Y-122569579D01*
X58245448Y-122576154D01*
X58281729Y-122635864D01*
X58279969Y-122705712D01*
X58240726Y-122763520D01*
X58219729Y-122775626D01*
X58220454Y-122776953D01*
X58212664Y-122781206D01*
X58097455Y-122867452D01*
X58097452Y-122867455D01*
X58011206Y-122982664D01*
X58011202Y-122982671D01*
X57960908Y-123117517D01*
X57954501Y-123177116D01*
X57954501Y-123177123D01*
X57954500Y-123177135D01*
X57954500Y-124472870D01*
X57954501Y-124472876D01*
X57960908Y-124532483D01*
X58011202Y-124667328D01*
X58011206Y-124667335D01*
X58097452Y-124782544D01*
X58097455Y-124782547D01*
X58212664Y-124868793D01*
X58212671Y-124868797D01*
X58347517Y-124919091D01*
X58347516Y-124919091D01*
X58354444Y-124919835D01*
X58407127Y-124925500D01*
X59702872Y-124925499D01*
X59762483Y-124919091D01*
X59897331Y-124868796D01*
X60012546Y-124782546D01*
X60098796Y-124667331D01*
X60149091Y-124532483D01*
X60155500Y-124472873D01*
X60155499Y-123177128D01*
X60149091Y-123117517D01*
X60112905Y-123020498D01*
X60098797Y-122982671D01*
X60098793Y-122982664D01*
X60012547Y-122867455D01*
X60012544Y-122867452D01*
X59897335Y-122781206D01*
X59889546Y-122776953D01*
X59891238Y-122773852D01*
X59848828Y-122742110D01*
X59824406Y-122676648D01*
X59839252Y-122608374D01*
X59864552Y-122576153D01*
X59871764Y-122569579D01*
X59994673Y-122406821D01*
X60085582Y-122224250D01*
X60141397Y-122028083D01*
X60160215Y-121825000D01*
X60141397Y-121621917D01*
X60085582Y-121425750D01*
X60073170Y-121400824D01*
X60009088Y-121272129D01*
X59994673Y-121243179D01*
X59926016Y-121152262D01*
X59871762Y-121080418D01*
X59721041Y-120943019D01*
X59721039Y-120943017D01*
X59547642Y-120835655D01*
X59547635Y-120835651D01*
X59452546Y-120798814D01*
X59357456Y-120761976D01*
X59156976Y-120724500D01*
X58953024Y-120724500D01*
X58752544Y-120761976D01*
X58752541Y-120761976D01*
X58752541Y-120761977D01*
X58562364Y-120835651D01*
X58562357Y-120835655D01*
X58388960Y-120943017D01*
X58388958Y-120943019D01*
X58238237Y-121080418D01*
X58115327Y-121243178D01*
X58024422Y-121425739D01*
X58024417Y-121425752D01*
X57968602Y-121621917D01*
X57949785Y-121824999D01*
X57949785Y-121825000D01*
X53016281Y-121825000D01*
X52990801Y-121754993D01*
X52919483Y-121670000D01*
X53674160Y-121670000D01*
X53674160Y-121669999D01*
X53633348Y-121535462D01*
X53632345Y-121533585D01*
X53632115Y-121532483D01*
X53631018Y-121529833D01*
X53631520Y-121529624D01*
X53618105Y-121465182D01*
X53642440Y-121400821D01*
X53648796Y-121392331D01*
X53699091Y-121257483D01*
X53705500Y-121197873D01*
X53705499Y-120640001D01*
X66014532Y-120640001D01*
X66034364Y-120866686D01*
X66034366Y-120866697D01*
X66093258Y-121086488D01*
X66093261Y-121086497D01*
X66189431Y-121292732D01*
X66189432Y-121292734D01*
X66319954Y-121479141D01*
X66480858Y-121640045D01*
X66519633Y-121667195D01*
X66667266Y-121770568D01*
X66873504Y-121866739D01*
X67093308Y-121925635D01*
X67255230Y-121939801D01*
X67319998Y-121945468D01*
X67320000Y-121945468D01*
X67320002Y-121945468D01*
X67376673Y-121940509D01*
X67546692Y-121925635D01*
X67766496Y-121866739D01*
X67972734Y-121770568D01*
X68159139Y-121640047D01*
X68320047Y-121479139D01*
X68450568Y-121292734D01*
X68477618Y-121234724D01*
X68523790Y-121182285D01*
X68590983Y-121163133D01*
X68657865Y-121183348D01*
X68702382Y-121234725D01*
X68729429Y-121292728D01*
X68729432Y-121292734D01*
X68859954Y-121479141D01*
X69020858Y-121640045D01*
X69059633Y-121667195D01*
X69207266Y-121770568D01*
X69413504Y-121866739D01*
X69633308Y-121925635D01*
X69795230Y-121939801D01*
X69859998Y-121945468D01*
X69860000Y-121945468D01*
X69860002Y-121945468D01*
X69916673Y-121940509D01*
X70086692Y-121925635D01*
X70306496Y-121866739D01*
X70512734Y-121770568D01*
X70699139Y-121640047D01*
X70860047Y-121479139D01*
X70990568Y-121292734D01*
X71017618Y-121234724D01*
X71063790Y-121182285D01*
X71130983Y-121163133D01*
X71197865Y-121183348D01*
X71242382Y-121234725D01*
X71269429Y-121292728D01*
X71269432Y-121292734D01*
X71399954Y-121479141D01*
X71560858Y-121640045D01*
X71599633Y-121667195D01*
X71747266Y-121770568D01*
X71953504Y-121866739D01*
X72173308Y-121925635D01*
X72335230Y-121939801D01*
X72399998Y-121945468D01*
X72400000Y-121945468D01*
X72400002Y-121945468D01*
X72456673Y-121940509D01*
X72626692Y-121925635D01*
X72846496Y-121866739D01*
X73052734Y-121770568D01*
X73239139Y-121640047D01*
X73400047Y-121479139D01*
X73530568Y-121292734D01*
X73557618Y-121234724D01*
X73603790Y-121182285D01*
X73670983Y-121163133D01*
X73737865Y-121183348D01*
X73782382Y-121234725D01*
X73809429Y-121292728D01*
X73809432Y-121292734D01*
X73939954Y-121479141D01*
X74100858Y-121640045D01*
X74139633Y-121667195D01*
X74287266Y-121770568D01*
X74493504Y-121866739D01*
X74713308Y-121925635D01*
X74875230Y-121939801D01*
X74939998Y-121945468D01*
X74940000Y-121945468D01*
X74940002Y-121945468D01*
X74996673Y-121940509D01*
X75166692Y-121925635D01*
X75386496Y-121866739D01*
X75592734Y-121770568D01*
X75779139Y-121640047D01*
X75940047Y-121479139D01*
X76070568Y-121292734D01*
X76166739Y-121086496D01*
X76225635Y-120866692D01*
X76244593Y-120650000D01*
X76245468Y-120640001D01*
X76245468Y-120639998D01*
X76239801Y-120575230D01*
X76225635Y-120413308D01*
X76166739Y-120193504D01*
X76070568Y-119987266D01*
X75957855Y-119826294D01*
X75940045Y-119800858D01*
X75779141Y-119639954D01*
X75592734Y-119509432D01*
X75592732Y-119509431D01*
X75386497Y-119413261D01*
X75386488Y-119413258D01*
X75166697Y-119354366D01*
X75166693Y-119354365D01*
X75166692Y-119354365D01*
X75166691Y-119354364D01*
X75166686Y-119354364D01*
X74940002Y-119334532D01*
X74939998Y-119334532D01*
X74713313Y-119354364D01*
X74713302Y-119354366D01*
X74493511Y-119413258D01*
X74493502Y-119413261D01*
X74287267Y-119509431D01*
X74287265Y-119509432D01*
X74100858Y-119639954D01*
X73939954Y-119800858D01*
X73809432Y-119987265D01*
X73809431Y-119987267D01*
X73807891Y-119990570D01*
X73783669Y-120042516D01*
X73782382Y-120045275D01*
X73736209Y-120097714D01*
X73669016Y-120116866D01*
X73602135Y-120096650D01*
X73557618Y-120045275D01*
X73556332Y-120042517D01*
X73530568Y-119987266D01*
X73417855Y-119826294D01*
X73400045Y-119800858D01*
X73239141Y-119639954D01*
X73052734Y-119509432D01*
X73052732Y-119509431D01*
X72846497Y-119413261D01*
X72846488Y-119413258D01*
X72626697Y-119354366D01*
X72626693Y-119354365D01*
X72626692Y-119354365D01*
X72626691Y-119354364D01*
X72626686Y-119354364D01*
X72400002Y-119334532D01*
X72399998Y-119334532D01*
X72173313Y-119354364D01*
X72173302Y-119354366D01*
X71953511Y-119413258D01*
X71953502Y-119413261D01*
X71747267Y-119509431D01*
X71747265Y-119509432D01*
X71560858Y-119639954D01*
X71399954Y-119800858D01*
X71269432Y-119987265D01*
X71269431Y-119987267D01*
X71267891Y-119990570D01*
X71243669Y-120042516D01*
X71242382Y-120045275D01*
X71196209Y-120097714D01*
X71129016Y-120116866D01*
X71062135Y-120096650D01*
X71017618Y-120045275D01*
X71016332Y-120042517D01*
X70990568Y-119987266D01*
X70877855Y-119826294D01*
X70860045Y-119800858D01*
X70699141Y-119639954D01*
X70512734Y-119509432D01*
X70512732Y-119509431D01*
X70306497Y-119413261D01*
X70306488Y-119413258D01*
X70086697Y-119354366D01*
X70086693Y-119354365D01*
X70086692Y-119354365D01*
X70086691Y-119354364D01*
X70086686Y-119354364D01*
X69860002Y-119334532D01*
X69859998Y-119334532D01*
X69633313Y-119354364D01*
X69633302Y-119354366D01*
X69413511Y-119413258D01*
X69413502Y-119413261D01*
X69207267Y-119509431D01*
X69207265Y-119509432D01*
X69020858Y-119639954D01*
X68859954Y-119800858D01*
X68729432Y-119987265D01*
X68729431Y-119987267D01*
X68727891Y-119990570D01*
X68703669Y-120042516D01*
X68702382Y-120045275D01*
X68656209Y-120097714D01*
X68589016Y-120116866D01*
X68522135Y-120096650D01*
X68477618Y-120045275D01*
X68476332Y-120042517D01*
X68450568Y-119987266D01*
X68337855Y-119826294D01*
X68320045Y-119800858D01*
X68159141Y-119639954D01*
X67972734Y-119509432D01*
X67972732Y-119509431D01*
X67766497Y-119413261D01*
X67766488Y-119413258D01*
X67546697Y-119354366D01*
X67546693Y-119354365D01*
X67546692Y-119354365D01*
X67546691Y-119354364D01*
X67546686Y-119354364D01*
X67320002Y-119334532D01*
X67319998Y-119334532D01*
X67093313Y-119354364D01*
X67093302Y-119354366D01*
X66873511Y-119413258D01*
X66873502Y-119413261D01*
X66667267Y-119509431D01*
X66667265Y-119509432D01*
X66480858Y-119639954D01*
X66319954Y-119800858D01*
X66189432Y-119987265D01*
X66189431Y-119987267D01*
X66093261Y-120193502D01*
X66093258Y-120193511D01*
X66034366Y-120413302D01*
X66034364Y-120413313D01*
X66014532Y-120639998D01*
X66014532Y-120640001D01*
X53705499Y-120640001D01*
X53705499Y-120102128D01*
X53700009Y-120051054D01*
X53699091Y-120042516D01*
X53648797Y-119907671D01*
X53648793Y-119907664D01*
X53562547Y-119792455D01*
X53562544Y-119792452D01*
X53447335Y-119706206D01*
X53447328Y-119706202D01*
X53312482Y-119655908D01*
X53312483Y-119655908D01*
X53252883Y-119649501D01*
X53252881Y-119649500D01*
X53252873Y-119649500D01*
X53252864Y-119649500D01*
X52157129Y-119649500D01*
X52157123Y-119649501D01*
X52097516Y-119655908D01*
X51962671Y-119706202D01*
X51962664Y-119706206D01*
X51847455Y-119792452D01*
X51847452Y-119792455D01*
X51761206Y-119907664D01*
X51761202Y-119907671D01*
X51710908Y-120042517D01*
X51705426Y-120093514D01*
X51704501Y-120102123D01*
X51704500Y-120102135D01*
X51704500Y-121197870D01*
X51200500Y-121197870D01*
X51200500Y-118110003D01*
X76664435Y-118110003D01*
X76684630Y-118289249D01*
X76684631Y-118289254D01*
X76744211Y-118459524D01*
X76800493Y-118549094D01*
X76819500Y-118615067D01*
X76819500Y-119802494D01*
X76817732Y-119818505D01*
X76817974Y-119818528D01*
X76817240Y-119826294D01*
X76819439Y-119896262D01*
X76819500Y-119900157D01*
X76819500Y-119928920D01*
X76819501Y-119928938D01*
X76820053Y-119933311D01*
X76820968Y-119944941D01*
X76822402Y-119990567D01*
X76822403Y-119990570D01*
X76828323Y-120010948D01*
X76832268Y-120029996D01*
X76834928Y-120051054D01*
X76834931Y-120051065D01*
X76851737Y-120093514D01*
X76855520Y-120104563D01*
X76868254Y-120148395D01*
X76868255Y-120148397D01*
X76879060Y-120166666D01*
X76887617Y-120184134D01*
X76893226Y-120198300D01*
X76895432Y-120203872D01*
X76922266Y-120240806D01*
X76928679Y-120250569D01*
X76951916Y-120289861D01*
X76951922Y-120289868D01*
X76966922Y-120304868D01*
X76979561Y-120319665D01*
X76992037Y-120336837D01*
X76992039Y-120336839D01*
X77027213Y-120365937D01*
X77035854Y-120373800D01*
X77410277Y-120748223D01*
X77443762Y-120809546D01*
X77445815Y-120822012D01*
X77446630Y-120829246D01*
X77446632Y-120829255D01*
X77506210Y-120999521D01*
X77555311Y-121077664D01*
X77602184Y-121152262D01*
X77729738Y-121279816D01*
X77882478Y-121375789D01*
X77954024Y-121400824D01*
X78052745Y-121435368D01*
X78052750Y-121435369D01*
X78231996Y-121455565D01*
X78232000Y-121455565D01*
X78232004Y-121455565D01*
X78411249Y-121435369D01*
X78411252Y-121435368D01*
X78411255Y-121435368D01*
X78581522Y-121375789D01*
X78734262Y-121279816D01*
X78861816Y-121152262D01*
X78957789Y-120999522D01*
X79017368Y-120829255D01*
X79023041Y-120778904D01*
X79037565Y-120650003D01*
X79037565Y-120649996D01*
X79017369Y-120470750D01*
X79017368Y-120470745D01*
X78970512Y-120336839D01*
X78957789Y-120300478D01*
X78951122Y-120289868D01*
X78884692Y-120184145D01*
X78861816Y-120147738D01*
X78734262Y-120020184D01*
X78681875Y-119987267D01*
X78581521Y-119924210D01*
X78411255Y-119864632D01*
X78411246Y-119864630D01*
X78404012Y-119863815D01*
X78339600Y-119836744D01*
X78330223Y-119828277D01*
X78156819Y-119654873D01*
X78123334Y-119593550D01*
X78120500Y-119567192D01*
X78120500Y-118615067D01*
X78139507Y-118549094D01*
X78195788Y-118459524D01*
X78195789Y-118459522D01*
X78255368Y-118289255D01*
X78257709Y-118268478D01*
X78275565Y-118110003D01*
X78275565Y-118109996D01*
X78255369Y-117930750D01*
X78255368Y-117930745D01*
X78221036Y-117832630D01*
X78195789Y-117760478D01*
X78099816Y-117607738D01*
X77972262Y-117480184D01*
X77943526Y-117462128D01*
X77819523Y-117384211D01*
X77649254Y-117324631D01*
X77649249Y-117324630D01*
X77470004Y-117304435D01*
X77469996Y-117304435D01*
X77290750Y-117324630D01*
X77290745Y-117324631D01*
X77120476Y-117384211D01*
X76967737Y-117480184D01*
X76840184Y-117607737D01*
X76744211Y-117760476D01*
X76684631Y-117930745D01*
X76684630Y-117930750D01*
X76664435Y-118109996D01*
X76664435Y-118110003D01*
X51200500Y-118110003D01*
X51200500Y-116110000D01*
X85254785Y-116110000D01*
X85273602Y-116313082D01*
X85329417Y-116509247D01*
X85329422Y-116509260D01*
X85420327Y-116691821D01*
X85543236Y-116854579D01*
X85550448Y-116861154D01*
X85586729Y-116920864D01*
X85584969Y-116990712D01*
X85545726Y-117048520D01*
X85524729Y-117060626D01*
X85525454Y-117061953D01*
X85517664Y-117066206D01*
X85402455Y-117152452D01*
X85402452Y-117152455D01*
X85316206Y-117267664D01*
X85316202Y-117267671D01*
X85265908Y-117402517D01*
X85259501Y-117462116D01*
X85259501Y-117462123D01*
X85259500Y-117462135D01*
X85259500Y-118757870D01*
X85259501Y-118757876D01*
X85265908Y-118817483D01*
X85316202Y-118952328D01*
X85316206Y-118952335D01*
X85402452Y-119067544D01*
X85402455Y-119067547D01*
X85517664Y-119153793D01*
X85517671Y-119153797D01*
X85652517Y-119204091D01*
X85652516Y-119204091D01*
X85659444Y-119204835D01*
X85712127Y-119210500D01*
X87007872Y-119210499D01*
X87067483Y-119204091D01*
X87202331Y-119153796D01*
X87317546Y-119067546D01*
X87403796Y-118952331D01*
X87454091Y-118817483D01*
X87460500Y-118757873D01*
X87460499Y-117462128D01*
X87454091Y-117402517D01*
X87447263Y-117384211D01*
X87403797Y-117267671D01*
X87403793Y-117267664D01*
X87317547Y-117152455D01*
X87317544Y-117152452D01*
X87202335Y-117066206D01*
X87194546Y-117061953D01*
X87196238Y-117058852D01*
X87153828Y-117027110D01*
X87129406Y-116961648D01*
X87144252Y-116893374D01*
X87169552Y-116861153D01*
X87176764Y-116854579D01*
X87299673Y-116691821D01*
X87390582Y-116509250D01*
X87446397Y-116313083D01*
X87465215Y-116110000D01*
X87446397Y-115906917D01*
X87390582Y-115710750D01*
X87299673Y-115528179D01*
X87176764Y-115365421D01*
X87176762Y-115365418D01*
X87026041Y-115228019D01*
X87026039Y-115228017D01*
X86852642Y-115120655D01*
X86852635Y-115120651D01*
X86757546Y-115083814D01*
X86662456Y-115046976D01*
X86461976Y-115009500D01*
X86258024Y-115009500D01*
X86057544Y-115046976D01*
X86057541Y-115046976D01*
X86057541Y-115046977D01*
X85867364Y-115120651D01*
X85867357Y-115120655D01*
X85693960Y-115228017D01*
X85693958Y-115228019D01*
X85543237Y-115365418D01*
X85420327Y-115528178D01*
X85329422Y-115710739D01*
X85329417Y-115710752D01*
X85273602Y-115906917D01*
X85254785Y-116109999D01*
X85254785Y-116110000D01*
X51200500Y-116110000D01*
X51200500Y-115582870D01*
X65289500Y-115582870D01*
X65289501Y-115582876D01*
X65295908Y-115642483D01*
X65346202Y-115777328D01*
X65346206Y-115777335D01*
X65432452Y-115892544D01*
X65432455Y-115892547D01*
X65547664Y-115978793D01*
X65547671Y-115978797D01*
X65682517Y-116029091D01*
X65682516Y-116029091D01*
X65689444Y-116029835D01*
X65742127Y-116035500D01*
X67037872Y-116035499D01*
X67097483Y-116029091D01*
X67232331Y-115978796D01*
X67347546Y-115892546D01*
X67364993Y-115869240D01*
X67809311Y-115869240D01*
X67897585Y-115923897D01*
X68087678Y-115997539D01*
X68288072Y-116035000D01*
X68491928Y-116035000D01*
X68692322Y-115997539D01*
X68882412Y-115923899D01*
X68882416Y-115923897D01*
X68970686Y-115869241D01*
X68970686Y-115869240D01*
X68684317Y-115582870D01*
X71289500Y-115582870D01*
X71289501Y-115582876D01*
X71295908Y-115642483D01*
X71346202Y-115777328D01*
X71346206Y-115777335D01*
X71432452Y-115892544D01*
X71432455Y-115892547D01*
X71547664Y-115978793D01*
X71547671Y-115978797D01*
X71682517Y-116029091D01*
X71682516Y-116029091D01*
X71689444Y-116029835D01*
X71742127Y-116035500D01*
X73037872Y-116035499D01*
X73097483Y-116029091D01*
X73232331Y-115978796D01*
X73347546Y-115892546D01*
X73364993Y-115869240D01*
X73809311Y-115869240D01*
X73897585Y-115923897D01*
X74087678Y-115997539D01*
X74288072Y-116035000D01*
X74491928Y-116035000D01*
X74692322Y-115997539D01*
X74882412Y-115923899D01*
X74882416Y-115923897D01*
X74970686Y-115869241D01*
X74970686Y-115869240D01*
X74390001Y-115288553D01*
X74390000Y-115288553D01*
X73809311Y-115869240D01*
X73364993Y-115869240D01*
X73433796Y-115777331D01*
X73484091Y-115642483D01*
X73490500Y-115582873D01*
X73490499Y-115532305D01*
X73510182Y-115465269D01*
X73526818Y-115444626D01*
X74036446Y-114935000D01*
X74036446Y-114934999D01*
X74008287Y-114906840D01*
X74086105Y-114906840D01*
X74096454Y-115018521D01*
X74146448Y-115118922D01*
X74229334Y-115194484D01*
X74333920Y-115235000D01*
X74417802Y-115235000D01*
X74500250Y-115219588D01*
X74595610Y-115160543D01*
X74663201Y-115071038D01*
X74693895Y-114963160D01*
X74691286Y-114935000D01*
X74743552Y-114935000D01*
X75327465Y-115518912D01*
X75329247Y-115516553D01*
X75329248Y-115516551D01*
X75420113Y-115334069D01*
X75420116Y-115334063D01*
X75475902Y-115137992D01*
X75475903Y-115137989D01*
X75494713Y-114935000D01*
X75494713Y-114934999D01*
X75475903Y-114732010D01*
X75475902Y-114732007D01*
X75420116Y-114535936D01*
X75420113Y-114535930D01*
X75329249Y-114353449D01*
X75329247Y-114353447D01*
X75327465Y-114351087D01*
X74743552Y-114935000D01*
X74691286Y-114935000D01*
X74683546Y-114851479D01*
X74633552Y-114751078D01*
X74550666Y-114675516D01*
X74446080Y-114635000D01*
X74362198Y-114635000D01*
X74279750Y-114650412D01*
X74184390Y-114709457D01*
X74116799Y-114798962D01*
X74086105Y-114906840D01*
X74008287Y-114906840D01*
X73526818Y-114425371D01*
X73493333Y-114364048D01*
X73490499Y-114337690D01*
X73490499Y-114287129D01*
X73490498Y-114287123D01*
X73490497Y-114287116D01*
X73484091Y-114227517D01*
X73474262Y-114201165D01*
X73433797Y-114092671D01*
X73433793Y-114092664D01*
X73364992Y-114000758D01*
X73809311Y-114000758D01*
X74390000Y-114581446D01*
X74390001Y-114581446D01*
X74970687Y-114000758D01*
X74882413Y-113946101D01*
X74882411Y-113946100D01*
X74692321Y-113872460D01*
X74491928Y-113835000D01*
X74288072Y-113835000D01*
X74087678Y-113872460D01*
X73897588Y-113946100D01*
X73897581Y-113946104D01*
X73809312Y-114000757D01*
X73809311Y-114000758D01*
X73364992Y-114000758D01*
X73347547Y-113977455D01*
X73347544Y-113977452D01*
X73232335Y-113891206D01*
X73232328Y-113891202D01*
X73097482Y-113840908D01*
X73097483Y-113840908D01*
X73037883Y-113834501D01*
X73037881Y-113834500D01*
X73037873Y-113834500D01*
X73037864Y-113834500D01*
X71742129Y-113834500D01*
X71742123Y-113834501D01*
X71682516Y-113840908D01*
X71547671Y-113891202D01*
X71547664Y-113891206D01*
X71432455Y-113977452D01*
X71432452Y-113977455D01*
X71346206Y-114092664D01*
X71346202Y-114092671D01*
X71295908Y-114227517D01*
X71289501Y-114287116D01*
X71289501Y-114287123D01*
X71289500Y-114287135D01*
X71289500Y-115582870D01*
X68684317Y-115582870D01*
X68390001Y-115288553D01*
X68390000Y-115288553D01*
X67809311Y-115869240D01*
X67364993Y-115869240D01*
X67433796Y-115777331D01*
X67484091Y-115642483D01*
X67490500Y-115582873D01*
X67490499Y-115532305D01*
X67510182Y-115465269D01*
X67526818Y-115444626D01*
X68036446Y-114935000D01*
X68036446Y-114934999D01*
X68008287Y-114906840D01*
X68086105Y-114906840D01*
X68096454Y-115018521D01*
X68146448Y-115118922D01*
X68229334Y-115194484D01*
X68333920Y-115235000D01*
X68417802Y-115235000D01*
X68500250Y-115219588D01*
X68595610Y-115160543D01*
X68663201Y-115071038D01*
X68693895Y-114963160D01*
X68691286Y-114935000D01*
X68743553Y-114935000D01*
X69327465Y-115518912D01*
X69329247Y-115516553D01*
X69329248Y-115516551D01*
X69420113Y-115334069D01*
X69420116Y-115334063D01*
X69475902Y-115137992D01*
X69475903Y-115137989D01*
X69494713Y-114935000D01*
X69494713Y-114934999D01*
X69475903Y-114732010D01*
X69475902Y-114732007D01*
X69420116Y-114535936D01*
X69420113Y-114535930D01*
X69329249Y-114353449D01*
X69329247Y-114353447D01*
X69327465Y-114351087D01*
X68743553Y-114935000D01*
X68691286Y-114935000D01*
X68683546Y-114851479D01*
X68633552Y-114751078D01*
X68550666Y-114675516D01*
X68446080Y-114635000D01*
X68362198Y-114635000D01*
X68279750Y-114650412D01*
X68184390Y-114709457D01*
X68116799Y-114798962D01*
X68086105Y-114906840D01*
X68008287Y-114906840D01*
X67526818Y-114425371D01*
X67493333Y-114364048D01*
X67490499Y-114337690D01*
X67490499Y-114287129D01*
X67490498Y-114287123D01*
X67490497Y-114287116D01*
X67484091Y-114227517D01*
X67474262Y-114201165D01*
X67433797Y-114092671D01*
X67433793Y-114092664D01*
X67364992Y-114000758D01*
X67809311Y-114000758D01*
X68390000Y-114581446D01*
X68390001Y-114581446D01*
X68970687Y-114000758D01*
X68882413Y-113946101D01*
X68882411Y-113946100D01*
X68692321Y-113872460D01*
X68491928Y-113835000D01*
X68288072Y-113835000D01*
X68087678Y-113872460D01*
X67897588Y-113946100D01*
X67897581Y-113946104D01*
X67809312Y-114000757D01*
X67809311Y-114000758D01*
X67364992Y-114000758D01*
X67347547Y-113977455D01*
X67347544Y-113977452D01*
X67232335Y-113891206D01*
X67232328Y-113891202D01*
X67097482Y-113840908D01*
X67097483Y-113840908D01*
X67037883Y-113834501D01*
X67037881Y-113834500D01*
X67037873Y-113834500D01*
X67037864Y-113834500D01*
X65742129Y-113834500D01*
X65742123Y-113834501D01*
X65682516Y-113840908D01*
X65547671Y-113891202D01*
X65547664Y-113891206D01*
X65432455Y-113977452D01*
X65432452Y-113977455D01*
X65346206Y-114092664D01*
X65346202Y-114092671D01*
X65295908Y-114227517D01*
X65289501Y-114287116D01*
X65289501Y-114287123D01*
X65289500Y-114287135D01*
X65289500Y-115582870D01*
X51200500Y-115582870D01*
X51200500Y-112776005D01*
X52252754Y-112776005D01*
X52271718Y-113077446D01*
X52271719Y-113077453D01*
X52328320Y-113374164D01*
X52421659Y-113661431D01*
X52421661Y-113661436D01*
X52550265Y-113934732D01*
X52550268Y-113934738D01*
X52712111Y-114189763D01*
X52712114Y-114189767D01*
X52712115Y-114189768D01*
X52792657Y-114287127D01*
X52904652Y-114422505D01*
X53124836Y-114629272D01*
X53124846Y-114629280D01*
X53369193Y-114806808D01*
X53369198Y-114806810D01*
X53369205Y-114806816D01*
X53633896Y-114952332D01*
X53633901Y-114952334D01*
X53633903Y-114952335D01*
X53633904Y-114952336D01*
X53914734Y-115063524D01*
X53914737Y-115063525D01*
X53943999Y-115071038D01*
X54207302Y-115138642D01*
X54354039Y-115157179D01*
X54506963Y-115176499D01*
X54506969Y-115176499D01*
X54506973Y-115176500D01*
X54506975Y-115176500D01*
X54809025Y-115176500D01*
X54809027Y-115176500D01*
X54809032Y-115176499D01*
X54809036Y-115176499D01*
X54935337Y-115160543D01*
X55108698Y-115138642D01*
X55401262Y-115063525D01*
X55443058Y-115046977D01*
X55682095Y-114952336D01*
X55682096Y-114952335D01*
X55682094Y-114952335D01*
X55682104Y-114952332D01*
X55946795Y-114806816D01*
X56191162Y-114629274D01*
X56411349Y-114422504D01*
X56603885Y-114189768D01*
X56765733Y-113934736D01*
X56894341Y-113661430D01*
X56987681Y-113374160D01*
X57044280Y-113077457D01*
X57063246Y-112776005D01*
X89066754Y-112776005D01*
X89085718Y-113077446D01*
X89085719Y-113077453D01*
X89142320Y-113374164D01*
X89235659Y-113661431D01*
X89235661Y-113661436D01*
X89364265Y-113934732D01*
X89364268Y-113934738D01*
X89526111Y-114189763D01*
X89526114Y-114189767D01*
X89526115Y-114189768D01*
X89606657Y-114287127D01*
X89718652Y-114422505D01*
X89938836Y-114629272D01*
X89938846Y-114629280D01*
X90183193Y-114806808D01*
X90183198Y-114806810D01*
X90183205Y-114806816D01*
X90447896Y-114952332D01*
X90447901Y-114952334D01*
X90447903Y-114952335D01*
X90447904Y-114952336D01*
X90728734Y-115063524D01*
X90728737Y-115063525D01*
X90757999Y-115071038D01*
X91021302Y-115138642D01*
X91168039Y-115157179D01*
X91320963Y-115176499D01*
X91320969Y-115176499D01*
X91320973Y-115176500D01*
X91320975Y-115176500D01*
X91623025Y-115176500D01*
X91623027Y-115176500D01*
X91623032Y-115176499D01*
X91623036Y-115176499D01*
X91749337Y-115160543D01*
X91922698Y-115138642D01*
X92215262Y-115063525D01*
X92257058Y-115046977D01*
X92496095Y-114952336D01*
X92496096Y-114952335D01*
X92496094Y-114952335D01*
X92496104Y-114952332D01*
X92760795Y-114806816D01*
X93005162Y-114629274D01*
X93225349Y-114422504D01*
X93417885Y-114189768D01*
X93579733Y-113934736D01*
X93708341Y-113661430D01*
X93801681Y-113374160D01*
X93858280Y-113077457D01*
X93877246Y-112776000D01*
X93858280Y-112474543D01*
X93801681Y-112177840D01*
X93708341Y-111890570D01*
X93697407Y-111867335D01*
X93605902Y-111672876D01*
X93579733Y-111617264D01*
X93511370Y-111509541D01*
X93417888Y-111362236D01*
X93417885Y-111362232D01*
X93225349Y-111129496D01*
X93005162Y-110922726D01*
X93005159Y-110922724D01*
X93005153Y-110922719D01*
X92760806Y-110745191D01*
X92760799Y-110745186D01*
X92760795Y-110745184D01*
X92496104Y-110599668D01*
X92496101Y-110599666D01*
X92496096Y-110599664D01*
X92496095Y-110599663D01*
X92215265Y-110488475D01*
X92215262Y-110488474D01*
X91922695Y-110413357D01*
X91623036Y-110375500D01*
X91623027Y-110375500D01*
X91320973Y-110375500D01*
X91320963Y-110375500D01*
X91021304Y-110413357D01*
X90728737Y-110488474D01*
X90728734Y-110488475D01*
X90447904Y-110599663D01*
X90447903Y-110599664D01*
X90183205Y-110745184D01*
X90183193Y-110745191D01*
X89938846Y-110922719D01*
X89938836Y-110922727D01*
X89718652Y-111129494D01*
X89526111Y-111362236D01*
X89364268Y-111617261D01*
X89364265Y-111617267D01*
X89235661Y-111890563D01*
X89235659Y-111890568D01*
X89142320Y-112177835D01*
X89085719Y-112474546D01*
X89085718Y-112474553D01*
X89066754Y-112775994D01*
X89066754Y-112776005D01*
X57063246Y-112776005D01*
X57063246Y-112776000D01*
X57044280Y-112474543D01*
X56987681Y-112177840D01*
X56894341Y-111890570D01*
X56883407Y-111867335D01*
X56791902Y-111672876D01*
X56791899Y-111672870D01*
X76469500Y-111672870D01*
X76469501Y-111672876D01*
X76475908Y-111732483D01*
X76526202Y-111867328D01*
X76526206Y-111867335D01*
X76612452Y-111982544D01*
X76612455Y-111982547D01*
X76727664Y-112068793D01*
X76727671Y-112068797D01*
X76862517Y-112119091D01*
X76862516Y-112119091D01*
X76869444Y-112119835D01*
X76922127Y-112125500D01*
X78017872Y-112125499D01*
X78077483Y-112119091D01*
X78212329Y-112068797D01*
X78212329Y-112068796D01*
X78212331Y-112068796D01*
X78220822Y-112062439D01*
X78286284Y-112038021D01*
X78349628Y-112051502D01*
X78349830Y-112051016D01*
X78352461Y-112052105D01*
X78353585Y-112052345D01*
X78355462Y-112053348D01*
X78490000Y-112094159D01*
X78490000Y-111332672D01*
X78527871Y-111377805D01*
X78627129Y-111435112D01*
X78711564Y-111450000D01*
X78768436Y-111450000D01*
X78852871Y-111435112D01*
X78952129Y-111377805D01*
X78954483Y-111375000D01*
X78990000Y-111375000D01*
X78990000Y-112094159D01*
X79124534Y-112053349D01*
X79298260Y-111960491D01*
X79450528Y-111835528D01*
X79575492Y-111683260D01*
X79575496Y-111683253D01*
X79668347Y-111509541D01*
X79709160Y-111375000D01*
X78990000Y-111375000D01*
X78954483Y-111375000D01*
X79025801Y-111290007D01*
X79065000Y-111182306D01*
X79065000Y-111067694D01*
X79025801Y-110959993D01*
X78952129Y-110872195D01*
X78852871Y-110814888D01*
X78768436Y-110800000D01*
X78711564Y-110800000D01*
X78627129Y-110814888D01*
X78527871Y-110872195D01*
X78490000Y-110917327D01*
X78490000Y-110155839D01*
X78990000Y-110155839D01*
X78990000Y-110875000D01*
X79709160Y-110875000D01*
X79709160Y-110874999D01*
X79668347Y-110740458D01*
X79575496Y-110566746D01*
X79575492Y-110566739D01*
X79450528Y-110414471D01*
X79298260Y-110289507D01*
X79298253Y-110289503D01*
X79124541Y-110196652D01*
X78990000Y-110155839D01*
X78490000Y-110155839D01*
X78489999Y-110155839D01*
X78355464Y-110196650D01*
X78353586Y-110197655D01*
X78352486Y-110197883D01*
X78349838Y-110198981D01*
X78349629Y-110198478D01*
X78285183Y-110211895D01*
X78220824Y-110187561D01*
X78212335Y-110181206D01*
X78212328Y-110181202D01*
X78077482Y-110130908D01*
X78077483Y-110130908D01*
X78017883Y-110124501D01*
X78017881Y-110124500D01*
X78017873Y-110124500D01*
X78017864Y-110124500D01*
X76922129Y-110124500D01*
X76922123Y-110124501D01*
X76862516Y-110130908D01*
X76727671Y-110181202D01*
X76727664Y-110181206D01*
X76612455Y-110267452D01*
X76612452Y-110267455D01*
X76526206Y-110382664D01*
X76526202Y-110382671D01*
X76475908Y-110517517D01*
X76469501Y-110577116D01*
X76469500Y-110577135D01*
X76469500Y-111672870D01*
X56791899Y-111672870D01*
X56765733Y-111617264D01*
X56697370Y-111509541D01*
X56603888Y-111362236D01*
X56603885Y-111362232D01*
X56411349Y-111129496D01*
X56191162Y-110922726D01*
X56191159Y-110922724D01*
X56191153Y-110922719D01*
X55946806Y-110745191D01*
X55946799Y-110745186D01*
X55946795Y-110745184D01*
X55682104Y-110599668D01*
X55682101Y-110599666D01*
X55682096Y-110599664D01*
X55682095Y-110599663D01*
X55401265Y-110488475D01*
X55401262Y-110488474D01*
X55108695Y-110413357D01*
X54809036Y-110375500D01*
X54809027Y-110375500D01*
X54506973Y-110375500D01*
X54506963Y-110375500D01*
X54207304Y-110413357D01*
X53914737Y-110488474D01*
X53914734Y-110488475D01*
X53633904Y-110599663D01*
X53633903Y-110599664D01*
X53369205Y-110745184D01*
X53369193Y-110745191D01*
X53124846Y-110922719D01*
X53124836Y-110922727D01*
X52904652Y-111129494D01*
X52712111Y-111362236D01*
X52550268Y-111617261D01*
X52550265Y-111617267D01*
X52421661Y-111890563D01*
X52421659Y-111890568D01*
X52328320Y-112177835D01*
X52271719Y-112474546D01*
X52271718Y-112474553D01*
X52252754Y-112775994D01*
X52252754Y-112776005D01*
X51200500Y-112776005D01*
X51200500Y-109744500D01*
X51220185Y-109677461D01*
X51272989Y-109631706D01*
X51324500Y-109620500D01*
X94725500Y-109620500D01*
X94792539Y-109640185D01*
G37*
%TD.AperFunction*%
%TD*%
M02*
