%TF.GenerationSoftware,KiCad,Pcbnew,7.0.11-7.0.11~ubuntu22.04.1*%
%TF.CreationDate,2024-09-25T18:26:51+01:00*%
%TF.ProjectId,kicad_project,6b696361-645f-4707-926f-6a6563742e6b,rev?*%
%TF.SameCoordinates,Original*%
%TF.FileFunction,Copper,L1,Top*%
%TF.FilePolarity,Positive*%
%FSLAX46Y46*%
G04 Gerber Fmt 4.6, Leading zero omitted, Abs format (unit mm)*
G04 Created by KiCad (PCBNEW 7.0.11-7.0.11~ubuntu22.04.1) date 2024-09-25 18:26:51*
%MOMM*%
%LPD*%
G01*
G04 APERTURE LIST*
G04 Aperture macros list*
%AMRoundRect*
0 Rectangle with rounded corners*
0 $1 Rounding radius*
0 $2 $3 $4 $5 $6 $7 $8 $9 X,Y pos of 4 corners*
0 Add a 4 corners polygon primitive as box body*
4,1,4,$2,$3,$4,$5,$6,$7,$8,$9,$2,$3,0*
0 Add four circle primitives for the rounded corners*
1,1,$1+$1,$2,$3*
1,1,$1+$1,$4,$5*
1,1,$1+$1,$6,$7*
1,1,$1+$1,$8,$9*
0 Add four rect primitives between the rounded corners*
20,1,$1+$1,$2,$3,$4,$5,0*
20,1,$1+$1,$4,$5,$6,$7,0*
20,1,$1+$1,$6,$7,$8,$9,0*
20,1,$1+$1,$8,$9,$2,$3,0*%
G04 Aperture macros list end*
%ADD10C,0.300000*%
%TA.AperFunction,NonConductor*%
%ADD11C,0.300000*%
%TD*%
%TA.AperFunction,NonConductor*%
%ADD12C,0.200000*%
%TD*%
%TA.AperFunction,ComponentPad*%
%ADD13R,1.600000X1.600000*%
%TD*%
%TA.AperFunction,ComponentPad*%
%ADD14O,1.600000X1.600000*%
%TD*%
%TA.AperFunction,SMDPad,CuDef*%
%ADD15R,2.000000X2.000000*%
%TD*%
%TA.AperFunction,SMDPad,CuDef*%
%ADD16RoundRect,0.135000X-0.135000X-0.185000X0.135000X-0.185000X0.135000X0.185000X-0.135000X0.185000X0*%
%TD*%
%TA.AperFunction,SMDPad,CuDef*%
%ADD17RoundRect,0.135000X0.135000X0.185000X-0.135000X0.185000X-0.135000X-0.185000X0.135000X-0.185000X0*%
%TD*%
%TA.AperFunction,SMDPad,CuDef*%
%ADD18RoundRect,0.135000X-0.185000X0.135000X-0.185000X-0.135000X0.185000X-0.135000X0.185000X0.135000X0*%
%TD*%
%TA.AperFunction,SMDPad,CuDef*%
%ADD19RoundRect,0.135000X0.185000X-0.135000X0.185000X0.135000X-0.185000X0.135000X-0.185000X-0.135000X0*%
%TD*%
%TA.AperFunction,ComponentPad*%
%ADD20R,1.000000X1.000000*%
%TD*%
%TA.AperFunction,ComponentPad*%
%ADD21O,1.000000X1.000000*%
%TD*%
%TA.AperFunction,ComponentPad*%
%ADD22R,1.200000X1.200000*%
%TD*%
%TA.AperFunction,ComponentPad*%
%ADD23C,1.200000*%
%TD*%
%TA.AperFunction,ViaPad*%
%ADD24C,0.600000*%
%TD*%
%TA.AperFunction,Conductor*%
%ADD25C,0.300000*%
%TD*%
%TA.AperFunction,Conductor*%
%ADD26C,0.500000*%
%TD*%
G04 APERTURE END LIST*
D10*
D11*
X66810716Y-137578328D02*
X66810716Y-138578328D01*
X66453573Y-137006900D02*
X66096430Y-138078328D01*
X66096430Y-138078328D02*
X67025001Y-138078328D01*
X68239287Y-137578328D02*
X68239287Y-138578328D01*
X67882144Y-137006900D02*
X67525001Y-138078328D01*
X67525001Y-138078328D02*
X68453572Y-138078328D01*
X69025000Y-138435471D02*
X69096429Y-138506900D01*
X69096429Y-138506900D02*
X69025000Y-138578328D01*
X69025000Y-138578328D02*
X68953572Y-138506900D01*
X68953572Y-138506900D02*
X69025000Y-138435471D01*
X69025000Y-138435471D02*
X69025000Y-138578328D01*
X70382144Y-137578328D02*
X70382144Y-138578328D01*
X70025001Y-137006900D02*
X69667858Y-138078328D01*
X69667858Y-138078328D02*
X70596429Y-138078328D01*
X71882143Y-137078328D02*
X71167857Y-137078328D01*
X71167857Y-137078328D02*
X71096429Y-137792614D01*
X71096429Y-137792614D02*
X71167857Y-137721185D01*
X71167857Y-137721185D02*
X71310715Y-137649757D01*
X71310715Y-137649757D02*
X71667857Y-137649757D01*
X71667857Y-137649757D02*
X71810715Y-137721185D01*
X71810715Y-137721185D02*
X71882143Y-137792614D01*
X71882143Y-137792614D02*
X71953572Y-137935471D01*
X71953572Y-137935471D02*
X71953572Y-138292614D01*
X71953572Y-138292614D02*
X71882143Y-138435471D01*
X71882143Y-138435471D02*
X71810715Y-138506900D01*
X71810715Y-138506900D02*
X71667857Y-138578328D01*
X71667857Y-138578328D02*
X71310715Y-138578328D01*
X71310715Y-138578328D02*
X71167857Y-138506900D01*
X71167857Y-138506900D02*
X71096429Y-138435471D01*
X72882143Y-137078328D02*
X73025000Y-137078328D01*
X73025000Y-137078328D02*
X73167857Y-137149757D01*
X73167857Y-137149757D02*
X73239286Y-137221185D01*
X73239286Y-137221185D02*
X73310714Y-137364042D01*
X73310714Y-137364042D02*
X73382143Y-137649757D01*
X73382143Y-137649757D02*
X73382143Y-138006900D01*
X73382143Y-138006900D02*
X73310714Y-138292614D01*
X73310714Y-138292614D02*
X73239286Y-138435471D01*
X73239286Y-138435471D02*
X73167857Y-138506900D01*
X73167857Y-138506900D02*
X73025000Y-138578328D01*
X73025000Y-138578328D02*
X72882143Y-138578328D01*
X72882143Y-138578328D02*
X72739286Y-138506900D01*
X72739286Y-138506900D02*
X72667857Y-138435471D01*
X72667857Y-138435471D02*
X72596428Y-138292614D01*
X72596428Y-138292614D02*
X72525000Y-138006900D01*
X72525000Y-138006900D02*
X72525000Y-137649757D01*
X72525000Y-137649757D02*
X72596428Y-137364042D01*
X72596428Y-137364042D02*
X72667857Y-137221185D01*
X72667857Y-137221185D02*
X72739286Y-137149757D01*
X72739286Y-137149757D02*
X72882143Y-137078328D01*
X74310714Y-137078328D02*
X74453571Y-137078328D01*
X74453571Y-137078328D02*
X74596428Y-137149757D01*
X74596428Y-137149757D02*
X74667857Y-137221185D01*
X74667857Y-137221185D02*
X74739285Y-137364042D01*
X74739285Y-137364042D02*
X74810714Y-137649757D01*
X74810714Y-137649757D02*
X74810714Y-138006900D01*
X74810714Y-138006900D02*
X74739285Y-138292614D01*
X74739285Y-138292614D02*
X74667857Y-138435471D01*
X74667857Y-138435471D02*
X74596428Y-138506900D01*
X74596428Y-138506900D02*
X74453571Y-138578328D01*
X74453571Y-138578328D02*
X74310714Y-138578328D01*
X74310714Y-138578328D02*
X74167857Y-138506900D01*
X74167857Y-138506900D02*
X74096428Y-138435471D01*
X74096428Y-138435471D02*
X74024999Y-138292614D01*
X74024999Y-138292614D02*
X73953571Y-138006900D01*
X73953571Y-138006900D02*
X73953571Y-137649757D01*
X73953571Y-137649757D02*
X74024999Y-137364042D01*
X74024999Y-137364042D02*
X74096428Y-137221185D01*
X74096428Y-137221185D02*
X74167857Y-137149757D01*
X74167857Y-137149757D02*
X74310714Y-137078328D01*
X76596427Y-138578328D02*
X76596427Y-137578328D01*
X76596427Y-137721185D02*
X76667856Y-137649757D01*
X76667856Y-137649757D02*
X76810713Y-137578328D01*
X76810713Y-137578328D02*
X77024999Y-137578328D01*
X77024999Y-137578328D02*
X77167856Y-137649757D01*
X77167856Y-137649757D02*
X77239285Y-137792614D01*
X77239285Y-137792614D02*
X77239285Y-138578328D01*
X77239285Y-137792614D02*
X77310713Y-137649757D01*
X77310713Y-137649757D02*
X77453570Y-137578328D01*
X77453570Y-137578328D02*
X77667856Y-137578328D01*
X77667856Y-137578328D02*
X77810713Y-137649757D01*
X77810713Y-137649757D02*
X77882142Y-137792614D01*
X77882142Y-137792614D02*
X77882142Y-138578328D01*
X78596427Y-138578328D02*
X78596427Y-137578328D01*
X78596427Y-137721185D02*
X78667856Y-137649757D01*
X78667856Y-137649757D02*
X78810713Y-137578328D01*
X78810713Y-137578328D02*
X79024999Y-137578328D01*
X79024999Y-137578328D02*
X79167856Y-137649757D01*
X79167856Y-137649757D02*
X79239285Y-137792614D01*
X79239285Y-137792614D02*
X79239285Y-138578328D01*
X79239285Y-137792614D02*
X79310713Y-137649757D01*
X79310713Y-137649757D02*
X79453570Y-137578328D01*
X79453570Y-137578328D02*
X79667856Y-137578328D01*
X79667856Y-137578328D02*
X79810713Y-137649757D01*
X79810713Y-137649757D02*
X79882142Y-137792614D01*
X79882142Y-137792614D02*
X79882142Y-138578328D01*
D12*
X50800000Y-133850000D02*
X50800000Y-140286420D01*
X95250000Y-133850000D02*
X95250000Y-140286420D01*
X50800000Y-139700000D02*
X95250000Y-139700000D01*
X50800000Y-139700000D02*
X95250000Y-139700000D01*
X50800000Y-139700000D02*
X51926504Y-139113579D01*
X50800000Y-139700000D02*
X51926504Y-140286421D01*
X95250000Y-139700000D02*
X94123496Y-140286421D01*
X95250000Y-139700000D02*
X94123496Y-139113579D01*
D10*
D11*
X42479185Y-128213569D02*
X42407757Y-128142141D01*
X42407757Y-128142141D02*
X42336328Y-127999284D01*
X42336328Y-127999284D02*
X42336328Y-127642141D01*
X42336328Y-127642141D02*
X42407757Y-127499284D01*
X42407757Y-127499284D02*
X42479185Y-127427855D01*
X42479185Y-127427855D02*
X42622042Y-127356426D01*
X42622042Y-127356426D02*
X42764900Y-127356426D01*
X42764900Y-127356426D02*
X42979185Y-127427855D01*
X42979185Y-127427855D02*
X43836328Y-128284998D01*
X43836328Y-128284998D02*
X43836328Y-127356426D01*
X42836328Y-126070713D02*
X43836328Y-126070713D01*
X42264900Y-126427855D02*
X43336328Y-126784998D01*
X43336328Y-126784998D02*
X43336328Y-125856427D01*
X43693471Y-125284999D02*
X43764900Y-125213570D01*
X43764900Y-125213570D02*
X43836328Y-125284999D01*
X43836328Y-125284999D02*
X43764900Y-125356427D01*
X43764900Y-125356427D02*
X43693471Y-125284999D01*
X43693471Y-125284999D02*
X43836328Y-125284999D01*
X43836328Y-123784998D02*
X43836328Y-124642141D01*
X43836328Y-124213570D02*
X42336328Y-124213570D01*
X42336328Y-124213570D02*
X42550614Y-124356427D01*
X42550614Y-124356427D02*
X42693471Y-124499284D01*
X42693471Y-124499284D02*
X42764900Y-124642141D01*
X42336328Y-123284999D02*
X42336328Y-122356427D01*
X42336328Y-122356427D02*
X42907757Y-122856427D01*
X42907757Y-122856427D02*
X42907757Y-122642142D01*
X42907757Y-122642142D02*
X42979185Y-122499285D01*
X42979185Y-122499285D02*
X43050614Y-122427856D01*
X43050614Y-122427856D02*
X43193471Y-122356427D01*
X43193471Y-122356427D02*
X43550614Y-122356427D01*
X43550614Y-122356427D02*
X43693471Y-122427856D01*
X43693471Y-122427856D02*
X43764900Y-122499285D01*
X43764900Y-122499285D02*
X43836328Y-122642142D01*
X43836328Y-122642142D02*
X43836328Y-123070713D01*
X43836328Y-123070713D02*
X43764900Y-123213570D01*
X43764900Y-123213570D02*
X43693471Y-123284999D01*
X42336328Y-121427856D02*
X42336328Y-121284999D01*
X42336328Y-121284999D02*
X42407757Y-121142142D01*
X42407757Y-121142142D02*
X42479185Y-121070714D01*
X42479185Y-121070714D02*
X42622042Y-120999285D01*
X42622042Y-120999285D02*
X42907757Y-120927856D01*
X42907757Y-120927856D02*
X43264900Y-120927856D01*
X43264900Y-120927856D02*
X43550614Y-120999285D01*
X43550614Y-120999285D02*
X43693471Y-121070714D01*
X43693471Y-121070714D02*
X43764900Y-121142142D01*
X43764900Y-121142142D02*
X43836328Y-121284999D01*
X43836328Y-121284999D02*
X43836328Y-121427856D01*
X43836328Y-121427856D02*
X43764900Y-121570714D01*
X43764900Y-121570714D02*
X43693471Y-121642142D01*
X43693471Y-121642142D02*
X43550614Y-121713571D01*
X43550614Y-121713571D02*
X43264900Y-121784999D01*
X43264900Y-121784999D02*
X42907757Y-121784999D01*
X42907757Y-121784999D02*
X42622042Y-121713571D01*
X42622042Y-121713571D02*
X42479185Y-121642142D01*
X42479185Y-121642142D02*
X42407757Y-121570714D01*
X42407757Y-121570714D02*
X42336328Y-121427856D01*
X42336328Y-119999285D02*
X42336328Y-119856428D01*
X42336328Y-119856428D02*
X42407757Y-119713571D01*
X42407757Y-119713571D02*
X42479185Y-119642143D01*
X42479185Y-119642143D02*
X42622042Y-119570714D01*
X42622042Y-119570714D02*
X42907757Y-119499285D01*
X42907757Y-119499285D02*
X43264900Y-119499285D01*
X43264900Y-119499285D02*
X43550614Y-119570714D01*
X43550614Y-119570714D02*
X43693471Y-119642143D01*
X43693471Y-119642143D02*
X43764900Y-119713571D01*
X43764900Y-119713571D02*
X43836328Y-119856428D01*
X43836328Y-119856428D02*
X43836328Y-119999285D01*
X43836328Y-119999285D02*
X43764900Y-120142143D01*
X43764900Y-120142143D02*
X43693471Y-120213571D01*
X43693471Y-120213571D02*
X43550614Y-120285000D01*
X43550614Y-120285000D02*
X43264900Y-120356428D01*
X43264900Y-120356428D02*
X42907757Y-120356428D01*
X42907757Y-120356428D02*
X42622042Y-120285000D01*
X42622042Y-120285000D02*
X42479185Y-120213571D01*
X42479185Y-120213571D02*
X42407757Y-120142143D01*
X42407757Y-120142143D02*
X42336328Y-119999285D01*
X43836328Y-117713572D02*
X42836328Y-117713572D01*
X42979185Y-117713572D02*
X42907757Y-117642143D01*
X42907757Y-117642143D02*
X42836328Y-117499286D01*
X42836328Y-117499286D02*
X42836328Y-117285000D01*
X42836328Y-117285000D02*
X42907757Y-117142143D01*
X42907757Y-117142143D02*
X43050614Y-117070715D01*
X43050614Y-117070715D02*
X43836328Y-117070715D01*
X43050614Y-117070715D02*
X42907757Y-116999286D01*
X42907757Y-116999286D02*
X42836328Y-116856429D01*
X42836328Y-116856429D02*
X42836328Y-116642143D01*
X42836328Y-116642143D02*
X42907757Y-116499286D01*
X42907757Y-116499286D02*
X43050614Y-116427857D01*
X43050614Y-116427857D02*
X43836328Y-116427857D01*
X43836328Y-115713572D02*
X42836328Y-115713572D01*
X42979185Y-115713572D02*
X42907757Y-115642143D01*
X42907757Y-115642143D02*
X42836328Y-115499286D01*
X42836328Y-115499286D02*
X42836328Y-115285000D01*
X42836328Y-115285000D02*
X42907757Y-115142143D01*
X42907757Y-115142143D02*
X43050614Y-115070715D01*
X43050614Y-115070715D02*
X43836328Y-115070715D01*
X43050614Y-115070715D02*
X42907757Y-114999286D01*
X42907757Y-114999286D02*
X42836328Y-114856429D01*
X42836328Y-114856429D02*
X42836328Y-114642143D01*
X42836328Y-114642143D02*
X42907757Y-114499286D01*
X42907757Y-114499286D02*
X43050614Y-114427857D01*
X43050614Y-114427857D02*
X43836328Y-114427857D01*
D12*
X50300000Y-133350000D02*
X44371580Y-133350000D01*
X50300000Y-109220000D02*
X44371580Y-109220000D01*
X44958000Y-133350000D02*
X44958000Y-109220000D01*
X44958000Y-133350000D02*
X44958000Y-109220000D01*
X44958000Y-133350000D02*
X44371579Y-132223496D01*
X44958000Y-133350000D02*
X45544421Y-132223496D01*
X44958000Y-109220000D02*
X45544421Y-110346504D01*
X44958000Y-109220000D02*
X44371579Y-110346504D01*
D13*
%TO.P,U3,1*%
%TO.N,Net-(C2-Pad1)*%
X67320000Y-128260000D03*
D14*
%TO.P,U3,2,-*%
%TO.N,Net-(U3A--)*%
X69860000Y-128260000D03*
%TO.P,U3,3,+*%
%TO.N,Net-(U3A-+)*%
X72400000Y-128260000D03*
%TO.P,U3,4,V-*%
%TO.N,GND*%
X74940000Y-128260000D03*
%TO.P,U3,5,+*%
%TO.N,Net-(U3B-+)*%
X74940000Y-120640000D03*
%TO.P,U3,6,-*%
%TO.N,Net-(U3B--)*%
X72400000Y-120640000D03*
%TO.P,U3,7*%
%TO.N,Net-(J3-Pin_1)*%
X69860000Y-120640000D03*
%TO.P,U3,8,V+*%
%TO.N,+12V*%
X67320000Y-120640000D03*
%TD*%
D15*
%TO.P,TP1,1,1*%
%TO.N,Net-(C2-Pad1)*%
X80010000Y-129540000D03*
%TD*%
D16*
%TO.P,R9,1*%
%TO.N,Net-(J3-Pin_1)*%
X79500000Y-124460000D03*
%TO.P,R9,2*%
%TO.N,Net-(U3B--)*%
X80520000Y-124460000D03*
%TD*%
D17*
%TO.P,R8,1*%
%TO.N,GND*%
X80520000Y-122555000D03*
%TO.P,R8,2*%
%TO.N,Net-(U3B--)*%
X79500000Y-122555000D03*
%TD*%
%TO.P,R7,1*%
%TO.N,Net-(U3B-+)*%
X80520000Y-120650000D03*
%TO.P,R7,2*%
%TO.N,Net-(C6-Pad2)*%
X79500000Y-120650000D03*
%TD*%
D16*
%TO.P,R6,1*%
%TO.N,Net-(C6-Pad2)*%
X79500000Y-118110000D03*
%TO.P,R6,2*%
%TO.N,Net-(C2-Pad1)*%
X80520000Y-118110000D03*
%TD*%
%TO.P,R5,1*%
%TO.N,GND*%
X59180000Y-114935000D03*
%TO.P,R5,2*%
%TO.N,Net-(U3A--)*%
X60200000Y-114935000D03*
%TD*%
D18*
%TO.P,R4,1*%
%TO.N,Net-(C2-Pad1)*%
X63500000Y-116965000D03*
%TO.P,R4,2*%
%TO.N,Net-(R3-Pad1)*%
X63500000Y-117985000D03*
%TD*%
D19*
%TO.P,R3,1*%
%TO.N,Net-(R3-Pad1)*%
X61595000Y-117985000D03*
%TO.P,R3,2*%
%TO.N,Net-(U3A--)*%
X61595000Y-116965000D03*
%TD*%
D18*
%TO.P,R2,2*%
%TO.N,Net-(J1-Pin_1)*%
X57150000Y-117985000D03*
%TO.P,R2,1*%
%TO.N,Net-(C2-Pad2)*%
X57150000Y-116965000D03*
%TD*%
D19*
%TO.P,R1,1*%
%TO.N,Net-(U3A-+)*%
X59055000Y-117985000D03*
%TO.P,R1,2*%
%TO.N,Net-(C2-Pad2)*%
X59055000Y-116965000D03*
%TD*%
D20*
%TO.P,J3,1,Pin_1*%
%TO.N,Net-(J3-Pin_1)*%
X92710000Y-120650000D03*
D21*
%TO.P,J3,2,Pin_2*%
%TO.N,GND*%
X92710000Y-121920000D03*
%TD*%
D20*
%TO.P,J2,1,Pin_1*%
%TO.N,+12V*%
X77470000Y-111125000D03*
D21*
%TO.P,J2,2,Pin_2*%
%TO.N,GND*%
X78740000Y-111125000D03*
%TD*%
D20*
%TO.P,J1,1,Pin_1*%
%TO.N,Net-(J1-Pin_1)*%
X52705000Y-120650000D03*
D21*
%TO.P,J1,2,Pin_2*%
%TO.N,GND*%
X52705000Y-121920000D03*
%TD*%
D22*
%TO.P,C6,1*%
%TO.N,Net-(J3-Pin_1)*%
X86360000Y-118110000D03*
D23*
%TO.P,C6,2*%
%TO.N,Net-(C6-Pad2)*%
X86360000Y-116110000D03*
%TD*%
D22*
%TO.P,C5,1*%
%TO.N,Net-(U3B-+)*%
X86360000Y-121920000D03*
D23*
%TO.P,C5,2*%
%TO.N,GND*%
X86360000Y-123920000D03*
%TD*%
D22*
%TO.P,C4,1*%
%TO.N,+12V*%
X66390000Y-114935000D03*
D23*
%TO.P,C4,2*%
%TO.N,GND*%
X68390000Y-114935000D03*
%TD*%
D22*
%TO.P,C3,1*%
%TO.N,+12V*%
X72390000Y-114935000D03*
D23*
%TO.P,C3,2*%
%TO.N,GND*%
X74390000Y-114935000D03*
%TD*%
D22*
%TO.P,C2,1*%
%TO.N,Net-(C2-Pad1)*%
X59055000Y-123825000D03*
D23*
%TO.P,C2,2*%
%TO.N,Net-(C2-Pad2)*%
X59055000Y-121825000D03*
%TD*%
D22*
%TO.P,C1,1*%
%TO.N,Net-(U3A-+)*%
X59055000Y-129242599D03*
D23*
%TO.P,C1,2*%
%TO.N,GND*%
X59055000Y-127242599D03*
%TD*%
D24*
%TO.N,GND*%
X62484000Y-121412000D03*
X70866000Y-118364000D03*
X66040000Y-131826000D03*
X61468000Y-131572000D03*
X63754000Y-130810000D03*
X74422000Y-125730000D03*
X69088000Y-123444000D03*
X84836000Y-113284000D03*
X78740000Y-114554000D03*
X60198000Y-110998000D03*
X62738000Y-114046000D03*
%TO.N,Net-(J3-Pin_1)*%
X82550000Y-125984000D03*
X83820000Y-118618000D03*
%TO.N,GND*%
X57404000Y-115062000D03*
%TO.N,Net-(C6-Pad2)*%
X77470000Y-118110000D03*
X78232000Y-120650000D03*
%TO.N,Net-(U3A-+)*%
X71120000Y-125730000D03*
%TD*%
D25*
%TO.N,Net-(J3-Pin_1)*%
X79500000Y-124460000D02*
X79500000Y-125728000D01*
X79500000Y-125728000D02*
X80264000Y-126492000D01*
X80264000Y-126492000D02*
X82042000Y-126492000D01*
X82042000Y-126492000D02*
X82550000Y-125984000D01*
X86360000Y-118110000D02*
X84328000Y-118110000D01*
X84328000Y-118110000D02*
X83820000Y-118618000D01*
%TO.N,GND*%
X59180000Y-114935000D02*
X57531000Y-114935000D01*
X57531000Y-114935000D02*
X57404000Y-115062000D01*
D26*
%TO.N,+12V*%
X72390000Y-114935000D02*
X71140000Y-114935000D01*
X71140000Y-114935000D02*
X67320000Y-118755000D01*
D25*
%TO.N,Net-(C6-Pad2)*%
X79500000Y-118110000D02*
X77470000Y-118110000D01*
X79500000Y-120650000D02*
X78232000Y-120650000D01*
X79500000Y-118110000D02*
X79500000Y-117096000D01*
X85566000Y-115316000D02*
X86360000Y-116110000D01*
X79500000Y-117096000D02*
X81280000Y-115316000D01*
X81280000Y-115316000D02*
X85566000Y-115316000D01*
%TO.N,Net-(J3-Pin_1)*%
X92710000Y-120650000D02*
X90170000Y-118110000D01*
X90170000Y-118110000D02*
X86360000Y-118110000D01*
%TO.N,Net-(U3A-+)*%
X72400000Y-127010000D02*
X71120000Y-125730000D01*
X72400000Y-128260000D02*
X72400000Y-127010000D01*
D26*
%TO.N,Net-(C2-Pad1)*%
X87630000Y-120015000D02*
X82425000Y-120015000D01*
X82425000Y-120015000D02*
X80520000Y-118110000D01*
D25*
%TO.N,Net-(U3B-+)*%
X74940000Y-120640000D02*
X76165000Y-119415000D01*
X76165000Y-119415000D02*
X79285000Y-119415000D01*
X79285000Y-119415000D02*
X80520000Y-120650000D01*
X86360000Y-121920000D02*
X85725000Y-121285000D01*
X85725000Y-121285000D02*
X81155000Y-121285000D01*
X81155000Y-121285000D02*
X80520000Y-120650000D01*
%TO.N,GND*%
X80520000Y-122555000D02*
X82550000Y-122555000D01*
X82550000Y-122555000D02*
X83915000Y-123920000D01*
X83915000Y-123920000D02*
X86360000Y-123920000D01*
D26*
%TO.N,Net-(C2-Pad1)*%
X80010000Y-129540000D02*
X83820000Y-129540000D01*
X83820000Y-129540000D02*
X88900000Y-124460000D01*
X88900000Y-124460000D02*
X88900000Y-121285000D01*
X88900000Y-121285000D02*
X87630000Y-120015000D01*
D25*
%TO.N,Net-(U3B--)*%
X80520000Y-124460000D02*
X80520000Y-123700000D01*
X80520000Y-123700000D02*
X79500000Y-122680000D01*
X79500000Y-122680000D02*
X79500000Y-122555000D01*
X78865000Y-123190000D02*
X79120000Y-123190000D01*
X79120000Y-123190000D02*
X79500000Y-122810000D01*
X79500000Y-122810000D02*
X79500000Y-122555000D01*
X72400000Y-120640000D02*
X72400000Y-121930000D01*
X72400000Y-121930000D02*
X73660000Y-123190000D01*
X73660000Y-123190000D02*
X78865000Y-123190000D01*
%TO.N,Net-(J3-Pin_1)*%
X79500000Y-124460000D02*
X71755000Y-124460000D01*
X69860000Y-122565000D02*
X69860000Y-120640000D01*
X71755000Y-124460000D02*
X69860000Y-122565000D01*
D26*
%TO.N,Net-(C2-Pad1)*%
X80010000Y-129540000D02*
X78740000Y-130810000D01*
X78740000Y-130810000D02*
X68580000Y-130810000D01*
X68580000Y-130810000D02*
X67320000Y-129550000D01*
X67320000Y-129550000D02*
X67320000Y-128260000D01*
%TO.N,+12V*%
X67320000Y-118755000D02*
X66548000Y-117983000D01*
X66548000Y-117983000D02*
X66548000Y-115093000D01*
X66548000Y-115093000D02*
X66390000Y-114935000D01*
X67320000Y-120640000D02*
X67320000Y-118755000D01*
X72390000Y-114935000D02*
X72390000Y-113030000D01*
X72390000Y-113030000D02*
X74295000Y-111125000D01*
X74295000Y-111125000D02*
X77470000Y-111125000D01*
D25*
%TO.N,Net-(U3A--)*%
X69860000Y-128260000D02*
X69860000Y-126375000D01*
X69860000Y-126375000D02*
X65405000Y-121920000D01*
X65405000Y-121920000D02*
X65405000Y-116840000D01*
X65405000Y-116840000D02*
X64135000Y-115570000D01*
X64135000Y-115570000D02*
X61595000Y-115570000D01*
%TO.N,Net-(C2-Pad1)*%
X67320000Y-128260000D02*
X66665000Y-128260000D01*
X66665000Y-128260000D02*
X62230000Y-123825000D01*
X64770000Y-117475000D02*
X64770000Y-121285000D01*
X63500000Y-116965000D02*
X64260000Y-116965000D01*
X64260000Y-116965000D02*
X64770000Y-117475000D01*
X64770000Y-121285000D02*
X62230000Y-123825000D01*
X62230000Y-123825000D02*
X59055000Y-123825000D01*
%TO.N,Net-(R3-Pad1)*%
X61595000Y-117985000D02*
X63500000Y-117985000D01*
X61595000Y-117985000D02*
X61595000Y-118110000D01*
%TO.N,Net-(U3A--)*%
X60960000Y-114935000D02*
X61595000Y-115570000D01*
X60200000Y-114935000D02*
X60960000Y-114935000D01*
X61595000Y-115570000D02*
X61595000Y-116965000D01*
%TO.N,Net-(C2-Pad2)*%
X59055000Y-116965000D02*
X59752500Y-116965000D01*
X59752500Y-116965000D02*
X60290000Y-117502500D01*
X60290000Y-117502500D02*
X60290000Y-120590000D01*
X60290000Y-120590000D02*
X59055000Y-121825000D01*
%TO.N,Net-(U3A-+)*%
X59055000Y-117985000D02*
X55245000Y-121795000D01*
X55245000Y-121795000D02*
X55245000Y-126365000D01*
X55245000Y-126365000D02*
X58122599Y-129242599D01*
X58122599Y-129242599D02*
X59055000Y-129242599D01*
%TO.N,Net-(C2-Pad2)*%
X57150000Y-116965000D02*
X59055000Y-116965000D01*
%TO.N,Net-(J1-Pin_1)*%
X52705000Y-120650000D02*
X54485000Y-120650000D01*
X54485000Y-120650000D02*
X57150000Y-117985000D01*
%TD*%
%TA.AperFunction,Conductor*%
%TO.N,GND*%
G36*
X87648082Y-121097236D02*
G01*
X87665043Y-121111411D01*
X88113181Y-121559548D01*
X88146666Y-121620871D01*
X88149500Y-121647229D01*
X88149500Y-124097770D01*
X88129815Y-124164809D01*
X88113181Y-124185451D01*
X83545451Y-128753181D01*
X83484128Y-128786666D01*
X83457770Y-128789500D01*
X81634499Y-128789500D01*
X81567460Y-128769815D01*
X81521705Y-128717011D01*
X81510499Y-128665500D01*
X81510499Y-128492129D01*
X81510498Y-128492123D01*
X81510497Y-128492116D01*
X81504091Y-128432517D01*
X81492520Y-128401494D01*
X81453797Y-128297671D01*
X81453793Y-128297664D01*
X81367547Y-128182455D01*
X81367544Y-128182452D01*
X81252335Y-128096206D01*
X81252328Y-128096202D01*
X81117482Y-128045908D01*
X81117483Y-128045908D01*
X81057883Y-128039501D01*
X81057881Y-128039500D01*
X81057873Y-128039500D01*
X81057864Y-128039500D01*
X78962129Y-128039500D01*
X78962123Y-128039501D01*
X78902516Y-128045908D01*
X78767671Y-128096202D01*
X78767664Y-128096206D01*
X78652455Y-128182452D01*
X78652452Y-128182455D01*
X78566206Y-128297664D01*
X78566202Y-128297671D01*
X78515908Y-128432517D01*
X78512073Y-128468192D01*
X78509501Y-128492123D01*
X78509500Y-128492135D01*
X78509500Y-129927768D01*
X78489815Y-129994807D01*
X78473187Y-130015444D01*
X78465456Y-130023176D01*
X78404135Y-130056665D01*
X78377769Y-130059500D01*
X68942230Y-130059500D01*
X68875191Y-130039815D01*
X68854549Y-130023181D01*
X68447983Y-129616615D01*
X68414498Y-129555292D01*
X68419482Y-129485600D01*
X68461354Y-129429667D01*
X68477546Y-129417546D01*
X68563796Y-129302331D01*
X68614091Y-129167483D01*
X68617862Y-129132401D01*
X68644599Y-129067855D01*
X68701990Y-129028006D01*
X68771816Y-129025511D01*
X68831905Y-129061163D01*
X68842726Y-129074536D01*
X68859956Y-129099143D01*
X69020858Y-129260045D01*
X69020861Y-129260047D01*
X69207266Y-129390568D01*
X69413504Y-129486739D01*
X69633308Y-129545635D01*
X69795230Y-129559801D01*
X69859998Y-129565468D01*
X69860000Y-129565468D01*
X69860002Y-129565468D01*
X69922991Y-129559957D01*
X70086692Y-129545635D01*
X70306496Y-129486739D01*
X70512734Y-129390568D01*
X70699139Y-129260047D01*
X70860047Y-129099139D01*
X70990568Y-128912734D01*
X71017618Y-128854724D01*
X71063790Y-128802285D01*
X71130983Y-128783133D01*
X71197865Y-128803348D01*
X71242382Y-128854725D01*
X71269429Y-128912728D01*
X71269432Y-128912734D01*
X71399954Y-129099141D01*
X71560858Y-129260045D01*
X71560861Y-129260047D01*
X71747266Y-129390568D01*
X71953504Y-129486739D01*
X72173308Y-129545635D01*
X72335230Y-129559801D01*
X72399998Y-129565468D01*
X72400000Y-129565468D01*
X72400002Y-129565468D01*
X72462991Y-129559957D01*
X72626692Y-129545635D01*
X72846496Y-129486739D01*
X73052734Y-129390568D01*
X73239139Y-129260047D01*
X73400047Y-129099139D01*
X73530568Y-128912734D01*
X73557895Y-128854129D01*
X73604064Y-128801695D01*
X73671257Y-128782542D01*
X73738139Y-128802757D01*
X73782657Y-128854133D01*
X73809865Y-128912482D01*
X73940342Y-129098820D01*
X74101179Y-129259657D01*
X74287517Y-129390134D01*
X74493673Y-129486265D01*
X74493682Y-129486269D01*
X74689999Y-129538872D01*
X74690000Y-129538871D01*
X74690000Y-128575686D01*
X74701955Y-128587641D01*
X74814852Y-128645165D01*
X74908519Y-128660000D01*
X74971481Y-128660000D01*
X75065148Y-128645165D01*
X75178045Y-128587641D01*
X75190000Y-128575686D01*
X75190000Y-129538872D01*
X75386317Y-129486269D01*
X75386326Y-129486265D01*
X75592482Y-129390134D01*
X75778820Y-129259657D01*
X75939657Y-129098820D01*
X76070134Y-128912482D01*
X76166265Y-128706326D01*
X76166269Y-128706317D01*
X76218872Y-128510000D01*
X75255686Y-128510000D01*
X75267641Y-128498045D01*
X75325165Y-128385148D01*
X75344986Y-128260000D01*
X75325165Y-128134852D01*
X75267641Y-128021955D01*
X75255686Y-128010000D01*
X76218872Y-128010000D01*
X76218872Y-128009999D01*
X76166269Y-127813682D01*
X76166265Y-127813673D01*
X76070134Y-127607517D01*
X75939657Y-127421179D01*
X75778820Y-127260342D01*
X75592482Y-127129865D01*
X75386328Y-127033734D01*
X75190000Y-126981127D01*
X75190000Y-127944314D01*
X75178045Y-127932359D01*
X75065148Y-127874835D01*
X74971481Y-127860000D01*
X74908519Y-127860000D01*
X74814852Y-127874835D01*
X74701955Y-127932359D01*
X74690000Y-127944314D01*
X74690000Y-126981127D01*
X74493671Y-127033734D01*
X74287517Y-127129865D01*
X74101179Y-127260342D01*
X73940342Y-127421179D01*
X73809867Y-127607515D01*
X73782657Y-127665867D01*
X73736484Y-127718306D01*
X73669290Y-127737457D01*
X73602409Y-127717241D01*
X73557893Y-127665865D01*
X73549329Y-127647500D01*
X73530568Y-127607266D01*
X73400047Y-127420861D01*
X73400045Y-127420858D01*
X73239143Y-127259956D01*
X73105480Y-127166364D01*
X73061856Y-127111787D01*
X73052665Y-127068684D01*
X73050561Y-127001735D01*
X73050500Y-126997840D01*
X73050500Y-126969077D01*
X73050499Y-126969070D01*
X73049949Y-126964716D01*
X73049030Y-126953054D01*
X73048702Y-126942609D01*
X73047597Y-126907430D01*
X73041676Y-126887052D01*
X73037731Y-126868003D01*
X73035071Y-126846942D01*
X73018261Y-126804487D01*
X73014481Y-126793445D01*
X73011119Y-126781871D01*
X73001744Y-126749601D01*
X72990939Y-126731332D01*
X72982379Y-126713858D01*
X72980768Y-126709788D01*
X72974568Y-126694129D01*
X72947737Y-126657199D01*
X72941323Y-126647435D01*
X72928290Y-126625397D01*
X72918081Y-126608135D01*
X72918078Y-126608132D01*
X72918074Y-126608127D01*
X72903075Y-126593129D01*
X72890435Y-126578330D01*
X72877961Y-126561160D01*
X72842780Y-126532056D01*
X72834140Y-126524194D01*
X71941722Y-125631776D01*
X71908237Y-125570453D01*
X71906182Y-125557973D01*
X71905368Y-125550749D01*
X71905368Y-125550745D01*
X71845789Y-125380478D01*
X71829267Y-125354184D01*
X71795518Y-125300472D01*
X71776518Y-125233235D01*
X71796886Y-125166400D01*
X71850154Y-125121186D01*
X71900512Y-125110500D01*
X78725500Y-125110500D01*
X78792539Y-125130185D01*
X78838294Y-125182989D01*
X78849500Y-125234500D01*
X78849500Y-125642494D01*
X78847732Y-125658505D01*
X78847974Y-125658528D01*
X78847240Y-125666294D01*
X78849439Y-125736262D01*
X78849500Y-125740157D01*
X78849500Y-125768920D01*
X78849501Y-125768938D01*
X78850053Y-125773311D01*
X78850968Y-125784941D01*
X78852402Y-125830567D01*
X78852403Y-125830570D01*
X78858323Y-125850948D01*
X78862268Y-125869996D01*
X78864928Y-125891054D01*
X78864931Y-125891065D01*
X78881737Y-125933514D01*
X78885520Y-125944563D01*
X78898254Y-125988395D01*
X78898255Y-125988397D01*
X78909060Y-126006666D01*
X78917617Y-126024134D01*
X78923226Y-126038300D01*
X78925432Y-126043872D01*
X78952266Y-126080806D01*
X78958678Y-126090568D01*
X78981919Y-126129865D01*
X78981923Y-126129869D01*
X78996925Y-126144871D01*
X79009563Y-126159669D01*
X79022033Y-126176833D01*
X79022036Y-126176837D01*
X79057213Y-126205937D01*
X79065854Y-126213800D01*
X79743564Y-126891510D01*
X79753635Y-126904080D01*
X79753822Y-126903926D01*
X79758795Y-126909937D01*
X79758797Y-126909939D01*
X79758798Y-126909940D01*
X79780460Y-126930282D01*
X79809832Y-126957864D01*
X79812629Y-126960575D01*
X79832967Y-126980913D01*
X79836450Y-126983615D01*
X79845326Y-126991196D01*
X79865435Y-127010079D01*
X79878607Y-127022448D01*
X79878609Y-127022449D01*
X79897205Y-127032672D01*
X79913470Y-127043357D01*
X79930232Y-127056360D01*
X79930235Y-127056361D01*
X79930236Y-127056362D01*
X79972140Y-127074495D01*
X79982612Y-127079625D01*
X80022632Y-127101627D01*
X80038340Y-127105659D01*
X80043186Y-127106904D01*
X80061598Y-127113207D01*
X80081073Y-127121635D01*
X80126179Y-127128778D01*
X80137574Y-127131138D01*
X80181823Y-127142500D01*
X80203051Y-127142500D01*
X80222448Y-127144026D01*
X80243403Y-127147345D01*
X80243404Y-127147346D01*
X80243404Y-127147345D01*
X80243405Y-127147346D01*
X80288852Y-127143050D01*
X80300521Y-127142500D01*
X81956495Y-127142500D01*
X81972505Y-127144267D01*
X81972528Y-127144026D01*
X81980289Y-127144758D01*
X81980296Y-127144760D01*
X82050262Y-127142560D01*
X82054157Y-127142500D01*
X82082925Y-127142500D01*
X82087287Y-127141948D01*
X82098939Y-127141030D01*
X82144569Y-127139597D01*
X82164956Y-127133673D01*
X82183996Y-127129731D01*
X82205058Y-127127071D01*
X82247520Y-127110258D01*
X82258557Y-127106480D01*
X82302398Y-127093744D01*
X82320665Y-127082939D01*
X82338136Y-127074380D01*
X82357871Y-127066568D01*
X82394816Y-127039725D01*
X82404558Y-127033326D01*
X82443865Y-127010081D01*
X82458870Y-126995075D01*
X82473668Y-126982436D01*
X82475470Y-126981127D01*
X82490837Y-126969963D01*
X82519946Y-126934774D01*
X82527790Y-126926154D01*
X82648224Y-126805720D01*
X82709545Y-126772237D01*
X82722019Y-126770183D01*
X82729255Y-126769368D01*
X82899522Y-126709789D01*
X83052262Y-126613816D01*
X83179816Y-126486262D01*
X83275789Y-126333522D01*
X83335368Y-126163255D01*
X83336662Y-126151773D01*
X83355565Y-125984003D01*
X83355565Y-125983996D01*
X83335369Y-125804750D01*
X83335368Y-125804745D01*
X83311405Y-125736262D01*
X83275789Y-125634478D01*
X83179816Y-125481738D01*
X83052262Y-125354184D01*
X82966780Y-125300472D01*
X82899523Y-125258211D01*
X82729254Y-125198631D01*
X82729249Y-125198630D01*
X82550004Y-125178435D01*
X82549996Y-125178435D01*
X82370750Y-125198630D01*
X82370745Y-125198631D01*
X82200476Y-125258211D01*
X82047737Y-125354184D01*
X81920184Y-125481737D01*
X81824210Y-125634478D01*
X81780830Y-125758454D01*
X81740108Y-125815230D01*
X81675156Y-125840978D01*
X81663788Y-125841500D01*
X80584808Y-125841500D01*
X80517769Y-125821815D01*
X80497127Y-125805181D01*
X80186819Y-125494873D01*
X80153334Y-125433550D01*
X80150500Y-125407192D01*
X80150500Y-125401238D01*
X80170185Y-125334199D01*
X80222989Y-125288444D01*
X80284230Y-125277620D01*
X80284793Y-125277664D01*
X80284796Y-125277665D01*
X80320819Y-125280500D01*
X80719180Y-125280499D01*
X80755204Y-125277665D01*
X80909393Y-125232869D01*
X81047598Y-125151135D01*
X81161135Y-125037598D01*
X81242869Y-124899393D01*
X81255987Y-124854240D01*
X85779311Y-124854240D01*
X85867585Y-124908897D01*
X86057678Y-124982539D01*
X86258072Y-125020000D01*
X86461928Y-125020000D01*
X86662322Y-124982539D01*
X86852412Y-124908899D01*
X86852416Y-124908897D01*
X86940686Y-124854241D01*
X86940686Y-124854240D01*
X86360001Y-124273553D01*
X86360000Y-124273553D01*
X85779311Y-124854240D01*
X81255987Y-124854240D01*
X81287665Y-124745204D01*
X81290500Y-124709181D01*
X81290499Y-124210820D01*
X81287665Y-124174796D01*
X81242869Y-124020607D01*
X81240680Y-124016906D01*
X81187768Y-123927434D01*
X81185734Y-123920000D01*
X85255287Y-123920000D01*
X85274096Y-124122989D01*
X85274097Y-124122992D01*
X85329883Y-124319063D01*
X85329886Y-124319069D01*
X85420751Y-124501551D01*
X85422533Y-124503911D01*
X86006446Y-123920000D01*
X85978286Y-123891840D01*
X86056105Y-123891840D01*
X86066454Y-124003521D01*
X86116448Y-124103922D01*
X86199334Y-124179484D01*
X86303920Y-124220000D01*
X86387802Y-124220000D01*
X86470250Y-124204588D01*
X86565610Y-124145543D01*
X86633201Y-124056038D01*
X86663895Y-123948160D01*
X86661286Y-123920000D01*
X86713553Y-123920000D01*
X87297465Y-124503912D01*
X87299247Y-124501553D01*
X87299248Y-124501551D01*
X87390113Y-124319069D01*
X87390116Y-124319063D01*
X87445902Y-124122992D01*
X87445903Y-124122989D01*
X87464713Y-123920000D01*
X87464713Y-123919999D01*
X87445903Y-123717010D01*
X87445902Y-123717007D01*
X87390116Y-123520936D01*
X87390113Y-123520930D01*
X87299249Y-123338449D01*
X87299247Y-123338447D01*
X87297465Y-123336087D01*
X86713553Y-123920000D01*
X86661286Y-123920000D01*
X86653546Y-123836479D01*
X86603552Y-123736078D01*
X86520666Y-123660516D01*
X86416080Y-123620000D01*
X86332198Y-123620000D01*
X86249750Y-123635412D01*
X86154390Y-123694457D01*
X86086799Y-123783962D01*
X86056105Y-123891840D01*
X85978286Y-123891840D01*
X85422533Y-123336087D01*
X85420755Y-123338442D01*
X85420754Y-123338443D01*
X85329886Y-123520930D01*
X85329883Y-123520936D01*
X85274097Y-123717007D01*
X85274096Y-123717010D01*
X85255287Y-123919999D01*
X85255287Y-123920000D01*
X81185734Y-123920000D01*
X81170500Y-123864314D01*
X81170500Y-123785502D01*
X81172268Y-123769489D01*
X81172026Y-123769467D01*
X81172758Y-123761711D01*
X81172760Y-123761704D01*
X81170561Y-123691736D01*
X81170500Y-123687841D01*
X81170500Y-123659077D01*
X81170499Y-123659070D01*
X81169949Y-123654716D01*
X81169030Y-123643054D01*
X81168790Y-123635412D01*
X81167597Y-123597431D01*
X81161676Y-123577053D01*
X81157731Y-123558004D01*
X81155071Y-123536942D01*
X81138263Y-123494491D01*
X81134480Y-123483442D01*
X81121743Y-123439600D01*
X81110940Y-123421334D01*
X81102378Y-123403856D01*
X81094568Y-123384129D01*
X81094566Y-123384126D01*
X81078686Y-123362269D01*
X81055206Y-123296462D01*
X81071031Y-123228408D01*
X81091323Y-123201701D01*
X81160734Y-123132290D01*
X81160738Y-123132285D01*
X81242406Y-122994191D01*
X81242407Y-122994188D01*
X81287166Y-122840128D01*
X81287167Y-122840122D01*
X81289931Y-122805000D01*
X80596308Y-122805000D01*
X80529269Y-122785315D01*
X80508627Y-122768681D01*
X80306818Y-122566872D01*
X80273333Y-122505549D01*
X80270499Y-122479191D01*
X80270499Y-122429000D01*
X80290184Y-122361961D01*
X80342988Y-122316206D01*
X80394499Y-122305000D01*
X81289931Y-122305000D01*
X81287167Y-122269877D01*
X81287166Y-122269871D01*
X81242406Y-122115807D01*
X81239352Y-122108749D01*
X81230791Y-122039406D01*
X81261079Y-121976443D01*
X81320599Y-121939849D01*
X81353152Y-121935500D01*
X85135501Y-121935500D01*
X85202540Y-121955185D01*
X85248295Y-122007989D01*
X85259501Y-122059500D01*
X85259501Y-122567876D01*
X85265908Y-122627483D01*
X85316202Y-122762328D01*
X85316206Y-122762335D01*
X85402452Y-122877544D01*
X85402455Y-122877547D01*
X85517664Y-122963793D01*
X85517671Y-122963797D01*
X85652516Y-123014091D01*
X85678419Y-123016875D01*
X85712127Y-123020500D01*
X85762692Y-123020499D01*
X85829729Y-123040182D01*
X85850372Y-123056818D01*
X86360000Y-123566446D01*
X86869628Y-123056818D01*
X86930951Y-123023333D01*
X86957308Y-123020499D01*
X87007872Y-123020499D01*
X87067483Y-123014091D01*
X87202331Y-122963796D01*
X87317546Y-122877546D01*
X87403796Y-122762331D01*
X87454091Y-122627483D01*
X87460500Y-122567873D01*
X87460499Y-121272128D01*
X87454091Y-121212517D01*
X87454089Y-121212514D01*
X87454072Y-121212347D01*
X87466478Y-121143587D01*
X87514089Y-121092450D01*
X87581788Y-121075171D01*
X87648082Y-121097236D01*
G37*
%TD.AperFunction*%
%TA.AperFunction,Conductor*%
G36*
X68657865Y-121183348D02*
G01*
X68702382Y-121234725D01*
X68729429Y-121292728D01*
X68729432Y-121292734D01*
X68859954Y-121479141D01*
X69020855Y-121640042D01*
X69020858Y-121640044D01*
X69020861Y-121640047D01*
X69156626Y-121735109D01*
X69200248Y-121789683D01*
X69209500Y-121836682D01*
X69209500Y-122479494D01*
X69207732Y-122495505D01*
X69207974Y-122495528D01*
X69207240Y-122503294D01*
X69209439Y-122573262D01*
X69209500Y-122577157D01*
X69209500Y-122605920D01*
X69209501Y-122605938D01*
X69210053Y-122610311D01*
X69210968Y-122621941D01*
X69212402Y-122667567D01*
X69212403Y-122667570D01*
X69218323Y-122687948D01*
X69222268Y-122706996D01*
X69224928Y-122728054D01*
X69224931Y-122728065D01*
X69241737Y-122770514D01*
X69245520Y-122781563D01*
X69258254Y-122825395D01*
X69258255Y-122825397D01*
X69269060Y-122843666D01*
X69277617Y-122861134D01*
X69283226Y-122875300D01*
X69285432Y-122880872D01*
X69312266Y-122917806D01*
X69318678Y-122927568D01*
X69340104Y-122963797D01*
X69341919Y-122966865D01*
X69341923Y-122966869D01*
X69356925Y-122981871D01*
X69369563Y-122996669D01*
X69382033Y-123013833D01*
X69382036Y-123013837D01*
X69417213Y-123042937D01*
X69425854Y-123050800D01*
X71099241Y-124724187D01*
X71132726Y-124785510D01*
X71127742Y-124855202D01*
X71085870Y-124911135D01*
X71025444Y-124935088D01*
X70940749Y-124944630D01*
X70940745Y-124944631D01*
X70770476Y-125004211D01*
X70617737Y-125100184D01*
X70490184Y-125227737D01*
X70394211Y-125380476D01*
X70334631Y-125550745D01*
X70334630Y-125550749D01*
X70325088Y-125635444D01*
X70298021Y-125699858D01*
X70240426Y-125739413D01*
X70170589Y-125741550D01*
X70114187Y-125709241D01*
X66091819Y-121686873D01*
X66058334Y-121625550D01*
X66055500Y-121599192D01*
X66055500Y-121494738D01*
X66075185Y-121427699D01*
X66127989Y-121381944D01*
X66197147Y-121372000D01*
X66260703Y-121401025D01*
X66281075Y-121423615D01*
X66319954Y-121479141D01*
X66480858Y-121640045D01*
X66495867Y-121650554D01*
X66667266Y-121770568D01*
X66873504Y-121866739D01*
X66873509Y-121866740D01*
X66873511Y-121866741D01*
X66926415Y-121880916D01*
X67093308Y-121925635D01*
X67255230Y-121939801D01*
X67319998Y-121945468D01*
X67320000Y-121945468D01*
X67320002Y-121945468D01*
X67384225Y-121939849D01*
X67546692Y-121925635D01*
X67766496Y-121866739D01*
X67972734Y-121770568D01*
X68159139Y-121640047D01*
X68320047Y-121479139D01*
X68450568Y-121292734D01*
X68477618Y-121234724D01*
X68523790Y-121182285D01*
X68590983Y-121163133D01*
X68657865Y-121183348D01*
G37*
%TD.AperFunction*%
%TA.AperFunction,Conductor*%
G36*
X62967435Y-118652767D02*
G01*
X63060607Y-118707869D01*
X63074093Y-118711787D01*
X63214791Y-118752664D01*
X63214794Y-118752664D01*
X63214796Y-118752665D01*
X63250819Y-118755500D01*
X63749180Y-118755499D01*
X63785204Y-118752665D01*
X63939393Y-118707869D01*
X63939403Y-118707863D01*
X63946250Y-118704901D01*
X64015593Y-118696340D01*
X64078557Y-118726627D01*
X64115151Y-118786147D01*
X64119500Y-118818701D01*
X64119500Y-120964192D01*
X64099815Y-121031231D01*
X64083181Y-121051873D01*
X61996873Y-123138181D01*
X61935550Y-123171666D01*
X61909192Y-123174500D01*
X60256440Y-123174500D01*
X60189401Y-123154815D01*
X60143646Y-123102011D01*
X60140258Y-123093833D01*
X60098797Y-122982671D01*
X60098793Y-122982664D01*
X60012547Y-122867455D01*
X60012544Y-122867452D01*
X59897335Y-122781206D01*
X59889546Y-122776953D01*
X59891238Y-122773852D01*
X59848828Y-122742110D01*
X59824406Y-122676648D01*
X59839252Y-122608374D01*
X59864552Y-122576153D01*
X59871764Y-122569579D01*
X59994673Y-122406821D01*
X60085582Y-122224250D01*
X60141397Y-122028083D01*
X60160215Y-121825000D01*
X60149873Y-121713399D01*
X60163287Y-121644833D01*
X60185660Y-121614283D01*
X60689511Y-121110432D01*
X60702086Y-121100359D01*
X60701931Y-121100172D01*
X60707933Y-121095205D01*
X60707940Y-121095202D01*
X60755912Y-121044115D01*
X60758561Y-121041382D01*
X60778911Y-121021034D01*
X60781608Y-121017556D01*
X60789196Y-121008672D01*
X60820448Y-120975393D01*
X60830670Y-120956796D01*
X60841355Y-120940531D01*
X60854363Y-120923763D01*
X60872491Y-120881870D01*
X60877627Y-120871382D01*
X60899627Y-120831368D01*
X60904904Y-120810808D01*
X60911206Y-120792403D01*
X60919636Y-120772926D01*
X60926779Y-120727820D01*
X60929143Y-120716405D01*
X60940500Y-120672177D01*
X60940500Y-120650955D01*
X60942027Y-120631555D01*
X60943729Y-120620808D01*
X60945347Y-120610595D01*
X60941050Y-120565140D01*
X60940500Y-120553470D01*
X60940500Y-118798050D01*
X60960185Y-118731011D01*
X61012989Y-118685256D01*
X61082147Y-118675312D01*
X61127620Y-118691317D01*
X61155607Y-118707869D01*
X61169093Y-118711787D01*
X61309791Y-118752664D01*
X61309794Y-118752664D01*
X61309796Y-118752665D01*
X61345819Y-118755500D01*
X61495576Y-118755499D01*
X61518813Y-118757696D01*
X61522153Y-118758333D01*
X61553830Y-118764376D01*
X61691026Y-118755743D01*
X61698811Y-118755499D01*
X61844168Y-118755499D01*
X61844180Y-118755499D01*
X61880204Y-118752665D01*
X62034393Y-118707869D01*
X62127564Y-118652767D01*
X62190685Y-118635500D01*
X62904315Y-118635500D01*
X62967435Y-118652767D01*
G37*
%TD.AperFunction*%
%TA.AperFunction,Conductor*%
G36*
X94792539Y-109640185D02*
G01*
X94838294Y-109692989D01*
X94849500Y-109744500D01*
X94849500Y-132825500D01*
X94829815Y-132892539D01*
X94777011Y-132938294D01*
X94725500Y-132949500D01*
X51324500Y-132949500D01*
X51257461Y-132929815D01*
X51211706Y-132877011D01*
X51200500Y-132825500D01*
X51200500Y-130048005D01*
X51696754Y-130048005D01*
X51715718Y-130349446D01*
X51715719Y-130349453D01*
X51744019Y-130497808D01*
X51761198Y-130587864D01*
X51772320Y-130646164D01*
X51865659Y-130933431D01*
X51865661Y-130933436D01*
X51994265Y-131206732D01*
X51994268Y-131206738D01*
X52156111Y-131461763D01*
X52156114Y-131461767D01*
X52156115Y-131461768D01*
X52237792Y-131560499D01*
X52348652Y-131694505D01*
X52568836Y-131901272D01*
X52568846Y-131901280D01*
X52813193Y-132078808D01*
X52813198Y-132078810D01*
X52813205Y-132078816D01*
X53077896Y-132224332D01*
X53077901Y-132224334D01*
X53077903Y-132224335D01*
X53077904Y-132224336D01*
X53358734Y-132335524D01*
X53358737Y-132335525D01*
X53432992Y-132354590D01*
X53651302Y-132410642D01*
X53798039Y-132429179D01*
X53950963Y-132448499D01*
X53950969Y-132448499D01*
X53950973Y-132448500D01*
X53950975Y-132448500D01*
X54253025Y-132448500D01*
X54253027Y-132448500D01*
X54253032Y-132448499D01*
X54253036Y-132448499D01*
X54332591Y-132438448D01*
X54552698Y-132410642D01*
X54845262Y-132335525D01*
X54845265Y-132335524D01*
X55126095Y-132224336D01*
X55126096Y-132224335D01*
X55126094Y-132224335D01*
X55126104Y-132224332D01*
X55390795Y-132078816D01*
X55635162Y-131901274D01*
X55855349Y-131694504D01*
X56047885Y-131461768D01*
X56209733Y-131206736D01*
X56338341Y-130933430D01*
X56431681Y-130646160D01*
X56488280Y-130349457D01*
X56488680Y-130343097D01*
X56507246Y-130048005D01*
X56507246Y-130047994D01*
X56488281Y-129746553D01*
X56488280Y-129746546D01*
X56488280Y-129746543D01*
X56431681Y-129449840D01*
X56338341Y-129162570D01*
X56209733Y-128889264D01*
X56146421Y-128789500D01*
X56047888Y-128634236D01*
X56047885Y-128634232D01*
X55855349Y-128401496D01*
X55854043Y-128400270D01*
X55639506Y-128198805D01*
X55635162Y-128194726D01*
X55635159Y-128194724D01*
X55635153Y-128194719D01*
X55390806Y-128017191D01*
X55390799Y-128017186D01*
X55390795Y-128017184D01*
X55126104Y-127871668D01*
X55126101Y-127871666D01*
X55126096Y-127871664D01*
X55126095Y-127871663D01*
X54845265Y-127760475D01*
X54845262Y-127760474D01*
X54552695Y-127685357D01*
X54253036Y-127647500D01*
X54253027Y-127647500D01*
X53950973Y-127647500D01*
X53950963Y-127647500D01*
X53651304Y-127685357D01*
X53358737Y-127760474D01*
X53358734Y-127760475D01*
X53077904Y-127871663D01*
X53077903Y-127871664D01*
X52813205Y-128017184D01*
X52813193Y-128017191D01*
X52568846Y-128194719D01*
X52568836Y-128194727D01*
X52348652Y-128401494D01*
X52156111Y-128634236D01*
X51994268Y-128889261D01*
X51994265Y-128889267D01*
X51865661Y-129162563D01*
X51865659Y-129162568D01*
X51772320Y-129449835D01*
X51715719Y-129746546D01*
X51715718Y-129746553D01*
X51696754Y-130047994D01*
X51696754Y-130048005D01*
X51200500Y-130048005D01*
X51200500Y-122170000D01*
X51735840Y-122170000D01*
X51776652Y-122304541D01*
X51869503Y-122478253D01*
X51869507Y-122478260D01*
X51994471Y-122630528D01*
X52146739Y-122755491D01*
X52320465Y-122848349D01*
X52455000Y-122889159D01*
X52455000Y-122170000D01*
X51735840Y-122170000D01*
X51200500Y-122170000D01*
X51200500Y-121197870D01*
X51704500Y-121197870D01*
X51704501Y-121197876D01*
X51710908Y-121257483D01*
X51761202Y-121392328D01*
X51761206Y-121392335D01*
X51767561Y-121400824D01*
X51791979Y-121466288D01*
X51778495Y-121529636D01*
X51778981Y-121529838D01*
X51777894Y-121532461D01*
X51777655Y-121533586D01*
X51776650Y-121535464D01*
X51735839Y-121669999D01*
X51735840Y-121670000D01*
X52490517Y-121670000D01*
X52419199Y-121754993D01*
X52380000Y-121862694D01*
X52380000Y-121977306D01*
X52419199Y-122085007D01*
X52492871Y-122172805D01*
X52592129Y-122230112D01*
X52676564Y-122245000D01*
X52733436Y-122245000D01*
X52817871Y-122230112D01*
X52917129Y-122172805D01*
X52919483Y-122170000D01*
X52955000Y-122170000D01*
X52955000Y-122889159D01*
X53089534Y-122848349D01*
X53263260Y-122755491D01*
X53415528Y-122630528D01*
X53540492Y-122478260D01*
X53540496Y-122478253D01*
X53633347Y-122304541D01*
X53674160Y-122170000D01*
X52955000Y-122170000D01*
X52919483Y-122170000D01*
X52990801Y-122085007D01*
X53030000Y-121977306D01*
X53030000Y-121862694D01*
X52990801Y-121754993D01*
X52919483Y-121670000D01*
X53674160Y-121670000D01*
X53674160Y-121669999D01*
X53633348Y-121535462D01*
X53632345Y-121533585D01*
X53632115Y-121532483D01*
X53631018Y-121529833D01*
X53631520Y-121529624D01*
X53618105Y-121465182D01*
X53642440Y-121400821D01*
X53648793Y-121392335D01*
X53648796Y-121392331D01*
X53652960Y-121381165D01*
X53694829Y-121325234D01*
X53760293Y-121300816D01*
X53769141Y-121300500D01*
X54399495Y-121300500D01*
X54415505Y-121302267D01*
X54415528Y-121302026D01*
X54423289Y-121302758D01*
X54423296Y-121302760D01*
X54493262Y-121300560D01*
X54497157Y-121300500D01*
X54525925Y-121300500D01*
X54530287Y-121299948D01*
X54541931Y-121299030D01*
X54558413Y-121298512D01*
X54626035Y-121316080D01*
X54673427Y-121367419D01*
X54685540Y-121436231D01*
X54676110Y-121471696D01*
X54662509Y-121503127D01*
X54657369Y-121513619D01*
X54635372Y-121553630D01*
X54635372Y-121553631D01*
X54630091Y-121574199D01*
X54623791Y-121592601D01*
X54615364Y-121612073D01*
X54608223Y-121657162D01*
X54605854Y-121668600D01*
X54594500Y-121712817D01*
X54594500Y-121734044D01*
X54592973Y-121753444D01*
X54590261Y-121770568D01*
X54589653Y-121774405D01*
X54590427Y-121782592D01*
X54593950Y-121819858D01*
X54594500Y-121831528D01*
X54594500Y-126279494D01*
X54592732Y-126295505D01*
X54592974Y-126295528D01*
X54592240Y-126303294D01*
X54594439Y-126373262D01*
X54594500Y-126377157D01*
X54594500Y-126405920D01*
X54594501Y-126405938D01*
X54595053Y-126410311D01*
X54595968Y-126421941D01*
X54597402Y-126467567D01*
X54597403Y-126467570D01*
X54603323Y-126487948D01*
X54607268Y-126506996D01*
X54609928Y-126528054D01*
X54609931Y-126528065D01*
X54626737Y-126570514D01*
X54630520Y-126581563D01*
X54643254Y-126625395D01*
X54643255Y-126625397D01*
X54654060Y-126643666D01*
X54662617Y-126661134D01*
X54668226Y-126675300D01*
X54670432Y-126680872D01*
X54697266Y-126717806D01*
X54703678Y-126727568D01*
X54716707Y-126749599D01*
X54726919Y-126766865D01*
X54726923Y-126766869D01*
X54741925Y-126781871D01*
X54754563Y-126796669D01*
X54767033Y-126813833D01*
X54767036Y-126813837D01*
X54802213Y-126842937D01*
X54810854Y-126850800D01*
X57602163Y-129642109D01*
X57612234Y-129654679D01*
X57612421Y-129654525D01*
X57617394Y-129660536D01*
X57668431Y-129708463D01*
X57671228Y-129711174D01*
X57691567Y-129731513D01*
X57695050Y-129734215D01*
X57703926Y-129741796D01*
X57708985Y-129746546D01*
X57737206Y-129773047D01*
X57755797Y-129783267D01*
X57772062Y-129793951D01*
X57788833Y-129806960D01*
X57788836Y-129806962D01*
X57830743Y-129825096D01*
X57841217Y-129830227D01*
X57881231Y-129852226D01*
X57881238Y-129852227D01*
X57883821Y-129853251D01*
X57885550Y-129854600D01*
X57888069Y-129855985D01*
X57887845Y-129856391D01*
X57938909Y-129896229D01*
X57956803Y-129943079D01*
X57959124Y-129942531D01*
X57960907Y-129950078D01*
X58011202Y-130084927D01*
X58011206Y-130084934D01*
X58097452Y-130200143D01*
X58097455Y-130200146D01*
X58212664Y-130286392D01*
X58212671Y-130286396D01*
X58347517Y-130336690D01*
X58347516Y-130336690D01*
X58354444Y-130337434D01*
X58407127Y-130343099D01*
X59702872Y-130343098D01*
X59762483Y-130336690D01*
X59897331Y-130286395D01*
X60012546Y-130200145D01*
X60098796Y-130084930D01*
X60149091Y-129950082D01*
X60155500Y-129890472D01*
X60155499Y-128594727D01*
X60149091Y-128535116D01*
X60139723Y-128510000D01*
X60098797Y-128400270D01*
X60098793Y-128400263D01*
X60012547Y-128285054D01*
X60012544Y-128285051D01*
X59897335Y-128198805D01*
X59897328Y-128198801D01*
X59762482Y-128148507D01*
X59762483Y-128148507D01*
X59702883Y-128142100D01*
X59702881Y-128142099D01*
X59702873Y-128142099D01*
X59702865Y-128142099D01*
X59652308Y-128142099D01*
X59585269Y-128122414D01*
X59564627Y-128105780D01*
X59055001Y-127596152D01*
X59055000Y-127596152D01*
X58545370Y-128105780D01*
X58484047Y-128139265D01*
X58457691Y-128142099D01*
X58407130Y-128142099D01*
X58407123Y-128142100D01*
X58347516Y-128148507D01*
X58212671Y-128198801D01*
X58212665Y-128198805D01*
X58176345Y-128225994D01*
X58110881Y-128250411D01*
X58042608Y-128235559D01*
X58014354Y-128214408D01*
X57042545Y-127242599D01*
X57950287Y-127242599D01*
X57969096Y-127445588D01*
X57969097Y-127445591D01*
X58024883Y-127641662D01*
X58024886Y-127641668D01*
X58115751Y-127824150D01*
X58117533Y-127826510D01*
X58701446Y-127242599D01*
X58673286Y-127214439D01*
X58751105Y-127214439D01*
X58761454Y-127326120D01*
X58811448Y-127426521D01*
X58894334Y-127502083D01*
X58998920Y-127542599D01*
X59082802Y-127542599D01*
X59165250Y-127527187D01*
X59260610Y-127468142D01*
X59328201Y-127378637D01*
X59358895Y-127270759D01*
X59356286Y-127242599D01*
X59408553Y-127242599D01*
X59992465Y-127826511D01*
X59994247Y-127824152D01*
X59994248Y-127824150D01*
X60085113Y-127641668D01*
X60085116Y-127641662D01*
X60140902Y-127445591D01*
X60140903Y-127445588D01*
X60159713Y-127242599D01*
X60159713Y-127242598D01*
X60140903Y-127039609D01*
X60140902Y-127039606D01*
X60085116Y-126843535D01*
X60085113Y-126843529D01*
X59994249Y-126661048D01*
X59994247Y-126661046D01*
X59992465Y-126658686D01*
X59408553Y-127242599D01*
X59356286Y-127242599D01*
X59348546Y-127159078D01*
X59298552Y-127058677D01*
X59215666Y-126983115D01*
X59111080Y-126942599D01*
X59027198Y-126942599D01*
X58944750Y-126958011D01*
X58849390Y-127017056D01*
X58781799Y-127106561D01*
X58751105Y-127214439D01*
X58673286Y-127214439D01*
X58117533Y-126658686D01*
X58115755Y-126661041D01*
X58115754Y-126661042D01*
X58024886Y-126843529D01*
X58024883Y-126843535D01*
X57969097Y-127039606D01*
X57969096Y-127039609D01*
X57950287Y-127242598D01*
X57950287Y-127242599D01*
X57042545Y-127242599D01*
X56108303Y-126308357D01*
X58474311Y-126308357D01*
X59055000Y-126889045D01*
X59055001Y-126889045D01*
X59635687Y-126308357D01*
X59547413Y-126253700D01*
X59547411Y-126253699D01*
X59357321Y-126180059D01*
X59156928Y-126142599D01*
X58953072Y-126142599D01*
X58752678Y-126180059D01*
X58562588Y-126253699D01*
X58562581Y-126253703D01*
X58474312Y-126308356D01*
X58474311Y-126308357D01*
X56108303Y-126308357D01*
X55931819Y-126131873D01*
X55898334Y-126070550D01*
X55895500Y-126044192D01*
X55895500Y-122115807D01*
X55915185Y-122048768D01*
X55931814Y-122028131D01*
X59168127Y-118791817D01*
X59229450Y-118758333D01*
X59255808Y-118755499D01*
X59304168Y-118755499D01*
X59304180Y-118755499D01*
X59340204Y-118752665D01*
X59480907Y-118711787D01*
X59550774Y-118711986D01*
X59609444Y-118749928D01*
X59638288Y-118813566D01*
X59639500Y-118830863D01*
X59639500Y-120269191D01*
X59619815Y-120336230D01*
X59603181Y-120356872D01*
X59269395Y-120690657D01*
X59208072Y-120724142D01*
X59162702Y-120724810D01*
X59162682Y-120725029D01*
X59160650Y-120724840D01*
X59158939Y-120724866D01*
X59156986Y-120724501D01*
X59156977Y-120724500D01*
X59156976Y-120724500D01*
X58953024Y-120724500D01*
X58752544Y-120761976D01*
X58752541Y-120761976D01*
X58752541Y-120761977D01*
X58562364Y-120835651D01*
X58562357Y-120835655D01*
X58388960Y-120943017D01*
X58388958Y-120943019D01*
X58238237Y-121080418D01*
X58115327Y-121243178D01*
X58024422Y-121425739D01*
X58024417Y-121425752D01*
X57968602Y-121621917D01*
X57949785Y-121824999D01*
X57949785Y-121825000D01*
X57968602Y-122028082D01*
X58024417Y-122224247D01*
X58024422Y-122224260D01*
X58096411Y-122368833D01*
X58115327Y-122406821D01*
X58238236Y-122569579D01*
X58245448Y-122576154D01*
X58281729Y-122635864D01*
X58279969Y-122705712D01*
X58240726Y-122763520D01*
X58219729Y-122775626D01*
X58220454Y-122776953D01*
X58212664Y-122781206D01*
X58097455Y-122867452D01*
X58097452Y-122867455D01*
X58011206Y-122982664D01*
X58011202Y-122982671D01*
X57960908Y-123117517D01*
X57954501Y-123177116D01*
X57954500Y-123177135D01*
X57954500Y-124472870D01*
X57954501Y-124472876D01*
X57960908Y-124532483D01*
X58011202Y-124667328D01*
X58011206Y-124667335D01*
X58097452Y-124782544D01*
X58097455Y-124782547D01*
X58212664Y-124868793D01*
X58212671Y-124868797D01*
X58347517Y-124919091D01*
X58347516Y-124919091D01*
X58354444Y-124919835D01*
X58407127Y-124925500D01*
X59702872Y-124925499D01*
X59762483Y-124919091D01*
X59897331Y-124868796D01*
X60012546Y-124782546D01*
X60098796Y-124667331D01*
X60114881Y-124624204D01*
X60140258Y-124556167D01*
X60182129Y-124500233D01*
X60247593Y-124475816D01*
X60256440Y-124475500D01*
X61909192Y-124475500D01*
X61976231Y-124495185D01*
X61996873Y-124511819D01*
X65983181Y-128498127D01*
X66016666Y-128559450D01*
X66019500Y-128585808D01*
X66019500Y-129107870D01*
X66019501Y-129107876D01*
X66025908Y-129167483D01*
X66076202Y-129302328D01*
X66076206Y-129302335D01*
X66162452Y-129417544D01*
X66162455Y-129417547D01*
X66277664Y-129503793D01*
X66277671Y-129503797D01*
X66412517Y-129554091D01*
X66412516Y-129554091D01*
X66467072Y-129559957D01*
X66531623Y-129586695D01*
X66571471Y-129644088D01*
X66577344Y-129672436D01*
X66580000Y-129702792D01*
X66581461Y-129709867D01*
X66581403Y-129709878D01*
X66583034Y-129717237D01*
X66583092Y-129717224D01*
X66584757Y-129724249D01*
X66584758Y-129724254D01*
X66584759Y-129724255D01*
X66610125Y-129793951D01*
X66610400Y-129794705D01*
X66611582Y-129798107D01*
X66635182Y-129869326D01*
X66638236Y-129875874D01*
X66638182Y-129875898D01*
X66641470Y-129882688D01*
X66641521Y-129882663D01*
X66644761Y-129889114D01*
X66685979Y-129951784D01*
X66687889Y-129954782D01*
X66712578Y-129994807D01*
X66727289Y-130018658D01*
X66731766Y-130024319D01*
X66731719Y-130024356D01*
X66736482Y-130030202D01*
X66736528Y-130030164D01*
X66741173Y-130035699D01*
X66795707Y-130087149D01*
X66798295Y-130089663D01*
X68004270Y-131295638D01*
X68016051Y-131309270D01*
X68030388Y-131328528D01*
X68030389Y-131328529D01*
X68030390Y-131328530D01*
X68037253Y-131334289D01*
X68068337Y-131360372D01*
X68076310Y-131367679D01*
X68080217Y-131371586D01*
X68080223Y-131371591D01*
X68104537Y-131390816D01*
X68107318Y-131393080D01*
X68134956Y-131416271D01*
X68164789Y-131441305D01*
X68170818Y-131445270D01*
X68170785Y-131445319D01*
X68177147Y-131449372D01*
X68177179Y-131449321D01*
X68183319Y-131453108D01*
X68183323Y-131453111D01*
X68201888Y-131461768D01*
X68251320Y-131484819D01*
X68254566Y-131486391D01*
X68321562Y-131520038D01*
X68328357Y-131522511D01*
X68328336Y-131522567D01*
X68335455Y-131525042D01*
X68335474Y-131524986D01*
X68342323Y-131527256D01*
X68342326Y-131527256D01*
X68342327Y-131527257D01*
X68415815Y-131542429D01*
X68419307Y-131543204D01*
X68492279Y-131560500D01*
X68492281Y-131560500D01*
X68499452Y-131561339D01*
X68499445Y-131561397D01*
X68506946Y-131562163D01*
X68506952Y-131562104D01*
X68514141Y-131562733D01*
X68514143Y-131562732D01*
X68514144Y-131562733D01*
X68589111Y-131560552D01*
X68592717Y-131560500D01*
X78676295Y-131560500D01*
X78694265Y-131561809D01*
X78718023Y-131565289D01*
X78767369Y-131560971D01*
X78778176Y-131560500D01*
X78783704Y-131560500D01*
X78783709Y-131560500D01*
X78814556Y-131556893D01*
X78818030Y-131556539D01*
X78892797Y-131549999D01*
X78892805Y-131549996D01*
X78899866Y-131548539D01*
X78899878Y-131548598D01*
X78907243Y-131546965D01*
X78907229Y-131546906D01*
X78914249Y-131545241D01*
X78914255Y-131545241D01*
X78984779Y-131519572D01*
X78988117Y-131518412D01*
X79059334Y-131494814D01*
X79059342Y-131494808D01*
X79065882Y-131491760D01*
X79065908Y-131491816D01*
X79072690Y-131488532D01*
X79072663Y-131488478D01*
X79079113Y-131485238D01*
X79079117Y-131485237D01*
X79141837Y-131443984D01*
X79144732Y-131442140D01*
X79208656Y-131402712D01*
X79208662Y-131402705D01*
X79214325Y-131398229D01*
X79214362Y-131398277D01*
X79220204Y-131393518D01*
X79220164Y-131393471D01*
X79225686Y-131388835D01*
X79225696Y-131388830D01*
X79277185Y-131334253D01*
X79279632Y-131331734D01*
X79534549Y-131076818D01*
X79595872Y-131043333D01*
X79622230Y-131040499D01*
X81057871Y-131040499D01*
X81057872Y-131040499D01*
X81117483Y-131034091D01*
X81252331Y-130983796D01*
X81367546Y-130897546D01*
X81453796Y-130782331D01*
X81504091Y-130647483D01*
X81510500Y-130587873D01*
X81510500Y-130414500D01*
X81530185Y-130347461D01*
X81582989Y-130301706D01*
X81634500Y-130290500D01*
X83756295Y-130290500D01*
X83774265Y-130291809D01*
X83798023Y-130295289D01*
X83847369Y-130290971D01*
X83858176Y-130290500D01*
X83863704Y-130290500D01*
X83863709Y-130290500D01*
X83894556Y-130286893D01*
X83898030Y-130286539D01*
X83972797Y-130279999D01*
X83972805Y-130279996D01*
X83979866Y-130278539D01*
X83979878Y-130278598D01*
X83987243Y-130276965D01*
X83987229Y-130276906D01*
X83994249Y-130275241D01*
X83994255Y-130275241D01*
X84064779Y-130249572D01*
X84068117Y-130248412D01*
X84139334Y-130224814D01*
X84139342Y-130224808D01*
X84145882Y-130221760D01*
X84145908Y-130221816D01*
X84152690Y-130218532D01*
X84152663Y-130218478D01*
X84159113Y-130215238D01*
X84159117Y-130215237D01*
X84221837Y-130173984D01*
X84224732Y-130172140D01*
X84288656Y-130132712D01*
X84288662Y-130132705D01*
X84294325Y-130128229D01*
X84294363Y-130128277D01*
X84300200Y-130123522D01*
X84300161Y-130123475D01*
X84305691Y-130118833D01*
X84305696Y-130118830D01*
X84357184Y-130064254D01*
X84359631Y-130061735D01*
X84373361Y-130048005D01*
X89034754Y-130048005D01*
X89053718Y-130349446D01*
X89053719Y-130349453D01*
X89082019Y-130497808D01*
X89099198Y-130587864D01*
X89110320Y-130646164D01*
X89203659Y-130933431D01*
X89203661Y-130933436D01*
X89332265Y-131206732D01*
X89332268Y-131206738D01*
X89494111Y-131461763D01*
X89494114Y-131461767D01*
X89494115Y-131461768D01*
X89575792Y-131560499D01*
X89686652Y-131694505D01*
X89906836Y-131901272D01*
X89906846Y-131901280D01*
X90151193Y-132078808D01*
X90151198Y-132078810D01*
X90151205Y-132078816D01*
X90415896Y-132224332D01*
X90415901Y-132224334D01*
X90415903Y-132224335D01*
X90415904Y-132224336D01*
X90696734Y-132335524D01*
X90696737Y-132335525D01*
X90770992Y-132354590D01*
X90989302Y-132410642D01*
X91136039Y-132429179D01*
X91288963Y-132448499D01*
X91288969Y-132448499D01*
X91288973Y-132448500D01*
X91288975Y-132448500D01*
X91591025Y-132448500D01*
X91591027Y-132448500D01*
X91591032Y-132448499D01*
X91591036Y-132448499D01*
X91670591Y-132438448D01*
X91890698Y-132410642D01*
X92183262Y-132335525D01*
X92183265Y-132335524D01*
X92464095Y-132224336D01*
X92464096Y-132224335D01*
X92464094Y-132224335D01*
X92464104Y-132224332D01*
X92728795Y-132078816D01*
X92973162Y-131901274D01*
X93193349Y-131694504D01*
X93385885Y-131461768D01*
X93547733Y-131206736D01*
X93676341Y-130933430D01*
X93769681Y-130646160D01*
X93826280Y-130349457D01*
X93826680Y-130343097D01*
X93845246Y-130048005D01*
X93845246Y-130047994D01*
X93826281Y-129746553D01*
X93826280Y-129746546D01*
X93826280Y-129746543D01*
X93769681Y-129449840D01*
X93676341Y-129162570D01*
X93547733Y-128889264D01*
X93484421Y-128789500D01*
X93385888Y-128634236D01*
X93385885Y-128634232D01*
X93193349Y-128401496D01*
X93192043Y-128400270D01*
X92977506Y-128198805D01*
X92973162Y-128194726D01*
X92973159Y-128194724D01*
X92973153Y-128194719D01*
X92728806Y-128017191D01*
X92728799Y-128017186D01*
X92728795Y-128017184D01*
X92464104Y-127871668D01*
X92464101Y-127871666D01*
X92464096Y-127871664D01*
X92464095Y-127871663D01*
X92183265Y-127760475D01*
X92183262Y-127760474D01*
X91890695Y-127685357D01*
X91591036Y-127647500D01*
X91591027Y-127647500D01*
X91288973Y-127647500D01*
X91288963Y-127647500D01*
X90989304Y-127685357D01*
X90696737Y-127760474D01*
X90696734Y-127760475D01*
X90415904Y-127871663D01*
X90415903Y-127871664D01*
X90151205Y-128017184D01*
X90151193Y-128017191D01*
X89906846Y-128194719D01*
X89906836Y-128194727D01*
X89686652Y-128401494D01*
X89494111Y-128634236D01*
X89332268Y-128889261D01*
X89332265Y-128889267D01*
X89203661Y-129162563D01*
X89203659Y-129162568D01*
X89110320Y-129449835D01*
X89053719Y-129746546D01*
X89053718Y-129746553D01*
X89034754Y-130047994D01*
X89034754Y-130048005D01*
X84373361Y-130048005D01*
X89385642Y-125035724D01*
X89399271Y-125023947D01*
X89404573Y-125020000D01*
X89418530Y-125009610D01*
X89450360Y-124971676D01*
X89457677Y-124963691D01*
X89461587Y-124959781D01*
X89461587Y-124959780D01*
X89461591Y-124959777D01*
X89480833Y-124935438D01*
X89483069Y-124932693D01*
X89531302Y-124875214D01*
X89531307Y-124875203D01*
X89535274Y-124869175D01*
X89535325Y-124869208D01*
X89539372Y-124862856D01*
X89539320Y-124862824D01*
X89543108Y-124856680D01*
X89543111Y-124856677D01*
X89574821Y-124788673D01*
X89576362Y-124785488D01*
X89610040Y-124718433D01*
X89610043Y-124718417D01*
X89612509Y-124711646D01*
X89612567Y-124711667D01*
X89615043Y-124704546D01*
X89614986Y-124704528D01*
X89617256Y-124697677D01*
X89617257Y-124697673D01*
X89632447Y-124624102D01*
X89633179Y-124620798D01*
X89650500Y-124547721D01*
X89650500Y-124547712D01*
X89651338Y-124540548D01*
X89651398Y-124540555D01*
X89652164Y-124533055D01*
X89652105Y-124533050D01*
X89652734Y-124525860D01*
X89652325Y-124511819D01*
X89650552Y-124450869D01*
X89650500Y-124447262D01*
X89650500Y-122170000D01*
X91740840Y-122170000D01*
X91781652Y-122304541D01*
X91874503Y-122478253D01*
X91874507Y-122478260D01*
X91999471Y-122630528D01*
X92151739Y-122755491D01*
X92325465Y-122848349D01*
X92460000Y-122889159D01*
X92460000Y-122170000D01*
X91740840Y-122170000D01*
X89650500Y-122170000D01*
X89650500Y-121348705D01*
X89651809Y-121330735D01*
X89653454Y-121319506D01*
X89655289Y-121306977D01*
X89654722Y-121300500D01*
X89650972Y-121257635D01*
X89650500Y-121246826D01*
X89650500Y-121241296D01*
X89650500Y-121241291D01*
X89646894Y-121210443D01*
X89646534Y-121206916D01*
X89645743Y-121197876D01*
X89639998Y-121132203D01*
X89639997Y-121132201D01*
X89638538Y-121125135D01*
X89638598Y-121125122D01*
X89636965Y-121117757D01*
X89636906Y-121117772D01*
X89635241Y-121110751D01*
X89635241Y-121110745D01*
X89609569Y-121040211D01*
X89608422Y-121036913D01*
X89584814Y-120965665D01*
X89584809Y-120965658D01*
X89581761Y-120959118D01*
X89581815Y-120959092D01*
X89578533Y-120952312D01*
X89578480Y-120952340D01*
X89575238Y-120945885D01*
X89571717Y-120940531D01*
X89534026Y-120883225D01*
X89532107Y-120880212D01*
X89492714Y-120816347D01*
X89488234Y-120810681D01*
X89488280Y-120810643D01*
X89483519Y-120804799D01*
X89483474Y-120804838D01*
X89478831Y-120799305D01*
X89424290Y-120747848D01*
X89421703Y-120745335D01*
X88205729Y-119529361D01*
X88193949Y-119515730D01*
X88179610Y-119496470D01*
X88141651Y-119464619D01*
X88133686Y-119457318D01*
X88129780Y-119453411D01*
X88105443Y-119434168D01*
X88102647Y-119431890D01*
X88045214Y-119383698D01*
X88039180Y-119379729D01*
X88039212Y-119379680D01*
X88032853Y-119375628D01*
X88032822Y-119375679D01*
X88026680Y-119371891D01*
X88026678Y-119371890D01*
X88026677Y-119371889D01*
X87958688Y-119340184D01*
X87955447Y-119338615D01*
X87924530Y-119323088D01*
X87888433Y-119304960D01*
X87888431Y-119304959D01*
X87888430Y-119304959D01*
X87881645Y-119302489D01*
X87881665Y-119302433D01*
X87874549Y-119299959D01*
X87874531Y-119300015D01*
X87867674Y-119297743D01*
X87794210Y-119282573D01*
X87790693Y-119281793D01*
X87717718Y-119264499D01*
X87710547Y-119263661D01*
X87710553Y-119263601D01*
X87703055Y-119262835D01*
X87703050Y-119262895D01*
X87695860Y-119262265D01*
X87620870Y-119264448D01*
X87617263Y-119264500D01*
X87417828Y-119264500D01*
X87350789Y-119244815D01*
X87305034Y-119192011D01*
X87295090Y-119122853D01*
X87318562Y-119066189D01*
X87403793Y-118952335D01*
X87403792Y-118952335D01*
X87403796Y-118952331D01*
X87418865Y-118911929D01*
X87445258Y-118841167D01*
X87487129Y-118785233D01*
X87552593Y-118760816D01*
X87561440Y-118760500D01*
X89849192Y-118760500D01*
X89916231Y-118780185D01*
X89936873Y-118796819D01*
X91673181Y-120533127D01*
X91706666Y-120594450D01*
X91709500Y-120620808D01*
X91709500Y-121197870D01*
X91709501Y-121197876D01*
X91715908Y-121257483D01*
X91766202Y-121392328D01*
X91766206Y-121392335D01*
X91772561Y-121400824D01*
X91796979Y-121466288D01*
X91783495Y-121529636D01*
X91783981Y-121529838D01*
X91782894Y-121532461D01*
X91782655Y-121533586D01*
X91781650Y-121535464D01*
X91740839Y-121669999D01*
X91740840Y-121670000D01*
X92495517Y-121670000D01*
X92424199Y-121754993D01*
X92385000Y-121862694D01*
X92385000Y-121977306D01*
X92424199Y-122085007D01*
X92497871Y-122172805D01*
X92597129Y-122230112D01*
X92681564Y-122245000D01*
X92738436Y-122245000D01*
X92822871Y-122230112D01*
X92922129Y-122172805D01*
X92924483Y-122170000D01*
X92960000Y-122170000D01*
X92960000Y-122889159D01*
X93094534Y-122848349D01*
X93268260Y-122755491D01*
X93420528Y-122630528D01*
X93545492Y-122478260D01*
X93545496Y-122478253D01*
X93638347Y-122304541D01*
X93679160Y-122170000D01*
X92960000Y-122170000D01*
X92924483Y-122170000D01*
X92995801Y-122085007D01*
X93035000Y-121977306D01*
X93035000Y-121862694D01*
X92995801Y-121754993D01*
X92924483Y-121670000D01*
X93679160Y-121670000D01*
X93679160Y-121669999D01*
X93638348Y-121535462D01*
X93637345Y-121533585D01*
X93637115Y-121532483D01*
X93636018Y-121529833D01*
X93636520Y-121529624D01*
X93623105Y-121465182D01*
X93647440Y-121400821D01*
X93653796Y-121392331D01*
X93655087Y-121388871D01*
X93676770Y-121330735D01*
X93704091Y-121257483D01*
X93710500Y-121197873D01*
X93710499Y-120102128D01*
X93705299Y-120053757D01*
X93704091Y-120042516D01*
X93653797Y-119907671D01*
X93653793Y-119907664D01*
X93567547Y-119792455D01*
X93567544Y-119792452D01*
X93452335Y-119706206D01*
X93452328Y-119706202D01*
X93317482Y-119655908D01*
X93317483Y-119655908D01*
X93257883Y-119649501D01*
X93257881Y-119649500D01*
X93257873Y-119649500D01*
X93257865Y-119649500D01*
X92680808Y-119649500D01*
X92613769Y-119629815D01*
X92593127Y-119613181D01*
X90690434Y-117710488D01*
X90680361Y-117697914D01*
X90680174Y-117698070D01*
X90675198Y-117692054D01*
X90624167Y-117644134D01*
X90621369Y-117641423D01*
X90601035Y-117621089D01*
X90597548Y-117618384D01*
X90588669Y-117610800D01*
X90555396Y-117579554D01*
X90555388Y-117579548D01*
X90536792Y-117569325D01*
X90520531Y-117558644D01*
X90503763Y-117545637D01*
X90483653Y-117536935D01*
X90461853Y-117527501D01*
X90451394Y-117522377D01*
X90411368Y-117500373D01*
X90411365Y-117500372D01*
X90390801Y-117495092D01*
X90372396Y-117488790D01*
X90352927Y-117480365D01*
X90352921Y-117480363D01*
X90307837Y-117473223D01*
X90296398Y-117470854D01*
X90252180Y-117459500D01*
X90252177Y-117459500D01*
X90230955Y-117459500D01*
X90211555Y-117457973D01*
X90190596Y-117454653D01*
X90190595Y-117454653D01*
X90147822Y-117458696D01*
X90145140Y-117458950D01*
X90133470Y-117459500D01*
X87561440Y-117459500D01*
X87494401Y-117439815D01*
X87448646Y-117387011D01*
X87445258Y-117378833D01*
X87403797Y-117267671D01*
X87403793Y-117267664D01*
X87317547Y-117152455D01*
X87317544Y-117152452D01*
X87202335Y-117066206D01*
X87194546Y-117061953D01*
X87196238Y-117058852D01*
X87153828Y-117027110D01*
X87129406Y-116961648D01*
X87144252Y-116893374D01*
X87169552Y-116861153D01*
X87176764Y-116854579D01*
X87299673Y-116691821D01*
X87390582Y-116509250D01*
X87446397Y-116313083D01*
X87465215Y-116110000D01*
X87446397Y-115906917D01*
X87390582Y-115710750D01*
X87389147Y-115707869D01*
X87334890Y-115598905D01*
X87299673Y-115528179D01*
X87193502Y-115387586D01*
X87176762Y-115365418D01*
X87026041Y-115228019D01*
X87026039Y-115228017D01*
X86852642Y-115120655D01*
X86852635Y-115120651D01*
X86734289Y-115074804D01*
X86662456Y-115046976D01*
X86461976Y-115009500D01*
X86258024Y-115009500D01*
X86258020Y-115009500D01*
X86256053Y-115009868D01*
X86255098Y-115009771D01*
X86252318Y-115010029D01*
X86252267Y-115009484D01*
X86186539Y-115002828D01*
X86145603Y-114975657D01*
X86086434Y-114916488D01*
X86076361Y-114903914D01*
X86076174Y-114904070D01*
X86071198Y-114898054D01*
X86020167Y-114850134D01*
X86017369Y-114847423D01*
X85997035Y-114827089D01*
X85993548Y-114824384D01*
X85984669Y-114816800D01*
X85951396Y-114785554D01*
X85951388Y-114785548D01*
X85932792Y-114775325D01*
X85916531Y-114764644D01*
X85899763Y-114751637D01*
X85883409Y-114744560D01*
X85857853Y-114733501D01*
X85847394Y-114728377D01*
X85807368Y-114706373D01*
X85807365Y-114706372D01*
X85786801Y-114701092D01*
X85768396Y-114694790D01*
X85748927Y-114686365D01*
X85748921Y-114686363D01*
X85703837Y-114679223D01*
X85692398Y-114676854D01*
X85648180Y-114665500D01*
X85648177Y-114665500D01*
X85626955Y-114665500D01*
X85607555Y-114663973D01*
X85586596Y-114660653D01*
X85586595Y-114660653D01*
X85543822Y-114664696D01*
X85541140Y-114664950D01*
X85529470Y-114665500D01*
X81365504Y-114665500D01*
X81349493Y-114663732D01*
X81349471Y-114663974D01*
X81341704Y-114663240D01*
X81341703Y-114663240D01*
X81271737Y-114665439D01*
X81267842Y-114665500D01*
X81239075Y-114665500D01*
X81239072Y-114665500D01*
X81239057Y-114665501D01*
X81234687Y-114666053D01*
X81223059Y-114666968D01*
X81177435Y-114668402D01*
X81177425Y-114668404D01*
X81157049Y-114674323D01*
X81138008Y-114678266D01*
X81116953Y-114680926D01*
X81116937Y-114680930D01*
X81074491Y-114697735D01*
X81063445Y-114701517D01*
X81019602Y-114714255D01*
X81001332Y-114725060D01*
X80983863Y-114733618D01*
X80964128Y-114741432D01*
X80964126Y-114741433D01*
X80927201Y-114768260D01*
X80917442Y-114774671D01*
X80878132Y-114797920D01*
X80863126Y-114812926D01*
X80848336Y-114825558D01*
X80831167Y-114838032D01*
X80831165Y-114838034D01*
X80802056Y-114873219D01*
X80794196Y-114881856D01*
X79100483Y-116575569D01*
X79087910Y-116585643D01*
X79088065Y-116585830D01*
X79082058Y-116590799D01*
X79034133Y-116641833D01*
X79031427Y-116644625D01*
X79011090Y-116664963D01*
X79011077Y-116664978D01*
X79008373Y-116668463D01*
X79000806Y-116677322D01*
X78969552Y-116710607D01*
X78959322Y-116729213D01*
X78948646Y-116745464D01*
X78935640Y-116762232D01*
X78935636Y-116762238D01*
X78917508Y-116804130D01*
X78912369Y-116814619D01*
X78890372Y-116854630D01*
X78890372Y-116854631D01*
X78885091Y-116875199D01*
X78878791Y-116893601D01*
X78870364Y-116913073D01*
X78863223Y-116958162D01*
X78860854Y-116969600D01*
X78849500Y-117013817D01*
X78849500Y-117035044D01*
X78847973Y-117054444D01*
X78844653Y-117075403D01*
X78848950Y-117120858D01*
X78849500Y-117132528D01*
X78849500Y-117335500D01*
X78829815Y-117402539D01*
X78777011Y-117448294D01*
X78725500Y-117459500D01*
X77975068Y-117459500D01*
X77909096Y-117440494D01*
X77819522Y-117384210D01*
X77819518Y-117384209D01*
X77649262Y-117324633D01*
X77649249Y-117324630D01*
X77470004Y-117304435D01*
X77469996Y-117304435D01*
X77290750Y-117324630D01*
X77290745Y-117324631D01*
X77120476Y-117384211D01*
X76967737Y-117480184D01*
X76840184Y-117607737D01*
X76744211Y-117760476D01*
X76684631Y-117930745D01*
X76684630Y-117930750D01*
X76664435Y-118109996D01*
X76664435Y-118110003D01*
X76684630Y-118289249D01*
X76684631Y-118289254D01*
X76744211Y-118459523D01*
X76816474Y-118574528D01*
X76835474Y-118641765D01*
X76815106Y-118708600D01*
X76761838Y-118753814D01*
X76711480Y-118764500D01*
X76250506Y-118764500D01*
X76234495Y-118762732D01*
X76234473Y-118762974D01*
X76226706Y-118762239D01*
X76156724Y-118764439D01*
X76152829Y-118764500D01*
X76124075Y-118764500D01*
X76124069Y-118764500D01*
X76124063Y-118764501D01*
X76119699Y-118765052D01*
X76108069Y-118765967D01*
X76062433Y-118767401D01*
X76047873Y-118771630D01*
X76042040Y-118773325D01*
X76022996Y-118777269D01*
X76001942Y-118779929D01*
X76001940Y-118779929D01*
X75959496Y-118796733D01*
X75948450Y-118800515D01*
X75904601Y-118813254D01*
X75886325Y-118824063D01*
X75868860Y-118832619D01*
X75849124Y-118840433D01*
X75812187Y-118867269D01*
X75802428Y-118873680D01*
X75763136Y-118896917D01*
X75748124Y-118911929D01*
X75733336Y-118924558D01*
X75716167Y-118937032D01*
X75716165Y-118937034D01*
X75687056Y-118972219D01*
X75679196Y-118980856D01*
X75326937Y-119333115D01*
X75265614Y-119366600D01*
X75207163Y-119365209D01*
X75166697Y-119354366D01*
X75166693Y-119354365D01*
X75166692Y-119354365D01*
X75166691Y-119354364D01*
X75166686Y-119354364D01*
X74940002Y-119334532D01*
X74939998Y-119334532D01*
X74713313Y-119354364D01*
X74713302Y-119354366D01*
X74493511Y-119413258D01*
X74493502Y-119413261D01*
X74287267Y-119509431D01*
X74287265Y-119509432D01*
X74100858Y-119639954D01*
X73939954Y-119800858D01*
X73809432Y-119987265D01*
X73809431Y-119987267D01*
X73803727Y-119999500D01*
X73783669Y-120042516D01*
X73782382Y-120045275D01*
X73736209Y-120097714D01*
X73669016Y-120116866D01*
X73602135Y-120096650D01*
X73557618Y-120045275D01*
X73556332Y-120042517D01*
X73530568Y-119987266D01*
X73400047Y-119800861D01*
X73400045Y-119800858D01*
X73239141Y-119639954D01*
X73052734Y-119509432D01*
X73052732Y-119509431D01*
X72846497Y-119413261D01*
X72846488Y-119413258D01*
X72626697Y-119354366D01*
X72626693Y-119354365D01*
X72626692Y-119354365D01*
X72626691Y-119354364D01*
X72626686Y-119354364D01*
X72400002Y-119334532D01*
X72399998Y-119334532D01*
X72173313Y-119354364D01*
X72173302Y-119354366D01*
X71953511Y-119413258D01*
X71953502Y-119413261D01*
X71747267Y-119509431D01*
X71747265Y-119509432D01*
X71560858Y-119639954D01*
X71399954Y-119800858D01*
X71269432Y-119987265D01*
X71269431Y-119987267D01*
X71263727Y-119999500D01*
X71243669Y-120042516D01*
X71242382Y-120045275D01*
X71196209Y-120097714D01*
X71129016Y-120116866D01*
X71062135Y-120096650D01*
X71017618Y-120045275D01*
X71016332Y-120042517D01*
X70990568Y-119987266D01*
X70860047Y-119800861D01*
X70860045Y-119800858D01*
X70699141Y-119639954D01*
X70512734Y-119509432D01*
X70512732Y-119509431D01*
X70306497Y-119413261D01*
X70306488Y-119413258D01*
X70086697Y-119354366D01*
X70086693Y-119354365D01*
X70086692Y-119354365D01*
X70086691Y-119354364D01*
X70086686Y-119354364D01*
X69860002Y-119334532D01*
X69859998Y-119334532D01*
X69633313Y-119354364D01*
X69633302Y-119354366D01*
X69413511Y-119413258D01*
X69413502Y-119413261D01*
X69207267Y-119509431D01*
X69207265Y-119509432D01*
X69020858Y-119639954D01*
X68859954Y-119800858D01*
X68729432Y-119987265D01*
X68729431Y-119987267D01*
X68723727Y-119999500D01*
X68703669Y-120042516D01*
X68702382Y-120045275D01*
X68656209Y-120097714D01*
X68589016Y-120116866D01*
X68522135Y-120096650D01*
X68477618Y-120045275D01*
X68476332Y-120042517D01*
X68450568Y-119987266D01*
X68342085Y-119832335D01*
X68320048Y-119800862D01*
X68245697Y-119726511D01*
X68159139Y-119639953D01*
X68144661Y-119629815D01*
X68123375Y-119614910D01*
X68079751Y-119560332D01*
X68070500Y-119513336D01*
X68070500Y-119117229D01*
X68090185Y-119050190D01*
X68106814Y-119029553D01*
X71250510Y-115885856D01*
X71311831Y-115852373D01*
X71381523Y-115857357D01*
X71423600Y-115888851D01*
X71426180Y-115886272D01*
X71432451Y-115892542D01*
X71432454Y-115892546D01*
X71451651Y-115906917D01*
X71547664Y-115978793D01*
X71547671Y-115978797D01*
X71682517Y-116029091D01*
X71682516Y-116029091D01*
X71689444Y-116029835D01*
X71742127Y-116035500D01*
X73037872Y-116035499D01*
X73097483Y-116029091D01*
X73232331Y-115978796D01*
X73347546Y-115892546D01*
X73364993Y-115869240D01*
X73809311Y-115869240D01*
X73897585Y-115923897D01*
X74087678Y-115997539D01*
X74288072Y-116035000D01*
X74491928Y-116035000D01*
X74692322Y-115997539D01*
X74882412Y-115923899D01*
X74882416Y-115923897D01*
X74970686Y-115869241D01*
X74970686Y-115869240D01*
X74390001Y-115288553D01*
X74390000Y-115288553D01*
X73809311Y-115869240D01*
X73364993Y-115869240D01*
X73433796Y-115777331D01*
X73484091Y-115642483D01*
X73486725Y-115617986D01*
X73490499Y-115582886D01*
X73490499Y-115582882D01*
X73490500Y-115582873D01*
X73490499Y-115532305D01*
X73510182Y-115465269D01*
X73526818Y-115444626D01*
X74036446Y-114935000D01*
X74036446Y-114934999D01*
X74008287Y-114906840D01*
X74086105Y-114906840D01*
X74096454Y-115018521D01*
X74146448Y-115118922D01*
X74229334Y-115194484D01*
X74333920Y-115235000D01*
X74417802Y-115235000D01*
X74500250Y-115219588D01*
X74595610Y-115160543D01*
X74663201Y-115071038D01*
X74693895Y-114963160D01*
X74691286Y-114935000D01*
X74743553Y-114935000D01*
X75327465Y-115518912D01*
X75329247Y-115516553D01*
X75329248Y-115516551D01*
X75420113Y-115334069D01*
X75420116Y-115334063D01*
X75475902Y-115137992D01*
X75475903Y-115137989D01*
X75494713Y-114935000D01*
X75494713Y-114934999D01*
X75475903Y-114732010D01*
X75475902Y-114732007D01*
X75420116Y-114535936D01*
X75420113Y-114535930D01*
X75329249Y-114353449D01*
X75329247Y-114353447D01*
X75327465Y-114351087D01*
X74743553Y-114935000D01*
X74691286Y-114935000D01*
X74683546Y-114851479D01*
X74633552Y-114751078D01*
X74550666Y-114675516D01*
X74446080Y-114635000D01*
X74362198Y-114635000D01*
X74279750Y-114650412D01*
X74184390Y-114709457D01*
X74116799Y-114798962D01*
X74086105Y-114906840D01*
X74008287Y-114906840D01*
X73526818Y-114425371D01*
X73493333Y-114364048D01*
X73490499Y-114337690D01*
X73490499Y-114287129D01*
X73490498Y-114287123D01*
X73490497Y-114287116D01*
X73484091Y-114227517D01*
X73483750Y-114226604D01*
X73433797Y-114092671D01*
X73433793Y-114092664D01*
X73364992Y-114000758D01*
X73809311Y-114000758D01*
X74390000Y-114581446D01*
X74390001Y-114581446D01*
X74970687Y-114000758D01*
X74882413Y-113946101D01*
X74882411Y-113946100D01*
X74692321Y-113872460D01*
X74491928Y-113835000D01*
X74288072Y-113835000D01*
X74087678Y-113872460D01*
X73897588Y-113946100D01*
X73897581Y-113946104D01*
X73809312Y-114000757D01*
X73809311Y-114000758D01*
X73364992Y-114000758D01*
X73347547Y-113977455D01*
X73347544Y-113977452D01*
X73232335Y-113891206D01*
X73232332Y-113891205D01*
X73232331Y-113891204D01*
X73221161Y-113887038D01*
X73165231Y-113845166D01*
X73140816Y-113779701D01*
X73140500Y-113770858D01*
X73140500Y-113392230D01*
X73160185Y-113325191D01*
X73176819Y-113304549D01*
X73705363Y-112776005D01*
X89066754Y-112776005D01*
X89085718Y-113077446D01*
X89085719Y-113077453D01*
X89142320Y-113374164D01*
X89235659Y-113661431D01*
X89235661Y-113661436D01*
X89364265Y-113934732D01*
X89364268Y-113934738D01*
X89526111Y-114189763D01*
X89526114Y-114189767D01*
X89526115Y-114189768D01*
X89708907Y-114410726D01*
X89718652Y-114422505D01*
X89938836Y-114629272D01*
X89938846Y-114629280D01*
X90183193Y-114806808D01*
X90183198Y-114806810D01*
X90183205Y-114806816D01*
X90447896Y-114952332D01*
X90447901Y-114952334D01*
X90447903Y-114952335D01*
X90447904Y-114952336D01*
X90728734Y-115063524D01*
X90728737Y-115063525D01*
X90757999Y-115071038D01*
X91021302Y-115138642D01*
X91168039Y-115157179D01*
X91320963Y-115176499D01*
X91320969Y-115176499D01*
X91320973Y-115176500D01*
X91320975Y-115176500D01*
X91623025Y-115176500D01*
X91623027Y-115176500D01*
X91623032Y-115176499D01*
X91623036Y-115176499D01*
X91749337Y-115160543D01*
X91922698Y-115138642D01*
X92215262Y-115063525D01*
X92257058Y-115046977D01*
X92496095Y-114952336D01*
X92496096Y-114952335D01*
X92496094Y-114952335D01*
X92496104Y-114952332D01*
X92760795Y-114806816D01*
X93005162Y-114629274D01*
X93225349Y-114422504D01*
X93417885Y-114189768D01*
X93579733Y-113934736D01*
X93708341Y-113661430D01*
X93801681Y-113374160D01*
X93858280Y-113077457D01*
X93860579Y-113040916D01*
X93877246Y-112776005D01*
X93877246Y-112775994D01*
X93858281Y-112474553D01*
X93858280Y-112474546D01*
X93858280Y-112474543D01*
X93801681Y-112177840D01*
X93708341Y-111890570D01*
X93579733Y-111617264D01*
X93511370Y-111509541D01*
X93417888Y-111362236D01*
X93417885Y-111362232D01*
X93225349Y-111129496D01*
X93005162Y-110922726D01*
X93005159Y-110922724D01*
X93005153Y-110922719D01*
X92760806Y-110745191D01*
X92760799Y-110745186D01*
X92760795Y-110745184D01*
X92496104Y-110599668D01*
X92496101Y-110599666D01*
X92496096Y-110599664D01*
X92496095Y-110599663D01*
X92215265Y-110488475D01*
X92215262Y-110488474D01*
X91922695Y-110413357D01*
X91623036Y-110375500D01*
X91623027Y-110375500D01*
X91320973Y-110375500D01*
X91320963Y-110375500D01*
X91021304Y-110413357D01*
X90728737Y-110488474D01*
X90728734Y-110488475D01*
X90447904Y-110599663D01*
X90447903Y-110599664D01*
X90183205Y-110745184D01*
X90183193Y-110745191D01*
X89938846Y-110922719D01*
X89938836Y-110922727D01*
X89718652Y-111129494D01*
X89526111Y-111362236D01*
X89364268Y-111617261D01*
X89364265Y-111617267D01*
X89235661Y-111890563D01*
X89235659Y-111890568D01*
X89142320Y-112177835D01*
X89085719Y-112474546D01*
X89085718Y-112474553D01*
X89066754Y-112775994D01*
X89066754Y-112776005D01*
X73705363Y-112776005D01*
X74569549Y-111911819D01*
X74630872Y-111878334D01*
X74657230Y-111875500D01*
X76470249Y-111875500D01*
X76537288Y-111895185D01*
X76569515Y-111925188D01*
X76612451Y-111982542D01*
X76612454Y-111982546D01*
X76612457Y-111982548D01*
X76727664Y-112068793D01*
X76727671Y-112068797D01*
X76862517Y-112119091D01*
X76862516Y-112119091D01*
X76869444Y-112119835D01*
X76922127Y-112125500D01*
X78017872Y-112125499D01*
X78077483Y-112119091D01*
X78212329Y-112068797D01*
X78212329Y-112068796D01*
X78212331Y-112068796D01*
X78220822Y-112062439D01*
X78286284Y-112038021D01*
X78349628Y-112051502D01*
X78349830Y-112051016D01*
X78352461Y-112052105D01*
X78353585Y-112052345D01*
X78355462Y-112053348D01*
X78490000Y-112094159D01*
X78490000Y-111332672D01*
X78527871Y-111377805D01*
X78627129Y-111435112D01*
X78711564Y-111450000D01*
X78768436Y-111450000D01*
X78852871Y-111435112D01*
X78952129Y-111377805D01*
X78954483Y-111375000D01*
X78990000Y-111375000D01*
X78990000Y-112094159D01*
X79124534Y-112053349D01*
X79298260Y-111960491D01*
X79450528Y-111835528D01*
X79575492Y-111683260D01*
X79575496Y-111683253D01*
X79668347Y-111509541D01*
X79709160Y-111375000D01*
X78990000Y-111375000D01*
X78954483Y-111375000D01*
X79025801Y-111290007D01*
X79065000Y-111182306D01*
X79065000Y-111067694D01*
X79025801Y-110959993D01*
X78952129Y-110872195D01*
X78852871Y-110814888D01*
X78768436Y-110800000D01*
X78711564Y-110800000D01*
X78627129Y-110814888D01*
X78527871Y-110872195D01*
X78490000Y-110917327D01*
X78490000Y-110155839D01*
X78990000Y-110155839D01*
X78990000Y-110875000D01*
X79709160Y-110875000D01*
X79709160Y-110874999D01*
X79668347Y-110740458D01*
X79575496Y-110566746D01*
X79575492Y-110566739D01*
X79450528Y-110414471D01*
X79298260Y-110289507D01*
X79298253Y-110289503D01*
X79124541Y-110196652D01*
X78990000Y-110155839D01*
X78490000Y-110155839D01*
X78489999Y-110155839D01*
X78355464Y-110196650D01*
X78353586Y-110197655D01*
X78352486Y-110197883D01*
X78349838Y-110198981D01*
X78349629Y-110198478D01*
X78285183Y-110211895D01*
X78220824Y-110187561D01*
X78212335Y-110181206D01*
X78212328Y-110181202D01*
X78077482Y-110130908D01*
X78077483Y-110130908D01*
X78017883Y-110124501D01*
X78017881Y-110124500D01*
X78017873Y-110124500D01*
X78017864Y-110124500D01*
X76922129Y-110124500D01*
X76922123Y-110124501D01*
X76862516Y-110130908D01*
X76727671Y-110181202D01*
X76727664Y-110181206D01*
X76612457Y-110267451D01*
X76612451Y-110267457D01*
X76569515Y-110324812D01*
X76513581Y-110366682D01*
X76470249Y-110374500D01*
X74358705Y-110374500D01*
X74340735Y-110373191D01*
X74316972Y-110369710D01*
X74269843Y-110373834D01*
X74267630Y-110374028D01*
X74256824Y-110374500D01*
X74251284Y-110374500D01*
X74220501Y-110378098D01*
X74216916Y-110378464D01*
X74142199Y-110385001D01*
X74135132Y-110386460D01*
X74135120Y-110386404D01*
X74127763Y-110388035D01*
X74127777Y-110388092D01*
X74120740Y-110389760D01*
X74050231Y-110415421D01*
X74046854Y-110416595D01*
X74007848Y-110429521D01*
X73975668Y-110440185D01*
X73969126Y-110443236D01*
X73969101Y-110443183D01*
X73962308Y-110446471D01*
X73962334Y-110446523D01*
X73955880Y-110449764D01*
X73893221Y-110490975D01*
X73890181Y-110492912D01*
X73826348Y-110532285D01*
X73820683Y-110536765D01*
X73820647Y-110536719D01*
X73814798Y-110541484D01*
X73814835Y-110541528D01*
X73809310Y-110546164D01*
X73757832Y-110600726D01*
X73755320Y-110603311D01*
X71904358Y-112454272D01*
X71890729Y-112466051D01*
X71871469Y-112480390D01*
X71839632Y-112518331D01*
X71832346Y-112526284D01*
X71828407Y-112530224D01*
X71809176Y-112554545D01*
X71806902Y-112557337D01*
X71758694Y-112614790D01*
X71754729Y-112620819D01*
X71754682Y-112620788D01*
X71750630Y-112627147D01*
X71750679Y-112627177D01*
X71746889Y-112633321D01*
X71715192Y-112701294D01*
X71713623Y-112704536D01*
X71679957Y-112771572D01*
X71677488Y-112778357D01*
X71677432Y-112778336D01*
X71674960Y-112785450D01*
X71675015Y-112785469D01*
X71672743Y-112792325D01*
X71657573Y-112865788D01*
X71656793Y-112869304D01*
X71639499Y-112942279D01*
X71638661Y-112949454D01*
X71638601Y-112949447D01*
X71637835Y-112956945D01*
X71637895Y-112956951D01*
X71637265Y-112964140D01*
X71639448Y-113039128D01*
X71639500Y-113042735D01*
X71639500Y-113770858D01*
X71619815Y-113837897D01*
X71567011Y-113883652D01*
X71558847Y-113887034D01*
X71547669Y-113891204D01*
X71547664Y-113891206D01*
X71432455Y-113977452D01*
X71432452Y-113977455D01*
X71346206Y-114092664D01*
X71346204Y-114092668D01*
X71346204Y-114092669D01*
X71342039Y-114103834D01*
X71300171Y-114159766D01*
X71234707Y-114184184D01*
X71225859Y-114184500D01*
X71203705Y-114184500D01*
X71185735Y-114183191D01*
X71161972Y-114179710D01*
X71114843Y-114183834D01*
X71112630Y-114184028D01*
X71101824Y-114184500D01*
X71096284Y-114184500D01*
X71065501Y-114188098D01*
X71061916Y-114188464D01*
X70987199Y-114195001D01*
X70980132Y-114196460D01*
X70980120Y-114196404D01*
X70972763Y-114198035D01*
X70972777Y-114198092D01*
X70965740Y-114199760D01*
X70895231Y-114225421D01*
X70891854Y-114226595D01*
X70852848Y-114239521D01*
X70820668Y-114250185D01*
X70814126Y-114253236D01*
X70814101Y-114253183D01*
X70807308Y-114256471D01*
X70807334Y-114256523D01*
X70800880Y-114259764D01*
X70738221Y-114300975D01*
X70735181Y-114302912D01*
X70671348Y-114342285D01*
X70665683Y-114346765D01*
X70665647Y-114346719D01*
X70659798Y-114351484D01*
X70659835Y-114351528D01*
X70654310Y-114356164D01*
X70654304Y-114356169D01*
X70654304Y-114356170D01*
X70640655Y-114370637D01*
X70602832Y-114410726D01*
X70600320Y-114413311D01*
X69654545Y-115359085D01*
X69593222Y-115392570D01*
X69523530Y-115387586D01*
X69467597Y-115345714D01*
X69443180Y-115280250D01*
X69447598Y-115237469D01*
X69475903Y-115137988D01*
X69494713Y-114935000D01*
X69494713Y-114934999D01*
X69475903Y-114732010D01*
X69475902Y-114732007D01*
X69420116Y-114535936D01*
X69420113Y-114535930D01*
X69329249Y-114353449D01*
X69329247Y-114353447D01*
X69327465Y-114351087D01*
X68685345Y-114993206D01*
X68693895Y-114963160D01*
X68683546Y-114851479D01*
X68633552Y-114751078D01*
X68550666Y-114675516D01*
X68446080Y-114635000D01*
X68362198Y-114635000D01*
X68279750Y-114650412D01*
X68184390Y-114709457D01*
X68116799Y-114798962D01*
X68086105Y-114906840D01*
X68096454Y-115018521D01*
X68146448Y-115118922D01*
X68229334Y-115194484D01*
X68333920Y-115235000D01*
X68417802Y-115235000D01*
X68449473Y-115229079D01*
X68390000Y-115288553D01*
X67809311Y-115869240D01*
X67897585Y-115923897D01*
X68087678Y-115997539D01*
X68288072Y-116035000D01*
X68491928Y-116035000D01*
X68696914Y-115996681D01*
X68766429Y-116003712D01*
X68821107Y-116047209D01*
X68843590Y-116113363D01*
X68826737Y-116181170D01*
X68807380Y-116206251D01*
X67510181Y-117503450D01*
X67448858Y-117536935D01*
X67379166Y-117531951D01*
X67323233Y-117490079D01*
X67298816Y-117424615D01*
X67298500Y-117415769D01*
X67298500Y-115991331D01*
X67318185Y-115924292D01*
X67341600Y-115899143D01*
X67341275Y-115898818D01*
X67347543Y-115892549D01*
X67347544Y-115892547D01*
X67347546Y-115892546D01*
X67433796Y-115777331D01*
X67484091Y-115642483D01*
X67486725Y-115617986D01*
X67490499Y-115582886D01*
X67490499Y-115582882D01*
X67490500Y-115582873D01*
X67490499Y-115532305D01*
X67510182Y-115465269D01*
X67526818Y-115444626D01*
X68036446Y-114935000D01*
X68036446Y-114934999D01*
X67526818Y-114425371D01*
X67493333Y-114364048D01*
X67490499Y-114337690D01*
X67490499Y-114287129D01*
X67490498Y-114287123D01*
X67490497Y-114287116D01*
X67484091Y-114227517D01*
X67483750Y-114226604D01*
X67433797Y-114092671D01*
X67433793Y-114092664D01*
X67364992Y-114000758D01*
X67809311Y-114000758D01*
X68390000Y-114581446D01*
X68390001Y-114581446D01*
X68970687Y-114000758D01*
X68882413Y-113946101D01*
X68882411Y-113946100D01*
X68692321Y-113872460D01*
X68491928Y-113835000D01*
X68288072Y-113835000D01*
X68087678Y-113872460D01*
X67897588Y-113946100D01*
X67897581Y-113946104D01*
X67809312Y-114000757D01*
X67809311Y-114000758D01*
X67364992Y-114000758D01*
X67347547Y-113977455D01*
X67347544Y-113977452D01*
X67232335Y-113891206D01*
X67232328Y-113891202D01*
X67097482Y-113840908D01*
X67097483Y-113840908D01*
X67037883Y-113834501D01*
X67037881Y-113834500D01*
X67037873Y-113834500D01*
X67037864Y-113834500D01*
X65742129Y-113834500D01*
X65742123Y-113834501D01*
X65682516Y-113840908D01*
X65547671Y-113891202D01*
X65547664Y-113891206D01*
X65432455Y-113977452D01*
X65432452Y-113977455D01*
X65346206Y-114092664D01*
X65346202Y-114092671D01*
X65295908Y-114227517D01*
X65289782Y-114284500D01*
X65289501Y-114287123D01*
X65289500Y-114287135D01*
X65289500Y-115505192D01*
X65269815Y-115572231D01*
X65217011Y-115617986D01*
X65147853Y-115627930D01*
X65084297Y-115598905D01*
X65077819Y-115592873D01*
X64655434Y-115170488D01*
X64645361Y-115157914D01*
X64645174Y-115158070D01*
X64640198Y-115152054D01*
X64589167Y-115104134D01*
X64586369Y-115101423D01*
X64566035Y-115081089D01*
X64562548Y-115078384D01*
X64553669Y-115070800D01*
X64520396Y-115039554D01*
X64520388Y-115039548D01*
X64501792Y-115029325D01*
X64485531Y-115018644D01*
X64485372Y-115018521D01*
X64468764Y-115005638D01*
X64468763Y-115005637D01*
X64452409Y-114998560D01*
X64426853Y-114987501D01*
X64416394Y-114982377D01*
X64376368Y-114960373D01*
X64376365Y-114960372D01*
X64355801Y-114955092D01*
X64337396Y-114948790D01*
X64317927Y-114940365D01*
X64317921Y-114940363D01*
X64272837Y-114933223D01*
X64261398Y-114930854D01*
X64217180Y-114919500D01*
X64217177Y-114919500D01*
X64195955Y-114919500D01*
X64176555Y-114917973D01*
X64155596Y-114914653D01*
X64155595Y-114914653D01*
X64136184Y-114916488D01*
X64110140Y-114918950D01*
X64098470Y-114919500D01*
X61915808Y-114919500D01*
X61848769Y-114899815D01*
X61828127Y-114883181D01*
X61480434Y-114535488D01*
X61470361Y-114522914D01*
X61470174Y-114523070D01*
X61465198Y-114517054D01*
X61414167Y-114469134D01*
X61411369Y-114466423D01*
X61391035Y-114446089D01*
X61387548Y-114443384D01*
X61378669Y-114435800D01*
X61345396Y-114404554D01*
X61345388Y-114404548D01*
X61326792Y-114394325D01*
X61310531Y-114383644D01*
X61293763Y-114370637D01*
X61277409Y-114363560D01*
X61251853Y-114352501D01*
X61241394Y-114347377D01*
X61201368Y-114325373D01*
X61201365Y-114325372D01*
X61180801Y-114320092D01*
X61162396Y-114313790D01*
X61142927Y-114305365D01*
X61142921Y-114305363D01*
X61097837Y-114298223D01*
X61086398Y-114295854D01*
X61042180Y-114284500D01*
X61042177Y-114284500D01*
X61020955Y-114284500D01*
X61001555Y-114282973D01*
X60980596Y-114279653D01*
X60980595Y-114279653D01*
X60945475Y-114282973D01*
X60935140Y-114283950D01*
X60923470Y-114284500D01*
X60819596Y-114284500D01*
X60752557Y-114264815D01*
X60731915Y-114248181D01*
X60727603Y-114243869D01*
X60727595Y-114243863D01*
X60589393Y-114162131D01*
X60589388Y-114162129D01*
X60435208Y-114117335D01*
X60435202Y-114117334D01*
X60399181Y-114114500D01*
X60000830Y-114114500D01*
X60000808Y-114114501D01*
X59964794Y-114117335D01*
X59810611Y-114162129D01*
X59810607Y-114162130D01*
X59752628Y-114196419D01*
X59684903Y-114213600D01*
X59626388Y-114196419D01*
X59569189Y-114162592D01*
X59569188Y-114162591D01*
X59430001Y-114122153D01*
X59430000Y-114122154D01*
X59430000Y-114674591D01*
X59429618Y-114684316D01*
X59429500Y-114685803D01*
X59429500Y-115184170D01*
X59429501Y-115184182D01*
X59429618Y-115185663D01*
X59430000Y-115195393D01*
X59430000Y-115747844D01*
X59569194Y-115707405D01*
X59569196Y-115707404D01*
X59626386Y-115673582D01*
X59694109Y-115656398D01*
X59752629Y-115673581D01*
X59810607Y-115707869D01*
X59851268Y-115719682D01*
X59964791Y-115752664D01*
X59964794Y-115752664D01*
X59964796Y-115752665D01*
X60000819Y-115755500D01*
X60399180Y-115755499D01*
X60435204Y-115752665D01*
X60589393Y-115707869D01*
X60647067Y-115673760D01*
X60714786Y-115656578D01*
X60781049Y-115678737D01*
X60797866Y-115692812D01*
X60908181Y-115803127D01*
X60941666Y-115864450D01*
X60944500Y-115890808D01*
X60944500Y-116345404D01*
X60924815Y-116412443D01*
X60908181Y-116433085D01*
X60903869Y-116437396D01*
X60903863Y-116437404D01*
X60822131Y-116575606D01*
X60822129Y-116575611D01*
X60777335Y-116729791D01*
X60777334Y-116729797D01*
X60774500Y-116765811D01*
X60774500Y-116767692D01*
X60774415Y-116767979D01*
X60774405Y-116768247D01*
X60774337Y-116768244D01*
X60754815Y-116834731D01*
X60702011Y-116880486D01*
X60632853Y-116890430D01*
X60569297Y-116861405D01*
X60562819Y-116855373D01*
X60272934Y-116565488D01*
X60262861Y-116552914D01*
X60262674Y-116553070D01*
X60257698Y-116547054D01*
X60206667Y-116499134D01*
X60203869Y-116496423D01*
X60183535Y-116476089D01*
X60180048Y-116473384D01*
X60171169Y-116465800D01*
X60137896Y-116434554D01*
X60137888Y-116434548D01*
X60119292Y-116424325D01*
X60103031Y-116413644D01*
X60086263Y-116400637D01*
X60069909Y-116393560D01*
X60044353Y-116382501D01*
X60033894Y-116377377D01*
X59993868Y-116355373D01*
X59993865Y-116355372D01*
X59973301Y-116350092D01*
X59954896Y-116343790D01*
X59935427Y-116335365D01*
X59935421Y-116335363D01*
X59890337Y-116328223D01*
X59878898Y-116325854D01*
X59834680Y-116314500D01*
X59834677Y-116314500D01*
X59813455Y-116314500D01*
X59794055Y-116312973D01*
X59773096Y-116309653D01*
X59773095Y-116309653D01*
X59730322Y-116313696D01*
X59727640Y-116313950D01*
X59715970Y-116314500D01*
X59650685Y-116314500D01*
X59587564Y-116297232D01*
X59580389Y-116292989D01*
X59494393Y-116242131D01*
X59494388Y-116242129D01*
X59340208Y-116197335D01*
X59340202Y-116197334D01*
X59304181Y-116194500D01*
X58805830Y-116194500D01*
X58805808Y-116194501D01*
X58769794Y-116197335D01*
X58615611Y-116242129D01*
X58615606Y-116242131D01*
X58522436Y-116297232D01*
X58459315Y-116314500D01*
X57745685Y-116314500D01*
X57682564Y-116297232D01*
X57675389Y-116292989D01*
X57589393Y-116242131D01*
X57589388Y-116242129D01*
X57435208Y-116197335D01*
X57435202Y-116197334D01*
X57399181Y-116194500D01*
X56900830Y-116194500D01*
X56900808Y-116194501D01*
X56864794Y-116197335D01*
X56710611Y-116242129D01*
X56710606Y-116242131D01*
X56572404Y-116323863D01*
X56572396Y-116323869D01*
X56458869Y-116437396D01*
X56458863Y-116437404D01*
X56377131Y-116575606D01*
X56377129Y-116575611D01*
X56332335Y-116729791D01*
X56332334Y-116729797D01*
X56329500Y-116765811D01*
X56329500Y-117164169D01*
X56329501Y-117164191D01*
X56332335Y-117200205D01*
X56377129Y-117354388D01*
X56377132Y-117354395D01*
X56411128Y-117411881D01*
X56428309Y-117479605D01*
X56411128Y-117538119D01*
X56377132Y-117595604D01*
X56377129Y-117595611D01*
X56332335Y-117749791D01*
X56332334Y-117749797D01*
X56329500Y-117785811D01*
X56329500Y-117834191D01*
X56309815Y-117901230D01*
X56293181Y-117921872D01*
X54251873Y-119963181D01*
X54190550Y-119996666D01*
X54164192Y-119999500D01*
X53769141Y-119999500D01*
X53702102Y-119979815D01*
X53656347Y-119927011D01*
X53652969Y-119918859D01*
X53648796Y-119907669D01*
X53648793Y-119907665D01*
X53648793Y-119907664D01*
X53562547Y-119792455D01*
X53562544Y-119792452D01*
X53447335Y-119706206D01*
X53447328Y-119706202D01*
X53312482Y-119655908D01*
X53312483Y-119655908D01*
X53252883Y-119649501D01*
X53252881Y-119649500D01*
X53252873Y-119649500D01*
X53252864Y-119649500D01*
X52157129Y-119649500D01*
X52157123Y-119649501D01*
X52097516Y-119655908D01*
X51962671Y-119706202D01*
X51962664Y-119706206D01*
X51847455Y-119792452D01*
X51847452Y-119792455D01*
X51761206Y-119907664D01*
X51761202Y-119907671D01*
X51710908Y-120042517D01*
X51705089Y-120096650D01*
X51704501Y-120102123D01*
X51704500Y-120102135D01*
X51704500Y-121197870D01*
X51200500Y-121197870D01*
X51200500Y-115185000D01*
X58410069Y-115185000D01*
X58412832Y-115220122D01*
X58412833Y-115220128D01*
X58457592Y-115374188D01*
X58457593Y-115374191D01*
X58539261Y-115512285D01*
X58539268Y-115512294D01*
X58652705Y-115625731D01*
X58652714Y-115625738D01*
X58790805Y-115707404D01*
X58930000Y-115747844D01*
X58930000Y-115185000D01*
X58410069Y-115185000D01*
X51200500Y-115185000D01*
X51200500Y-112776005D01*
X52252754Y-112776005D01*
X52271718Y-113077446D01*
X52271719Y-113077453D01*
X52328320Y-113374164D01*
X52421659Y-113661431D01*
X52421661Y-113661436D01*
X52550265Y-113934732D01*
X52550268Y-113934738D01*
X52712111Y-114189763D01*
X52712114Y-114189767D01*
X52712115Y-114189768D01*
X52894907Y-114410726D01*
X52904652Y-114422505D01*
X53124836Y-114629272D01*
X53124846Y-114629280D01*
X53369193Y-114806808D01*
X53369198Y-114806810D01*
X53369205Y-114806816D01*
X53633896Y-114952332D01*
X53633901Y-114952334D01*
X53633903Y-114952335D01*
X53633904Y-114952336D01*
X53914734Y-115063524D01*
X53914737Y-115063525D01*
X53943999Y-115071038D01*
X54207302Y-115138642D01*
X54354039Y-115157179D01*
X54506963Y-115176499D01*
X54506969Y-115176499D01*
X54506973Y-115176500D01*
X54506975Y-115176500D01*
X54809025Y-115176500D01*
X54809027Y-115176500D01*
X54809032Y-115176499D01*
X54809036Y-115176499D01*
X54935337Y-115160543D01*
X55108698Y-115138642D01*
X55401262Y-115063525D01*
X55443058Y-115046977D01*
X55682095Y-114952336D01*
X55682096Y-114952335D01*
X55682094Y-114952335D01*
X55682104Y-114952332D01*
X55946795Y-114806816D01*
X56114461Y-114685000D01*
X58410069Y-114685000D01*
X58930000Y-114685000D01*
X58930000Y-114122154D01*
X58929998Y-114122153D01*
X58790811Y-114162591D01*
X58790808Y-114162593D01*
X58652714Y-114244261D01*
X58652705Y-114244268D01*
X58539268Y-114357705D01*
X58539261Y-114357714D01*
X58457593Y-114495808D01*
X58457592Y-114495811D01*
X58412833Y-114649871D01*
X58412832Y-114649877D01*
X58410069Y-114685000D01*
X56114461Y-114685000D01*
X56191162Y-114629274D01*
X56411349Y-114422504D01*
X56603885Y-114189768D01*
X56765733Y-113934736D01*
X56894341Y-113661430D01*
X56987681Y-113374160D01*
X57044280Y-113077457D01*
X57046579Y-113040916D01*
X57063246Y-112776005D01*
X57063246Y-112775994D01*
X57044281Y-112474553D01*
X57044280Y-112474546D01*
X57044280Y-112474543D01*
X56987681Y-112177840D01*
X56894341Y-111890570D01*
X56765733Y-111617264D01*
X56697370Y-111509541D01*
X56603888Y-111362236D01*
X56603885Y-111362232D01*
X56411349Y-111129496D01*
X56191162Y-110922726D01*
X56191159Y-110922724D01*
X56191153Y-110922719D01*
X55946806Y-110745191D01*
X55946799Y-110745186D01*
X55946795Y-110745184D01*
X55682104Y-110599668D01*
X55682101Y-110599666D01*
X55682096Y-110599664D01*
X55682095Y-110599663D01*
X55401265Y-110488475D01*
X55401262Y-110488474D01*
X55108695Y-110413357D01*
X54809036Y-110375500D01*
X54809027Y-110375500D01*
X54506973Y-110375500D01*
X54506963Y-110375500D01*
X54207304Y-110413357D01*
X53914737Y-110488474D01*
X53914734Y-110488475D01*
X53633904Y-110599663D01*
X53633903Y-110599664D01*
X53369205Y-110745184D01*
X53369193Y-110745191D01*
X53124846Y-110922719D01*
X53124836Y-110922727D01*
X52904652Y-111129494D01*
X52712111Y-111362236D01*
X52550268Y-111617261D01*
X52550265Y-111617267D01*
X52421661Y-111890563D01*
X52421659Y-111890568D01*
X52328320Y-112177835D01*
X52271719Y-112474546D01*
X52271718Y-112474553D01*
X52252754Y-112775994D01*
X52252754Y-112776005D01*
X51200500Y-112776005D01*
X51200500Y-109744500D01*
X51220185Y-109677461D01*
X51272989Y-109631706D01*
X51324500Y-109620500D01*
X94725500Y-109620500D01*
X94792539Y-109640185D01*
G37*
%TD.AperFunction*%
%TD*%
M02*
